<svg width="148" height="30" viewBox="0 0 148 30" fill="none" xmlns="http://www.w3.org/2000/svg">
<g clip-path="url(#clip0_40004443_19093)">
<path d="M33.2004 9.36584C33.2004 9.36584 28.9824 4.01418 23.6749 6.52277C22.781 6.94087 22.0547 7.44259 21.3843 8.00005C23.4793 9.78394 25.0437 11.7072 25.9934 13.6583L26.3286 14.5503C27.865 11.8466 29.7087 10.1463 36.1894 9.53308C43.4802 8.83625 46.9441 10.0627 47.1117 9.95118C45.3518 8.75263 37.1112 8.64113 33.2004 9.36584Z" fill="#FF671D"/>
<path d="M11.9702 26.5355C12.1936 26.2567 12.3613 25.9501 12.4171 25.6435C12.473 25.3369 12.4451 25.0303 12.3333 24.7237C12.1936 24.4171 11.9702 24.1105 11.7188 23.8039C11.6908 23.7481 11.635 23.7203 11.5791 23.6924C9.76337 26.8421 7.10962 29.4343 6.77441 29.7409C6.80235 29.7409 6.80235 29.713 6.83028 29.713C7.22136 29.5458 7.61244 29.3785 8.00352 29.1834C8.75774 28.8211 9.48403 28.4308 10.1824 28.0127C10.8807 27.5946 11.5232 27.0929 11.9702 26.5355Z" fill="#FF671D"/>
<path d="M0.629395 0C0.685263 0.0278732 0.769065 0.0557465 0.852868 0.0836197C0.769065 0.0557465 0.713197 0.0278732 0.629395 0C3.84183 2.17411 6.1883 5.88126 7.02632 10.3131C8.50684 10.8427 10.3784 11.651 12.3338 12.9611C12.5573 13.0726 12.7528 13.184 12.9484 13.3234C13.7026 13.7973 14.4289 14.299 15.1272 14.8286C15.8256 15.386 16.496 15.9714 17.1106 16.6403C17.7251 17.3093 18.3117 18.0061 18.7866 18.8144C19.2336 19.5391 19.5688 20.3753 19.7643 21.2394C19.904 21.769 19.9319 22.2707 19.8761 22.8003C19.8481 23.3578 19.7084 23.9152 19.5129 24.417C19.1498 25.3368 18.5352 26.0894 17.8927 26.7304C17.0268 27.5666 16.0491 28.2077 15.0155 28.7652C15.2948 28.6816 15.6021 28.5701 15.9094 28.4865C15.5742 28.598 15.2669 28.7094 14.9596 28.7931C14.9317 28.8209 14.8758 28.8488 14.8479 28.8488C20.8258 27.2043 24.9601 24.0267 25.7422 19.8179C27.2507 11.7625 16.0211 2.92669 0.629395 0ZM18.3397 27.3715C18.3117 27.3715 18.3117 27.3994 18.2838 27.3994C18.3117 27.3994 18.3117 27.3994 18.3397 27.3715Z" fill="#FF671D"/>
<path d="M18.3114 23.0231C18.7305 19.4553 13.7302 15.9433 12.1939 14.8841C10.4061 13.6298 8.67414 12.8493 7.27743 12.3755C7.30537 12.8215 7.3333 13.2674 7.3333 13.7134C7.3333 15.3858 7.10983 17.0024 6.71875 18.5076C11.3838 20.8768 14.68 23.5527 14.261 25.6989C13.7582 28.3469 8.89762 29.7126 8.89762 29.7405C8.92555 29.7963 17.7807 27.5385 18.3114 23.0231Z" fill="#FF671D"/>
<path d="M39.178 25.9215H32.0269L30.7698 29.0433H28.8145L34.4851 14.9673H36.664L42.3625 29.0433H40.4071L39.178 25.9215ZM32.5297 24.3606H38.6473L35.6025 16.5282L32.5297 24.3606Z" fill="#F6F6F6"/>
<path d="M50.7154 27.5102C49.9611 28.5416 48.7041 29.2941 47.2515 29.2941C44.5698 29.2941 42.6982 27.2594 42.6982 23.9425C42.6982 20.6813 44.5698 18.5908 47.2515 18.5908C48.6203 18.5908 49.8773 19.2598 50.7154 20.3747V14.9673H52.3076V29.0433H50.7154V27.5102ZM50.7154 21.6569C50.1287 20.7649 48.9276 20.0123 47.6426 20.0123C45.5755 20.0123 44.3743 21.7126 44.3743 23.9703C44.3743 26.2281 45.6034 27.9005 47.6426 27.9005C48.9276 27.9005 50.1287 27.1758 50.7154 26.2838V21.6569Z" fill="#F6F6F6"/>
<path d="M53.5083 18.8423H55.2123L58.6203 27.2043L62.0003 18.8423H63.7322L59.4862 29.0439H57.7543L53.5083 18.8423Z" fill="#F6F6F6"/>
<path d="M70.9673 27.8736C70.1293 28.7934 68.9561 29.2951 67.5873 29.2951C65.8554 29.2951 64.0117 28.1244 64.0117 25.9225C64.0117 23.6369 65.8554 22.5498 67.5873 22.5498C68.984 22.5498 70.1572 22.9958 70.9673 23.9435V22.1038C70.9673 20.738 69.8779 19.9576 68.3974 19.9576C67.1683 19.9576 66.1906 20.4036 65.2688 21.3791L64.5425 20.2921C65.6319 19.1493 66.9448 18.5918 68.6209 18.5918C70.7718 18.5918 72.5875 19.5674 72.5875 22.0202V29.0443H70.9953L70.9673 27.8736ZM70.9673 24.9748C70.3528 24.1386 69.2633 23.6926 68.146 23.6926C66.6655 23.6926 65.6319 24.6124 65.6319 25.9225C65.6319 27.2046 66.6655 28.1244 68.146 28.1244C69.2633 28.1244 70.3528 27.7064 70.9673 26.8423V24.9748Z" fill="#F6F6F6"/>
<path d="M80.9119 22.3547C80.9119 20.5708 79.9901 19.9855 78.6213 19.9855C77.3643 19.9855 76.1911 20.738 75.6045 21.5742V29.0164H74.0122V18.8427H75.6045V20.3199C76.3307 19.4837 77.7274 18.5918 79.2359 18.5918C81.3589 18.5918 82.5042 19.6789 82.5042 21.8808V29.0443H80.9119V22.3547Z" fill="#F6F6F6"/>
<path d="M88.9289 18.5918C90.8004 18.5918 91.8899 19.3444 92.672 20.3757L91.6105 21.3512C90.9401 20.4314 90.0742 20.0133 89.0127 20.0133C86.8338 20.0133 85.4929 21.6857 85.4929 23.9435C85.4929 26.2012 86.8617 27.9015 89.0127 27.9015C90.0742 27.9015 90.9401 27.4834 91.6105 26.5635L92.672 27.5391C91.8899 28.5425 90.8004 29.323 88.9289 29.323C85.884 29.323 83.8169 27.0095 83.8169 23.9713C83.8169 20.9053 85.884 18.5918 88.9289 18.5918Z" fill="#F6F6F6"/>
<path d="M98.0635 18.5918C101.164 18.5918 102.98 20.9889 102.98 24.055V24.4452H94.7114C94.8511 26.3684 96.1919 27.9851 98.3987 27.9851C99.5719 27.9851 100.745 27.5112 101.555 26.7029L102.309 27.7342C101.304 28.7377 99.9071 29.2951 98.259 29.2951C95.2421 29.2951 93.0633 27.121 93.0633 23.9435C93.0353 20.961 95.1304 18.5918 98.0635 18.5918ZM94.7114 23.3024H101.416C101.388 21.7972 100.382 19.9018 98.0635 19.9018C95.8567 19.9018 94.7672 21.7415 94.7114 23.3024Z" fill="#F6F6F6"/>
<path d="M112.086 27.5102C111.332 28.5416 110.075 29.2941 108.622 29.2941C105.968 29.2941 104.069 27.2594 104.069 23.9425C104.069 20.6813 105.94 18.5908 108.622 18.5908C109.991 18.5908 111.248 19.2598 112.086 20.3747V14.9673H113.678V29.0433H112.086V27.5102ZM112.086 21.6569C111.527 20.7649 110.298 20.0123 109.013 20.0123C106.946 20.0123 105.745 21.7126 105.745 23.9703C105.745 26.2281 106.974 27.8726 109.013 27.8726C110.27 27.8726 111.499 27.1479 112.086 26.2559V21.6569Z" fill="#F6F6F6"/>
<path d="M122.59 29.0437L119.88 20.2357L118.679 29.0437H115.188L117.115 15.0234H121.333L124.266 24.5003L127.032 15.0234H131.278L133.205 29.0437H129.685L128.456 20.2357L125.747 29.0437C125.719 29.0437 122.59 29.0437 122.59 29.0437Z" fill="#F6F6F6"/>
<path d="M134.461 15.1353C135.495 14.9681 137.45 14.7729 139.182 14.7729C143.875 14.7729 147.06 17.17 147.06 21.8806C147.06 27.0093 143.736 29.2113 139.099 29.2113C137.422 29.2113 135.579 29.1277 134.489 28.8768L134.461 15.1353ZM137.981 26.0895C138.4 26.1452 138.987 26.1452 139.49 26.1452C141.836 26.1452 143.428 24.8073 143.428 21.8806C143.428 19.1769 141.641 18.0062 139.434 18.0062C138.987 18.0062 138.428 18.0341 137.981 18.062V26.0895Z" fill="#F6F6F6"/>
</g>
<defs>
<clipPath id="clip0_40004443_19093">
<rect width="146.403" height="29.7686" fill="white" transform="translate(0.628906)"/>
</clipPath>
</defs>
</svg>
