<svg width="148" height="30" viewBox="0 0 148 30" fill="none" xmlns="http://www.w3.org/2000/svg">
<g clip-path="url(#clip0_1_4576)">
<path d="M33.2 9.36584C33.2 9.36584 28.9819 4.01418 23.6744 6.52277C22.7805 6.94087 22.0542 7.44259 21.3838 8.00005C23.4789 9.78394 25.0432 11.7072 25.9929 13.6583L26.3281 14.5503C27.8645 11.8466 29.7082 10.1463 36.1889 9.53308C43.4797 8.83625 46.9436 10.0627 47.1112 9.95118C45.3513 8.75263 37.1107 8.64113 33.2 9.36584Z" fill="#FF671D"/>
<path d="M11.9697 26.5355C12.1932 26.2567 12.3608 25.9501 12.4166 25.6435C12.4725 25.3369 12.4446 25.0303 12.3328 24.7237C12.1932 24.4171 11.9697 24.1105 11.7183 23.8039C11.6903 23.7481 11.6345 23.7203 11.5786 23.6924C9.76288 26.8421 7.10914 29.4343 6.77393 29.7409C6.80186 29.7409 6.80186 29.713 6.82979 29.713C7.22087 29.5458 7.61195 29.3785 8.00303 29.1834C8.75725 28.8211 9.48354 28.4308 10.1819 28.0127C10.8803 27.5946 11.5227 27.0929 11.9697 26.5355Z" fill="#FF671D"/>
<path d="M0.628906 0C0.684775 0.0278732 0.768577 0.0557465 0.85238 0.0836197C0.768577 0.0557465 0.712709 0.0278732 0.628906 0C3.84134 2.17411 6.18781 5.88126 7.02584 10.3131C8.50635 10.8427 10.3779 11.651 12.3333 12.9611C12.5568 13.0726 12.7523 13.184 12.9479 13.3234C13.7021 13.7973 14.4284 14.299 15.1268 14.8286C15.8251 15.386 16.4955 15.9714 17.1101 16.6403C17.7246 17.3093 18.3113 18.0061 18.7861 18.8144C19.2331 19.5391 19.5683 20.3753 19.7638 21.2394C19.9035 21.769 19.9314 22.2707 19.8756 22.8003C19.8476 23.3578 19.708 23.9152 19.5124 24.417C19.1493 25.3368 18.5347 26.0894 17.8922 26.7304C17.0263 27.5666 16.0486 28.2077 15.015 28.7652C15.2944 28.6816 15.6016 28.5701 15.9089 28.4865C15.5737 28.598 15.2664 28.7094 14.9591 28.7931C14.9312 28.8209 14.8753 28.8488 14.8474 28.8488C20.8253 27.2043 24.9596 24.0267 25.7417 19.8179C27.2502 11.7625 16.0206 2.92669 0.628906 0ZM18.3392 27.3715C18.3113 27.3715 18.3113 27.3994 18.2833 27.3994C18.3113 27.3994 18.3113 27.3994 18.3392 27.3715Z" fill="#FF671D"/>
<path d="M18.3111 23.0231C18.7301 19.4553 13.7299 15.9433 12.1935 14.8841C10.4057 13.6298 8.67378 12.8493 7.27707 12.3755C7.305 12.8215 7.33294 13.2674 7.33294 13.7134C7.33294 15.3858 7.10946 17.0024 6.71838 18.5076C11.3834 20.8768 14.6796 23.5527 14.2606 25.6989C13.7578 28.3469 8.89725 29.7126 8.89725 29.7405C8.92519 29.7963 17.7803 27.5385 18.3111 23.0231Z" fill="#FF671D"/>
<path d="M39.1776 25.9215H32.0264L30.7694 29.0433H28.814L34.4846 14.9673H36.6635L42.362 29.0433H40.4067L39.1776 25.9215ZM32.5292 24.3606H38.6468L35.602 16.5282L32.5292 24.3606Z" fill="#4A4F54"/>
<path d="M50.7147 27.5102C49.9605 28.5416 48.7035 29.2941 47.2509 29.2941C44.5692 29.2941 42.6976 27.2594 42.6976 23.9425C42.6976 20.6813 44.5692 18.5908 47.2509 18.5908C48.6197 18.5908 49.8767 19.2598 50.7147 20.3747V14.9673H52.307V29.0433H50.7147V27.5102ZM50.7147 21.6569C50.1281 20.7649 48.927 20.0123 47.642 20.0123C45.5749 20.0123 44.3737 21.7126 44.3737 23.9703C44.3737 26.2281 45.6028 27.9005 47.642 27.9005C48.927 27.9005 50.1281 27.1758 50.7147 26.2838V21.6569Z" fill="#4A4F54"/>
<path d="M53.5077 18.8423H55.2117L58.6196 27.2043L61.9997 18.8423H63.7316L59.4856 29.0439H57.7537L53.5077 18.8423Z" fill="#4A4F54"/>
<path d="M70.9671 27.8736C70.1291 28.7934 68.9558 29.2951 67.5871 29.2951C65.8551 29.2951 64.0115 28.1244 64.0115 25.9225C64.0115 23.6369 65.8551 22.5498 67.5871 22.5498C68.9838 22.5498 70.157 22.9958 70.9671 23.9435V22.1038C70.9671 20.738 69.8777 19.9576 68.3971 19.9576C67.168 19.9576 66.1903 20.4036 65.2685 21.3791L64.5422 20.2921C65.6317 19.1493 66.9446 18.5918 68.6206 18.5918C70.7715 18.5918 72.5873 19.5674 72.5873 22.0202V29.0443H70.995L70.9671 27.8736ZM70.9671 24.9748C70.3525 24.1386 69.2631 23.6926 68.1457 23.6926C66.6652 23.6926 65.6317 24.6124 65.6317 25.9225C65.6317 27.2046 66.6652 28.1244 68.1457 28.1244C69.2631 28.1244 70.3525 27.7064 70.9671 26.8423V24.9748Z" fill="#4A4F54"/>
<path d="M80.9113 22.3547C80.9113 20.5708 79.9895 19.9855 78.6207 19.9855C77.3637 19.9855 76.1905 20.738 75.6038 21.5742V29.0164H74.0116V18.8427H75.6038V20.3199C76.3301 19.4837 77.7268 18.5918 79.2353 18.5918C81.3583 18.5918 82.5036 19.6789 82.5036 21.8808V29.0443H80.9113V22.3547Z" fill="#4A4F54"/>
<path d="M88.9281 18.5918C90.7997 18.5918 91.8891 19.3444 92.6713 20.3757L91.6098 21.3512C90.9394 20.4314 90.0734 20.0133 89.0119 20.0133C86.8331 20.0133 85.4922 21.6857 85.4922 23.9435C85.4922 26.2012 86.861 27.9015 89.0119 27.9015C90.0734 27.9015 90.9394 27.4834 91.6098 26.5635L92.6713 27.5391C91.8891 28.5425 90.7997 29.323 88.9281 29.323C85.8833 29.323 83.8162 27.0095 83.8162 23.9713C83.8162 20.9053 85.8833 18.5918 88.9281 18.5918Z" fill="#4A4F54"/>
<path d="M98.0628 18.5918C101.163 18.5918 102.979 20.9889 102.979 24.055V24.4452H94.7106C94.8503 26.3684 96.1912 27.9851 98.398 27.9851C99.5712 27.9851 100.744 27.5112 101.555 26.7029L102.309 27.7342C101.303 28.7377 99.9064 29.2951 98.2583 29.2951C95.2414 29.2951 93.0625 27.121 93.0625 23.9435C93.0346 20.961 95.1297 18.5918 98.0628 18.5918ZM94.7106 23.3024H101.415C101.387 21.7972 100.381 19.9018 98.0628 19.9018C95.8559 19.9018 94.7665 21.7415 94.7106 23.3024Z" fill="#4A4F54"/>
<path d="M112.086 27.5102C111.331 28.5416 110.074 29.2941 108.622 29.2941C105.968 29.2941 104.068 27.2594 104.068 23.9425C104.068 20.6813 105.94 18.5908 108.622 18.5908C109.991 18.5908 111.248 19.2598 112.086 20.3747V14.9673H113.678V29.0433H112.086V27.5102ZM112.086 21.6569C111.527 20.7649 110.298 20.0123 109.013 20.0123C106.946 20.0123 105.745 21.7126 105.745 23.9703C105.745 26.2281 106.974 27.8726 109.013 27.8726C110.27 27.8726 111.499 27.1479 112.086 26.2559V21.6569Z" fill="#4A4F54"/>
<path d="M122.589 29.0437L119.88 20.2357L118.679 29.0437H115.187L117.114 15.0234H121.332L124.265 24.5003L127.031 15.0234H131.277L133.204 29.0437H129.685L128.456 20.2357L125.746 29.0437C125.718 29.0437 122.589 29.0437 122.589 29.0437Z" fill="#4A4F54"/>
<path d="M134.461 15.1353C135.495 14.9681 137.45 14.7729 139.182 14.7729C143.875 14.7729 147.059 17.17 147.059 21.8806C147.059 27.0093 143.735 29.2113 139.098 29.2113C137.422 29.2113 135.578 29.1277 134.489 28.8768L134.461 15.1353ZM137.981 26.0895C138.4 26.1452 138.986 26.1452 139.489 26.1452C141.836 26.1452 143.428 24.8073 143.428 21.8806C143.428 19.1769 141.64 18.0062 139.433 18.0062C138.986 18.0062 138.428 18.0341 137.981 18.062V26.0895Z" fill="#4A4F54"/>
</g>
<defs>
<clipPath id="clip0_1_4576">
<rect width="146.403" height="29.7686" fill="white" transform="translate(0.628662)"/>
</clipPath>
</defs>
</svg>
