<svg width="14" height="13" viewBox="0 0 14 13" fill="none" xmlns="http://www.w3.org/2000/svg">
<path d="M13.9983 5.17379C13.9976 5.34186 13.9443 5.50548 13.8458 5.64169C13.7474 5.77791 13.6088 5.87987 13.4494 5.93328L12.0358 6.3995C11.592 6.54791 11.1889 6.79785 10.8586 7.12943C10.5284 7.46101 10.28 7.86507 10.1334 8.3095L9.64463 9.71568C9.5885 9.87259 9.48628 10.0089 9.35138 10.1067C9.24914 10.1803 9.13089 10.2287 9.00635 10.2478C8.88181 10.2669 8.75451 10.2562 8.6349 10.2166C8.5153 10.1769 8.40679 10.1095 8.31828 10.0198C8.22977 9.93015 8.16378 9.82076 8.12573 9.70064L7.65201 8.28694C7.49924 7.84118 7.24132 7.4388 6.90008 7.11387C6.57011 6.77517 6.16598 6.51774 5.71954 6.3619L4.30591 5.88816C4.14583 5.83777 4.00598 5.73768 3.90664 5.60241C3.80918 5.46507 3.75684 5.30083 3.75684 5.13243C3.75684 4.96403 3.80918 4.79979 3.90664 4.66245C4.00657 4.52321 4.14909 4.42027 4.31268 4.36918L5.71879 3.89544C6.17135 3.74324 6.58117 3.48548 6.91436 3.14347C7.25273 2.81035 7.51065 2.40353 7.6663 1.95536L8.13249 0.564217C8.17658 0.405275 8.27169 0.265237 8.40319 0.165674C8.53548 0.0595253 8.69978 0.0012244 8.86939 0.000240525C9.03738 -0.00381089 9.20261 0.0434023 9.34311 0.135595C9.48597 0.225236 9.59455 0.360306 9.6514 0.519099L10.1251 1.95536C10.2808 2.40353 10.5387 2.81035 10.877 3.14347C11.2081 3.48447 11.6152 3.74217 12.0651 3.89544L13.4712 4.39174C13.6295 4.44126 13.767 4.54172 13.8622 4.67749C13.96 4.82337 14.0088 4.99708 13.9983 5.17379Z" fill="#478CD1"/>
<path d="M5.53763 9.7975C5.53724 9.88837 5.50841 9.97685 5.45518 10.0505C5.40195 10.1242 5.32699 10.1793 5.24083 10.2082L4.47647 10.4602C4.2365 10.5405 4.01855 10.6756 3.83998 10.8549C3.66141 11.0342 3.52714 11.2527 3.44784 11.493L3.18357 12.2533C3.15321 12.3382 3.09795 12.4119 3.025 12.4648C2.96972 12.5046 2.90578 12.5307 2.83844 12.541C2.7711 12.5514 2.70227 12.5456 2.6376 12.5242C2.57293 12.5027 2.51426 12.4663 2.4664 12.4178C2.41854 12.3693 2.38286 12.3101 2.36229 12.2452L2.10614 11.4808C2.02354 11.2398 1.88408 11.0222 1.69957 10.8465C1.52115 10.6634 1.30264 10.5242 1.06125 10.4399L0.296888 10.1838C0.210334 10.1565 0.134712 10.1024 0.0809975 10.0293C0.0283053 9.955 0 9.86619 0 9.77514C0 9.68408 0.0283053 9.59527 0.0809975 9.52101C0.135032 9.44573 0.212094 9.39007 0.300547 9.36244L1.06084 9.10629C1.30554 9.02399 1.52714 8.88462 1.70729 8.69969C1.89025 8.51957 2.02971 8.29961 2.11387 8.05728L2.36594 7.30508C2.38978 7.21913 2.44121 7.14342 2.51231 7.08958C2.58384 7.03219 2.67268 7.00066 2.76439 7.00013C2.85522 6.99794 2.94457 7.02347 3.02053 7.07332C3.09778 7.12179 3.15649 7.19482 3.18722 7.28068L3.44337 8.05728C3.52753 8.29961 3.66698 8.51957 3.84994 8.69969C4.02894 8.88408 4.24909 9.02341 4.49233 9.10629L5.25262 9.37464C5.3382 9.40142 5.41253 9.45574 5.46404 9.52915C5.5169 9.60803 5.54332 9.70195 5.53763 9.7975Z" fill="#478CD1"/>
</svg>
