<svg width="131" height="28" viewBox="0 0 131 28" fill="none" xmlns="http://www.w3.org/2000/svg">
<g clip-path="url(#clip0_58_6339)">
<path d="M11.3484 6.84131C10.3589 6.84131 9.4718 7.6201 9.40356 8.63592C9.4718 9.6856 10.3248 10.4983 11.4166 10.4983C12.406 10.4305 13.2249 9.65174 13.2931 8.63592C13.2249 7.6201 12.3378 6.84131 11.3484 6.84131Z" fill="#002950"/>
<path d="M5.68472 16.8645C6.29886 16.5259 6.46946 15.6117 6.09415 14.799C5.68472 14.0203 4.83174 13.4785 4.21759 13.7494C3.60345 14.088 3.43285 15.0022 3.8764 15.8149C4.28583 16.6952 5.10469 17.1354 5.68472 16.8645Z" fill="#002950"/>
<path d="M7.83393 14.0876C8.89162 14.0199 9.71048 13.1734 9.64224 12.1576C9.71048 11.1079 8.8575 10.2275 7.83393 10.2275C6.77623 10.2953 5.95738 11.1418 6.02561 12.1576C5.95738 13.2411 6.74212 14.0876 7.83393 14.0876Z" fill="#002950"/>
<path d="M2.54592 16.2209C2.20473 16.4241 2.3412 17.1352 2.75063 17.8124C3.2283 18.4896 3.80832 18.7943 4.14951 18.5912C4.49071 18.388 4.35423 17.6769 3.9448 16.9997C3.50125 16.3564 2.88711 16.0178 2.54592 16.2209Z" fill="#002950"/>
<path d="M16.8755 16.8642C17.5579 17.2028 18.3427 16.7287 18.7521 15.8822C19.1615 15.0357 19.025 14.0876 18.3427 13.8167C17.7285 13.4781 16.8755 13.9522 16.4661 14.7987C16.0908 15.6113 16.2955 16.5594 16.8755 16.8642Z" fill="#002950"/>
<path d="M14.8286 14.0875C15.8862 14.0198 16.7051 13.1733 16.6369 12.1575C16.7051 11.1755 15.9545 10.2951 14.965 10.2274C13.9756 10.1597 13.0885 10.9046 13.0202 11.8866C13.0202 11.9543 13.0202 12.0898 13.0202 12.1575C12.952 13.241 13.7367 14.0875 14.8286 14.0875Z" fill="#002950"/>
<path d="M19.8101 17.8124C20.2878 17.1352 20.356 16.4918 20.0148 16.2209C19.6736 16.0178 19.0936 16.3564 18.616 16.9997C18.1383 17.6769 18.0701 18.3203 18.4112 18.5912C18.7524 18.7943 19.3666 18.4557 19.8101 17.8124Z" fill="#002950"/>
<path d="M21.0725 17.2705C20.936 17.2027 21.0042 16.7287 21.2089 16.1531C21.4137 15.6113 21.7549 15.1711 21.8913 15.2388C22.1984 15.4759 21.2772 17.4059 21.0725 17.2705Z" fill="#73C92D"/>
<path d="M1.41969 6.43506C1.14673 6.90911 0.873781 7.34929 0.737305 7.89106C0.873781 7.6879 1.01026 7.41702 1.14673 7.21385C1.28321 6.97683 1.35145 6.70594 1.41969 6.43506Z" fill="#73C92D"/>
<path d="M21.1406 6.43506C21.4136 6.90911 21.6865 7.34929 21.823 7.89106C21.6865 7.6879 21.5501 7.41702 21.4136 7.21385C21.3453 6.97683 21.2089 6.70594 21.1406 6.43506Z" fill="#73C92D"/>
<path d="M8.20954 1.2207C7.97071 1.35614 7.69776 1.35614 7.4248 1.35614C7.4248 1.28842 8.89193 0.814369 9.0284 0.88209C8.75545 1.08525 8.55074 1.15297 8.20954 1.2207Z" fill="#73C92D"/>
<path d="M3.02331 4.30161C3.09154 4.36933 2.88683 4.77565 2.54564 5.14812C2.20445 5.52059 1.86326 5.85919 1.86326 5.82533C1.7609 5.68989 2.88683 4.23388 3.02331 4.30161Z" fill="#73C92D"/>
<path d="M3.87622 8.53452C3.39855 9.31331 3.60327 10.2614 4.21741 10.6C4.83155 10.9386 5.68453 10.4646 6.09396 9.61805C6.50339 8.77154 6.36691 7.82344 5.68453 7.55256C5.10451 7.21395 4.28565 7.688 3.87622 8.53452Z" fill="#73C92D"/>
<path d="M1.21519 11.0734C1.48815 11.1412 1.89758 10.5994 1.99993 9.88832C2.17053 9.14338 2.10229 8.53389 1.82934 8.46617C1.55638 8.39845 1.14696 8.94022 1.0446 9.65129C0.839883 10.3962 0.942241 11.0734 1.21519 11.0734Z" fill="#73C92D"/>
<path d="M11.3484 17.4062C12.3378 17.3384 13.1567 16.4919 13.0884 15.4761C13.0202 14.4603 12.1672 13.7154 11.1436 13.7831C10.2224 13.8508 9.40356 14.6296 9.40356 15.5777C9.43768 16.6274 10.2907 17.4739 11.3484 17.4062Z" fill="#73C92D"/>
<path d="M2.03389 14.5614C1.82918 13.8504 1.48798 13.3086 1.18091 13.3763C0.907959 13.444 0.839721 14.0874 0.976197 14.7646C1.18091 15.4757 1.5221 16.0175 1.82918 15.9497C2.17037 15.882 2.2386 15.2387 2.03389 14.5614Z" fill="#73C92D"/>
<path d="M1.8291 12.1907C1.8291 13.0372 2.23853 13.7822 2.75032 13.7822C3.2621 13.7822 3.67153 13.0711 3.67153 12.1907C3.67153 11.3103 3.29622 10.667 2.75032 10.667C2.23853 10.667 1.8291 11.3781 1.8291 12.1907Z" fill="#73C92D"/>
<path d="M0.566777 11.1416C0.362062 11.1416 0.225586 11.6834 0.225586 12.259C0.225586 12.8685 0.362062 13.4441 0.566777 13.4441C0.771492 13.4441 0.907968 12.9024 0.907968 12.259C0.907968 11.5818 0.703254 11.1416 0.566777 11.1416Z" fill="#73C92D"/>
<path d="M6.67397 6.70594C7.01516 7.31543 7.93637 7.48473 8.78935 7.04454C9.64233 6.60436 10.0518 5.72398 9.71057 5.11449C9.36938 4.505 8.44816 4.3357 7.59518 4.77588C6.7422 5.21607 6.36689 6.09645 6.67397 6.70594Z" fill="#73C92D"/>
<path d="M5.68445 3.79358C5.00207 4.26763 4.695 4.84326 4.89971 5.18186C5.10443 5.52047 5.82093 5.38503 6.50331 4.91098C7.18569 4.43693 7.49276 3.8613 7.28805 3.5227C7.0151 3.25181 6.36683 3.31953 5.68445 3.79358Z" fill="#73C92D"/>
<path d="M2.81835 6.57036C2.34068 7.24758 2.27244 7.95865 2.61364 8.16181C2.95483 8.36498 3.53485 8.02637 4.01252 7.38302C4.42195 6.70581 4.49019 5.99473 4.21723 5.79157C3.87604 5.58841 3.29602 5.89315 2.81835 6.57036Z" fill="#73C92D"/>
<path d="M0.703083 9.21137C0.83956 9.27909 1.11251 8.87276 1.38547 8.29713C1.59018 7.68764 1.65842 7.24746 1.52194 7.17973C1.38547 7.11201 1.04427 7.51834 0.83956 8.09397C0.634845 8.6696 0.566607 9.14365 0.703083 9.21137Z" fill="#73C92D"/>
<path d="M9.60797 19.2003C9.94916 18.5908 9.53973 17.7443 8.68675 17.2702C7.83378 16.7962 6.87844 16.9993 6.57137 17.6088C6.23018 18.2183 6.63961 19.0648 7.49259 19.5389C8.34556 19.9791 9.3009 19.7759 9.60797 19.2003Z" fill="#73C92D"/>
<path d="M1.55617 17.2705C1.62441 17.2027 1.55617 16.7287 1.35146 16.1531C1.14674 15.6113 0.80555 15.1711 0.669074 15.2388C0.362002 15.4759 1.28322 17.4059 1.55617 17.2705Z" fill="#73C92D"/>
<path d="M2.95527 5.96037C3.36469 5.4186 3.56941 4.91069 3.43293 4.84297C3.29646 4.70753 2.81879 5.04613 2.51172 5.55404C2.10229 6.09581 1.89757 6.536 2.03405 6.67144C2.17053 6.77302 2.54584 6.50214 2.95527 5.96037Z" fill="#73C92D"/>
<path d="M9.74463 3.65838C9.74463 4.20015 10.427 4.57261 11.28 4.57261C12.2012 4.50489 12.8836 4.09856 12.8836 3.65838C12.8836 3.21819 12.2012 2.74414 11.3482 2.74414C10.4952 2.74414 9.74463 3.11661 9.74463 3.65838Z" fill="#73C92D"/>
<path d="M6.36708 19.4034C5.68469 18.9294 5.03643 18.8617 4.83172 19.1326C4.627 19.4712 4.96819 20.0468 5.61646 20.5208C6.29884 20.9949 6.9471 21.0626 7.22006 20.7917C7.35653 20.4531 7.01534 19.8436 6.36708 19.4034Z" fill="#73C92D"/>
<path d="M1.96569 17.6087C1.82921 17.7442 2.03393 18.2182 2.44336 18.7261C2.85279 19.2341 3.2281 19.5727 3.36457 19.4372C3.50105 19.3695 3.29634 18.8277 2.88691 18.3198C2.54572 17.8796 2.1704 17.541 1.96569 17.6087Z" fill="#73C92D"/>
<path d="M12.8837 20.6564C12.8837 20.1147 12.1672 19.7422 11.3483 19.7422C10.5295 19.7422 9.81299 20.1485 9.81299 20.6564C9.81299 21.1982 10.4954 21.5707 11.3483 21.5707C12.2013 21.5707 12.8837 21.1643 12.8837 20.6564Z" fill="#73C92D"/>
<path d="M8.75535 1.93149C8.03885 2.13465 7.49295 2.47326 7.56118 2.71028C7.62942 2.98117 8.27769 3.04889 8.96007 2.91345C9.67657 2.71028 10.2225 2.37168 10.1542 2.13465C10.086 1.86377 9.47186 1.79605 8.75535 1.93149Z" fill="#73C92D"/>
<path d="M4.69503 3.38791C4.14912 3.72651 3.84205 4.1667 3.91029 4.30214C4.04677 4.43758 4.52443 4.23442 5.03622 3.82809C5.58213 3.42177 5.8892 3.0493 5.75272 2.91386C5.68448 2.77841 5.1727 2.98158 4.69503 3.38791Z" fill="#73C92D"/>
<path d="M8.89171 21.3005C8.17521 21.0973 7.56106 21.2327 7.49283 21.5036C7.42459 21.7745 7.97049 22.1808 8.68699 22.2824C9.4035 22.4856 10.0176 22.3501 10.0859 22.0793C10.1541 21.8422 9.53997 21.5036 8.89171 21.3005Z" fill="#73C92D"/>
<path d="M5.75286 21.3671C5.88933 21.2316 5.54814 20.8253 5.03636 20.4528C4.49045 20.0465 4.0469 19.8434 3.91042 19.9788C3.77395 20.1142 3.97866 20.3851 4.31985 20.656C4.59281 20.8592 4.86576 21.0623 5.10459 21.2655C5.41167 21.4348 5.68462 21.5025 5.75286 21.3671Z" fill="#73C92D"/>
<path d="M10.1541 1.45726C10.1541 1.66042 10.7 1.79586 11.28 1.79586C11.86 1.79586 12.4059 1.66042 12.4059 1.45726C12.4059 1.25409 11.86 1.11865 11.28 1.11865C10.7 1.15251 10.1541 1.35568 10.1541 1.45726Z" fill="#73C92D"/>
<path d="M6.23047 2.47345C6.29871 2.60889 6.77637 2.54117 7.3564 2.33801C7.97054 2.13485 8.34585 1.79624 8.27762 1.6608C8.20938 1.52535 7.73171 1.59308 7.15168 1.79624C6.60578 1.9994 6.23047 2.33801 6.23047 2.47345Z" fill="#73C92D"/>
<path d="M4.35412 3.45541C4.76355 3.1168 5.07062 2.77819 5.0365 2.74433C4.96826 2.67661 4.55883 2.9475 4.18352 3.2861C3.80821 3.62471 3.46702 3.96332 3.50114 3.99718C3.56938 3.99718 3.87645 3.79401 4.35412 3.45541Z" fill="#73C92D"/>
<path d="M12.4743 22.7556C12.4743 22.5524 11.9284 22.417 11.3483 22.417C10.666 22.417 10.2224 22.5524 10.2224 22.7556C10.2224 22.9588 10.7683 23.0942 11.3483 23.0942H11.5531C12.099 23.0265 12.4743 22.9588 12.4743 22.7556Z" fill="#73C92D"/>
<path d="M22.1643 14.9003C22.1643 15.0357 22.642 13.038 22.5055 13.1057C22.369 13.3766 22.2325 13.7152 22.2325 14.0199C22.1643 14.2908 22.1643 14.6294 22.1643 14.9003Z" fill="#73C92D"/>
<path d="M9.47176 1.35619C10.0177 1.28847 10.4612 1.15303 10.393 1.01759C10.393 0.949867 9.9153 0.949867 9.40352 1.01759C8.89173 1.08531 8.41406 1.22075 8.41406 1.35619C8.4823 1.39005 8.95997 1.39005 9.47176 1.35619Z" fill="#73C92D"/>
<path d="M6.29858 2.13471C6.77625 1.93155 7.08332 1.66066 7.08332 1.59294C7.08332 1.52522 6.67389 1.66066 6.23034 1.93155C5.68444 2.13471 5.34325 2.4056 5.41148 2.4056C5.41148 2.47332 5.82091 2.33787 6.29858 2.13471Z" fill="#73C92D"/>
<path d="M10.4272 0.746432C10.4272 0.814153 10.8367 0.881875 11.2802 0.881875C11.7579 0.881875 12.1332 0.814153 12.1332 0.746432C12.1332 0.678711 12.0308 0.678711 11.6897 0.678711H11.2802H10.939C10.7002 0.678711 10.4272 0.746432 10.4272 0.746432Z" fill="#73C92D"/>
<path d="M16.8756 7.55256C16.2615 7.89116 16.0909 8.8054 16.4662 9.61805C16.8756 10.4646 17.7286 10.9386 18.3428 10.6C18.9569 10.2614 19.1275 9.34717 18.7522 8.53452C18.3428 7.688 17.4898 7.21395 16.8756 7.55256Z" fill="#73C92D"/>
<path d="M20.7994 8.46617C20.5264 8.53389 20.3899 9.14338 20.5947 9.85446C20.7311 10.5655 21.1406 11.1073 21.3794 11.0396C21.6524 10.9719 21.7888 10.3624 21.5841 9.65129C21.4135 8.94022 21.0723 8.39845 20.7994 8.46617Z" fill="#73C92D"/>
<path d="M21.4132 13.3763C21.1403 13.3086 20.7308 13.8504 20.5602 14.5614C20.3555 15.2725 20.492 15.882 20.765 15.9497C21.0379 16.0175 21.4473 15.4757 21.6179 14.7646C21.7544 14.0874 21.6862 13.444 21.4132 13.3763Z" fill="#73C92D"/>
<path d="M19.878 13.7822C20.4239 13.7822 20.7992 13.0711 20.7992 12.1907C20.7992 11.3103 20.3898 10.667 19.878 10.667C19.3321 10.667 18.9568 11.3781 18.9568 12.1907C18.9568 13.0034 19.4003 13.7822 19.878 13.7822Z" fill="#73C92D"/>
<path d="M22.0958 11.1416C21.8911 11.1416 21.7546 11.6834 21.7546 12.259C21.7546 12.9362 21.8911 13.4441 22.0958 13.4441C22.3005 13.4441 22.437 12.9024 22.437 12.3267C22.4029 11.6495 22.1982 11.1416 22.0958 11.1416Z" fill="#73C92D"/>
<path d="M12.8836 5.11433C12.5424 5.72382 12.9519 6.57033 13.8048 7.04438C14.6578 7.51843 15.6132 7.31526 15.9202 6.70577C16.2273 6.09628 15.852 5.24977 14.999 4.77572C14.146 4.36939 13.2248 4.50483 12.8836 5.11433Z" fill="#73C92D"/>
<path d="M15.3403 3.5227C15.1355 3.8613 15.4767 4.43693 16.125 4.91098C16.7733 5.38503 17.4556 5.45275 17.7286 5.18186C17.9333 4.84326 17.5921 4.26763 16.9439 3.79358C16.2956 3.31953 15.545 3.25181 15.3403 3.5227Z" fill="#73C92D"/>
<path d="M20.0147 8.16181C20.3559 7.95865 20.2195 7.24758 19.81 6.57036C19.3324 5.89315 18.7523 5.58841 18.4794 5.79157C18.07 5.99473 18.2064 6.70581 18.6159 7.38302C19.0935 8.02637 19.6736 8.36498 20.0147 8.16181Z" fill="#73C92D"/>
<path d="M21.9594 9.2109C22.0959 9.14318 22.0277 8.66913 21.823 8.0935C21.6183 7.55173 21.2771 7.11154 21.1406 7.17926C21.0041 7.24698 21.0723 7.72103 21.2771 8.29666C21.4818 8.80457 21.823 9.27862 21.9594 9.2109Z" fill="#73C92D"/>
<path d="M16.0228 17.6091C15.6816 16.9996 14.7604 16.8303 13.9074 17.2705C13.0544 17.7446 12.645 18.5911 12.9862 19.2006C13.3274 19.8101 14.2486 19.9794 15.1015 19.5392C15.9545 19.0651 16.364 18.2186 16.0228 17.6091Z" fill="#73C92D"/>
<path d="M20.6285 6.70524C20.765 6.56979 20.5603 6.09575 20.1508 5.58784C19.7414 5.04607 19.3661 4.74132 19.2296 4.87676C19.0931 5.01221 19.2978 5.48626 19.7073 5.99416C20.0826 6.50207 20.492 6.77296 20.6285 6.70524Z" fill="#73C92D"/>
<path d="M16.2274 19.403C15.545 19.8771 15.238 20.4527 15.4427 20.7913C15.6474 21.1299 16.3639 20.9945 16.978 20.5204C17.6604 20.0464 17.9675 19.4707 17.7628 19.1321C17.6263 18.8613 16.8757 18.9967 16.2274 19.403Z" fill="#73C92D"/>
<path d="M19.6733 18.3875C19.2639 18.9293 19.0592 19.3695 19.1957 19.5049C19.3321 19.6404 19.8098 19.3018 20.1169 18.7939C20.5263 18.2521 20.731 17.8119 20.5946 17.6765C20.4922 17.541 20.0828 17.8796 19.6733 18.3875Z" fill="#73C92D"/>
<path d="M19.537 4.30161C19.4688 4.36933 19.6735 4.70793 20.0147 5.14812C20.3559 5.55445 20.6971 5.85919 20.6971 5.82533C20.7994 5.68989 19.7417 4.23388 19.537 4.30161Z" fill="#73C92D"/>
<path d="M13.805 1.93132C13.0885 1.72815 12.4744 1.86359 12.4062 2.13448C12.3379 2.40536 12.8838 2.81169 13.6003 2.91327C14.3168 3.11644 14.931 2.98099 14.9992 2.71011C15.0674 2.43922 14.5557 2.13448 13.805 1.93132Z" fill="#73C92D"/>
<path d="M17.9335 3.38791C17.3876 2.98158 16.944 2.77841 16.8076 2.91386C16.6711 3.0493 17.0123 3.45563 17.5241 3.82809C18.07 4.23442 18.5135 4.43758 18.65 4.30214C18.8206 4.20056 18.4794 3.79423 17.9335 3.38791Z" fill="#73C92D"/>
<path d="M13.7366 21.3005C13.0201 21.5036 12.4741 21.8422 12.5424 22.0792C12.6106 22.3501 13.2248 22.4179 13.9413 22.2824C14.6237 22.0792 15.2037 21.7406 15.1354 21.5036C15.1013 21.2327 14.4189 21.0973 13.7366 21.3005Z" fill="#73C92D"/>
<path d="M18.7524 19.9788C18.6159 19.8434 18.1383 20.0465 17.6265 20.4528C17.0806 20.8592 16.7735 21.2316 16.91 21.3671C16.9782 21.4348 17.2512 21.3671 17.5241 21.2316C17.8653 21.0285 18.07 20.8253 18.3089 20.6222C18.6159 20.3851 18.8206 20.1142 18.7524 19.9788Z" fill="#73C92D"/>
<path d="M15.2037 2.27014C15.7496 2.4733 16.2614 2.54102 16.3296 2.40558C16.3979 2.27014 15.9202 1.99925 15.4084 1.72837C14.7943 1.5252 14.3507 1.45748 14.2825 1.59293C14.2825 1.72837 14.6919 2.06697 15.2037 2.27014Z" fill="#73C92D"/>
<path d="M18.2746 3.45501C18.684 3.79361 19.0593 3.99677 19.1276 3.92905C19.1958 3.86133 18.8546 3.52273 18.4452 3.21798C18.0358 2.87937 17.6604 2.67621 17.5922 2.74393C17.5581 2.77779 17.8993 3.1164 18.2746 3.45501Z" fill="#73C92D"/>
<path d="M15.3403 21.9769C14.7944 22.1801 14.3508 22.5187 14.4191 22.6541L16.5003 21.8076C16.5003 21.6383 15.9544 21.7061 15.3403 21.9769Z" fill="#73C92D"/>
<path d="M15.3403 21.9769C14.7944 22.1801 14.3508 22.5187 14.4191 22.6541C14.4873 22.7896 16.5003 21.9431 16.5003 21.8076C16.5344 21.6383 15.9544 21.7061 15.3403 21.9769Z" fill="#73C92D"/>
<path d="M13.0886 1.35619C13.6345 1.42391 14.078 1.42391 14.078 1.35619C14.078 1.28847 13.6686 1.15303 13.0886 1.01759C12.5427 0.949867 12.0991 0.949867 12.0991 1.01759C12.1674 1.08531 12.5427 1.22075 13.0886 1.35619Z" fill="#73C92D"/>
<path d="M16.3638 2.13471C16.8415 2.33787 17.2168 2.47332 17.2168 2.47332C17.2168 2.4056 16.8756 2.20243 16.4321 1.93155C15.9544 1.66066 15.5791 1.52522 15.5791 1.59294C15.5791 1.66066 15.8862 1.86383 16.3638 2.13471Z" fill="#73C92D"/>
<path d="M14.3508 1.2207C14.6238 1.35614 14.8967 1.35614 15.1356 1.35614C15.1356 1.28842 13.6685 0.814369 13.532 0.88209C13.8049 1.08525 14.0779 1.15297 14.3508 1.2207Z" fill="#73C92D"/>
<path d="M22.1982 10.3967C22.1299 9.85496 22.1299 9.41477 22.1982 9.41477C22.4029 9.34705 22.6076 11.3448 22.5393 11.4125C22.4711 11.3787 22.2664 10.9385 22.1982 10.3967Z" fill="#73C92D"/>
<path d="M7.21986 21.9769C7.76577 22.1801 8.20932 22.5187 8.14108 22.6542C8.07284 22.7896 6.05981 21.9431 6.05981 21.8076C6.09393 21.6383 6.67396 21.7738 7.21986 21.9769Z" fill="#73C92D"/>
<path d="M13.4296 22.8233C13.7025 22.7556 13.9755 22.6879 14.2826 22.7556C14.2826 22.8233 12.7472 23.1619 12.679 23.0942C12.8837 22.891 13.1566 22.8233 13.4296 22.8233Z" fill="#73C92D"/>
<path d="M9.30116 22.8233C9.02821 22.7556 8.75525 22.6879 8.41406 22.7556C8.41406 22.8233 9.94942 23.1619 10.0177 23.0942C9.81295 22.891 9.53999 22.8233 9.30116 22.8233Z" fill="#73C92D"/>
<path d="M11.3484 6.84131C10.3589 6.84131 9.4718 7.6201 9.40356 8.63592C9.4718 9.6856 10.3248 10.4983 11.4166 10.4983C12.406 10.4305 13.2249 9.65174 13.2931 8.63592C13.2249 7.6201 12.3378 6.84131 11.3484 6.84131Z" fill="#002950"/>
<path d="M5.68472 16.8645C6.29886 16.5259 6.46946 15.6117 6.09415 14.799C5.68472 14.0203 4.83174 13.4785 4.21759 13.7494C3.60345 14.088 3.43285 15.0022 3.8764 15.8149C4.28583 16.6952 5.10469 17.1354 5.68472 16.8645Z" fill="#002950"/>
<path d="M7.83393 14.0876C8.89162 14.0199 9.71048 13.1734 9.64224 12.1576C9.71048 11.1079 8.8575 10.2275 7.83393 10.2275C6.77623 10.2953 5.95738 11.1418 6.02561 12.1576C5.95738 13.2411 6.74212 14.0876 7.83393 14.0876Z" fill="#002950"/>
<path d="M2.54592 16.2209C2.20473 16.4241 2.3412 17.1352 2.75063 17.8124C3.2283 18.4896 3.80832 18.7943 4.14951 18.5912C4.49071 18.388 4.35423 17.6769 3.9448 16.9997C3.50125 16.3564 2.88711 16.0178 2.54592 16.2209Z" fill="#002950"/>
<path d="M16.8755 16.8642C17.5579 17.2028 18.3427 16.7287 18.7521 15.8822C19.1615 15.0357 19.025 14.0876 18.3427 13.8167C17.7285 13.4781 16.8755 13.9522 16.4661 14.7987C16.0908 15.6113 16.2955 16.5594 16.8755 16.8642Z" fill="#002950"/>
<path d="M14.8286 14.0875C15.8862 14.0198 16.7051 13.1733 16.6369 12.1575C16.7051 11.1755 15.9545 10.2951 14.965 10.2274C13.9756 10.1597 13.0885 10.9046 13.0202 11.8866C13.0202 11.9543 13.0202 12.0898 13.0202 12.1575C12.952 13.241 13.7367 14.0875 14.8286 14.0875Z" fill="#002950"/>
<path d="M19.8101 17.8124C20.2878 17.1352 20.356 16.4918 20.0148 16.2209C19.6736 16.0178 19.0936 16.3564 18.616 16.9997C18.1383 17.6769 18.0701 18.3203 18.4112 18.5912C18.7524 18.7943 19.3666 18.4557 19.8101 17.8124Z" fill="#002950"/>
<path d="M21.0725 17.2705C20.936 17.2027 21.0042 16.7287 21.2089 16.1531C21.4137 15.6113 21.7549 15.1711 21.8913 15.2388C22.1984 15.4759 21.2772 17.4059 21.0725 17.2705Z" fill="#73C92D"/>
<path d="M1.41969 6.43506C1.14673 6.90911 0.873781 7.34929 0.737305 7.89106C0.873781 7.6879 1.01026 7.41702 1.14673 7.21385C1.28321 6.97683 1.35145 6.70594 1.41969 6.43506Z" fill="#73C92D"/>
<path d="M21.1406 6.43506C21.4136 6.90911 21.6865 7.34929 21.823 7.89106C21.6865 7.6879 21.5501 7.41702 21.4136 7.21385C21.3453 6.97683 21.2089 6.70594 21.1406 6.43506Z" fill="#73C92D"/>
<path d="M8.20954 1.2207C7.97071 1.35614 7.69776 1.35614 7.4248 1.35614C7.4248 1.28842 8.89193 0.814369 9.0284 0.88209C8.75545 1.08525 8.55074 1.15297 8.20954 1.2207Z" fill="#73C92D"/>
<path d="M3.02331 4.30161C3.09154 4.36933 2.88683 4.77565 2.54564 5.14812C2.20445 5.52059 1.86326 5.85919 1.86326 5.82533C1.7609 5.68989 2.88683 4.23388 3.02331 4.30161Z" fill="#73C92D"/>
<path d="M3.87622 8.53452C3.39855 9.31331 3.60327 10.2614 4.21741 10.6C4.83155 10.9386 5.68453 10.4646 6.09396 9.61805C6.50339 8.77154 6.36691 7.82344 5.68453 7.55256C5.10451 7.21395 4.28565 7.688 3.87622 8.53452Z" fill="#73C92D"/>
<path d="M1.21519 11.0734C1.48815 11.1412 1.89758 10.5994 1.99993 9.88832C2.17053 9.14338 2.10229 8.53389 1.82934 8.46617C1.55638 8.39845 1.14696 8.94022 1.0446 9.65129C0.839883 10.3962 0.942241 11.0734 1.21519 11.0734Z" fill="#73C92D"/>
<path d="M11.3484 17.4062C12.3378 17.3384 13.1567 16.4919 13.0884 15.4761C13.0202 14.4603 12.1672 13.7154 11.1436 13.7831C10.2224 13.8508 9.40356 14.6296 9.40356 15.5777C9.43768 16.6274 10.2907 17.4739 11.3484 17.4062Z" fill="#73C92D"/>
<path d="M2.03389 14.5614C1.82918 13.8504 1.48798 13.3086 1.18091 13.3763C0.907959 13.444 0.839721 14.0874 0.976197 14.7646C1.18091 15.4757 1.5221 16.0175 1.82918 15.9497C2.17037 15.882 2.2386 15.2387 2.03389 14.5614Z" fill="#73C92D"/>
<path d="M1.8291 12.1907C1.8291 13.0372 2.23853 13.7822 2.75032 13.7822C3.2621 13.7822 3.67153 13.0711 3.67153 12.1907C3.67153 11.3103 3.29622 10.667 2.75032 10.667C2.23853 10.667 1.8291 11.3781 1.8291 12.1907Z" fill="#73C92D"/>
<path d="M0.566777 11.1416C0.362062 11.1416 0.225586 11.6834 0.225586 12.259C0.225586 12.8685 0.362062 13.4441 0.566777 13.4441C0.771492 13.4441 0.907968 12.9024 0.907968 12.259C0.907968 11.5818 0.703254 11.1416 0.566777 11.1416Z" fill="#73C92D"/>
<path d="M6.67397 6.70594C7.01516 7.31543 7.93637 7.48473 8.78935 7.04454C9.64233 6.60436 10.0518 5.72398 9.71057 5.11449C9.36938 4.505 8.44816 4.3357 7.59518 4.77588C6.7422 5.21607 6.36689 6.09645 6.67397 6.70594Z" fill="#73C92D"/>
<path d="M5.68445 3.79358C5.00207 4.26763 4.695 4.84326 4.89971 5.18186C5.10443 5.52047 5.82093 5.38503 6.50331 4.91098C7.18569 4.43693 7.49276 3.8613 7.28805 3.5227C7.0151 3.25181 6.36683 3.31953 5.68445 3.79358Z" fill="#73C92D"/>
<path d="M2.81835 6.57036C2.34068 7.24758 2.27244 7.95865 2.61364 8.16181C2.95483 8.36498 3.53485 8.02637 4.01252 7.38302C4.42195 6.70581 4.49019 5.99473 4.21723 5.79157C3.87604 5.58841 3.29602 5.89315 2.81835 6.57036Z" fill="#73C92D"/>
<path d="M0.703083 9.21137C0.83956 9.27909 1.11251 8.87276 1.38547 8.29713C1.59018 7.68764 1.65842 7.24746 1.52194 7.17973C1.38547 7.11201 1.04427 7.51834 0.83956 8.09397C0.634845 8.6696 0.566607 9.14365 0.703083 9.21137Z" fill="#73C92D"/>
<path d="M9.60797 19.2003C9.94916 18.5908 9.53973 17.7443 8.68675 17.2702C7.83378 16.7962 6.87844 16.9993 6.57137 17.6088C6.23018 18.2183 6.63961 19.0648 7.49259 19.5389C8.34556 19.9791 9.3009 19.7759 9.60797 19.2003Z" fill="#73C92D"/>
<path d="M1.55617 17.2705C1.62441 17.2027 1.55617 16.7287 1.35146 16.1531C1.14674 15.6113 0.80555 15.1711 0.669074 15.2388C0.362002 15.4759 1.28322 17.4059 1.55617 17.2705Z" fill="#73C92D"/>
<path d="M2.95527 5.96037C3.36469 5.4186 3.56941 4.91069 3.43293 4.84297C3.29646 4.70753 2.81879 5.04613 2.51172 5.55404C2.10229 6.09581 1.89757 6.536 2.03405 6.67144C2.17053 6.77302 2.54584 6.50214 2.95527 5.96037Z" fill="#73C92D"/>
<path d="M9.74463 3.65838C9.74463 4.20015 10.427 4.57261 11.28 4.57261C12.2012 4.50489 12.8836 4.09856 12.8836 3.65838C12.8836 3.21819 12.2012 2.74414 11.3482 2.74414C10.4952 2.74414 9.74463 3.11661 9.74463 3.65838Z" fill="#73C92D"/>
<path d="M6.36708 19.4034C5.68469 18.9294 5.03643 18.8617 4.83172 19.1326C4.627 19.4712 4.96819 20.0468 5.61646 20.5208C6.29884 20.9949 6.9471 21.0626 7.22006 20.7917C7.35653 20.4531 7.01534 19.8436 6.36708 19.4034Z" fill="#73C92D"/>
<path d="M1.96569 17.6087C1.82921 17.7442 2.03393 18.2182 2.44336 18.7261C2.85279 19.2341 3.2281 19.5727 3.36457 19.4372C3.50105 19.3695 3.29634 18.8277 2.88691 18.3198C2.54572 17.8796 2.1704 17.541 1.96569 17.6087Z" fill="#73C92D"/>
<path d="M12.8837 20.6564C12.8837 20.1147 12.1672 19.7422 11.3483 19.7422C10.5295 19.7422 9.81299 20.1485 9.81299 20.6564C9.81299 21.1982 10.4954 21.5707 11.3483 21.5707C12.2013 21.5707 12.8837 21.1643 12.8837 20.6564Z" fill="#73C92D"/>
<path d="M8.75535 1.93149C8.03885 2.13465 7.49295 2.47326 7.56118 2.71028C7.62942 2.98117 8.27769 3.04889 8.96007 2.91345C9.67657 2.71028 10.2225 2.37168 10.1542 2.13465C10.086 1.86377 9.47186 1.79605 8.75535 1.93149Z" fill="#73C92D"/>
<path d="M4.69503 3.38791C4.14912 3.72651 3.84205 4.1667 3.91029 4.30214C4.04677 4.43758 4.52443 4.23442 5.03622 3.82809C5.58213 3.42177 5.8892 3.0493 5.75272 2.91386C5.68448 2.77841 5.1727 2.98158 4.69503 3.38791Z" fill="#73C92D"/>
<path d="M8.89171 21.3005C8.17521 21.0973 7.56106 21.2327 7.49283 21.5036C7.42459 21.7745 7.97049 22.1808 8.68699 22.2824C9.4035 22.4856 10.0176 22.3501 10.0859 22.0793C10.1541 21.8422 9.53997 21.5036 8.89171 21.3005Z" fill="#73C92D"/>
<path d="M5.75286 21.3671C5.88933 21.2316 5.54814 20.8253 5.03636 20.4528C4.49045 20.0465 4.0469 19.8434 3.91042 19.9788C3.77395 20.1142 3.97866 20.3851 4.31985 20.656C4.59281 20.8592 4.86576 21.0623 5.10459 21.2655C5.41167 21.4348 5.68462 21.5025 5.75286 21.3671Z" fill="#73C92D"/>
<path d="M10.1541 1.45726C10.1541 1.66042 10.7 1.79586 11.28 1.79586C11.86 1.79586 12.4059 1.66042 12.4059 1.45726C12.4059 1.25409 11.86 1.11865 11.28 1.11865C10.7 1.15251 10.1541 1.35568 10.1541 1.45726Z" fill="#73C92D"/>
<path d="M6.23047 2.47345C6.29871 2.60889 6.77637 2.54117 7.3564 2.33801C7.97054 2.13485 8.34585 1.79624 8.27762 1.6608C8.20938 1.52535 7.73171 1.59308 7.15168 1.79624C6.60578 1.9994 6.23047 2.33801 6.23047 2.47345Z" fill="#73C92D"/>
<path d="M4.35412 3.45541C4.76355 3.1168 5.07062 2.77819 5.0365 2.74433C4.96826 2.67661 4.55883 2.9475 4.18352 3.2861C3.80821 3.62471 3.46702 3.96332 3.50114 3.99718C3.56938 3.99718 3.87645 3.79401 4.35412 3.45541Z" fill="#73C92D"/>
<path d="M12.4743 22.7556C12.4743 22.5524 11.9284 22.417 11.3483 22.417C10.666 22.417 10.2224 22.5524 10.2224 22.7556C10.2224 22.9588 10.7683 23.0942 11.3483 23.0942H11.5531C12.099 23.0265 12.4743 22.9588 12.4743 22.7556Z" fill="#73C92D"/>
<path d="M22.1643 14.9003C22.1643 15.0357 22.642 13.038 22.5055 13.1057C22.369 13.3766 22.2325 13.7152 22.2325 14.0199C22.1643 14.2908 22.1643 14.6294 22.1643 14.9003Z" fill="#73C92D"/>
<path d="M9.47176 1.35619C10.0177 1.28847 10.4612 1.15303 10.393 1.01759C10.393 0.949867 9.9153 0.949867 9.40352 1.01759C8.89173 1.08531 8.41406 1.22075 8.41406 1.35619C8.4823 1.39005 8.95997 1.39005 9.47176 1.35619Z" fill="#73C92D"/>
<path d="M6.29858 2.13471C6.77625 1.93155 7.08332 1.66066 7.08332 1.59294C7.08332 1.52522 6.67389 1.66066 6.23034 1.93155C5.68444 2.13471 5.34325 2.4056 5.41148 2.4056C5.41148 2.47332 5.82091 2.33787 6.29858 2.13471Z" fill="#73C92D"/>
<path d="M10.4272 0.746432C10.4272 0.814153 10.8367 0.881875 11.2802 0.881875C11.7579 0.881875 12.1332 0.814153 12.1332 0.746432C12.1332 0.678711 12.0308 0.678711 11.6897 0.678711H11.2802H10.939C10.7002 0.678711 10.4272 0.746432 10.4272 0.746432Z" fill="#73C92D"/>
<path d="M16.8756 7.55256C16.2615 7.89116 16.0909 8.8054 16.4662 9.61805C16.8756 10.4646 17.7286 10.9386 18.3428 10.6C18.9569 10.2614 19.1275 9.34717 18.7522 8.53452C18.3428 7.688 17.4898 7.21395 16.8756 7.55256Z" fill="#73C92D"/>
<path d="M20.7994 8.46617C20.5264 8.53389 20.3899 9.14338 20.5947 9.85446C20.7311 10.5655 21.1406 11.1073 21.3794 11.0396C21.6524 10.9719 21.7888 10.3624 21.5841 9.65129C21.4135 8.94022 21.0723 8.39845 20.7994 8.46617Z" fill="#73C92D"/>
<path d="M21.4132 13.3763C21.1403 13.3086 20.7308 13.8504 20.5602 14.5614C20.3555 15.2725 20.492 15.882 20.765 15.9497C21.0379 16.0175 21.4473 15.4757 21.6179 14.7646C21.7544 14.0874 21.6862 13.444 21.4132 13.3763Z" fill="#73C92D"/>
<path d="M19.878 13.7822C20.4239 13.7822 20.7992 13.0711 20.7992 12.1907C20.7992 11.3103 20.3898 10.667 19.878 10.667C19.3321 10.667 18.9568 11.3781 18.9568 12.1907C18.9568 13.0034 19.4003 13.7822 19.878 13.7822Z" fill="#73C92D"/>
<path d="M22.0958 11.1416C21.8911 11.1416 21.7546 11.6834 21.7546 12.259C21.7546 12.9362 21.8911 13.4441 22.0958 13.4441C22.3005 13.4441 22.437 12.9024 22.437 12.3267C22.4029 11.6495 22.1982 11.1416 22.0958 11.1416Z" fill="#73C92D"/>
<path d="M12.8836 5.11433C12.5424 5.72382 12.9519 6.57033 13.8048 7.04438C14.6578 7.51843 15.6132 7.31526 15.9202 6.70577C16.2273 6.09628 15.852 5.24977 14.999 4.77572C14.146 4.36939 13.2248 4.50483 12.8836 5.11433Z" fill="#73C92D"/>
<path d="M15.3403 3.5227C15.1355 3.8613 15.4767 4.43693 16.125 4.91098C16.7733 5.38503 17.4556 5.45275 17.7286 5.18186C17.9333 4.84326 17.5921 4.26763 16.9439 3.79358C16.2956 3.31953 15.545 3.25181 15.3403 3.5227Z" fill="#73C92D"/>
<path d="M20.0147 8.16181C20.3559 7.95865 20.2195 7.24758 19.81 6.57036C19.3324 5.89315 18.7523 5.58841 18.4794 5.79157C18.07 5.99473 18.2064 6.70581 18.6159 7.38302C19.0935 8.02637 19.6736 8.36498 20.0147 8.16181Z" fill="#73C92D"/>
<path d="M21.9594 9.2109C22.0959 9.14318 22.0277 8.66913 21.823 8.0935C21.6183 7.55173 21.2771 7.11154 21.1406 7.17926C21.0041 7.24698 21.0723 7.72103 21.2771 8.29666C21.4818 8.80457 21.823 9.27862 21.9594 9.2109Z" fill="#73C92D"/>
<path d="M16.0228 17.6091C15.6816 16.9996 14.7604 16.8303 13.9074 17.2705C13.0544 17.7446 12.645 18.5911 12.9862 19.2006C13.3274 19.8101 14.2486 19.9794 15.1015 19.5392C15.9545 19.0651 16.364 18.2186 16.0228 17.6091Z" fill="#73C92D"/>
<path d="M20.6285 6.70524C20.765 6.56979 20.5603 6.09575 20.1508 5.58784C19.7414 5.04607 19.3661 4.74132 19.2296 4.87676C19.0931 5.01221 19.2978 5.48626 19.7073 5.99416C20.0826 6.50207 20.492 6.77296 20.6285 6.70524Z" fill="#73C92D"/>
<path d="M16.2274 19.403C15.545 19.8771 15.238 20.4527 15.4427 20.7913C15.6474 21.1299 16.3639 20.9945 16.978 20.5204C17.6604 20.0464 17.9675 19.4707 17.7628 19.1321C17.6263 18.8613 16.8757 18.9967 16.2274 19.403Z" fill="#73C92D"/>
<path d="M19.6733 18.3875C19.2639 18.9293 19.0592 19.3695 19.1957 19.5049C19.3321 19.6404 19.8098 19.3018 20.1169 18.7939C20.5263 18.2521 20.731 17.8119 20.5946 17.6765C20.4922 17.541 20.0828 17.8796 19.6733 18.3875Z" fill="#73C92D"/>
<path d="M19.537 4.30161C19.4688 4.36933 19.6735 4.70793 20.0147 5.14812C20.3559 5.55445 20.6971 5.85919 20.6971 5.82533C20.7994 5.68989 19.7417 4.23388 19.537 4.30161Z" fill="#73C92D"/>
<path d="M13.805 1.93132C13.0885 1.72815 12.4744 1.86359 12.4062 2.13448C12.3379 2.40536 12.8838 2.81169 13.6003 2.91327C14.3168 3.11644 14.931 2.98099 14.9992 2.71011C15.0674 2.43922 14.5557 2.13448 13.805 1.93132Z" fill="#73C92D"/>
<path d="M17.9335 3.38791C17.3876 2.98158 16.944 2.77841 16.8076 2.91386C16.6711 3.0493 17.0123 3.45563 17.5241 3.82809C18.07 4.23442 18.5135 4.43758 18.65 4.30214C18.8206 4.20056 18.4794 3.79423 17.9335 3.38791Z" fill="#73C92D"/>
<path d="M13.7366 21.3005C13.0201 21.5036 12.4741 21.8422 12.5424 22.0792C12.6106 22.3501 13.2248 22.4179 13.9413 22.2824C14.6237 22.0792 15.2037 21.7406 15.1354 21.5036C15.1013 21.2327 14.4189 21.0973 13.7366 21.3005Z" fill="#73C92D"/>
<path d="M18.7524 19.9788C18.6159 19.8434 18.1383 20.0465 17.6265 20.4528C17.0806 20.8592 16.7735 21.2316 16.91 21.3671C16.9782 21.4348 17.2512 21.3671 17.5241 21.2316C17.8653 21.0285 18.07 20.8253 18.3089 20.6222C18.6159 20.3851 18.8206 20.1142 18.7524 19.9788Z" fill="#73C92D"/>
<path d="M15.2037 2.27014C15.7496 2.4733 16.2614 2.54102 16.3296 2.40558C16.3979 2.27014 15.9202 1.99925 15.4084 1.72837C14.7943 1.5252 14.3507 1.45748 14.2825 1.59293C14.2825 1.72837 14.6919 2.06697 15.2037 2.27014Z" fill="#73C92D"/>
<path d="M18.2746 3.45501C18.684 3.79361 19.0593 3.99677 19.1276 3.92905C19.1958 3.86133 18.8546 3.52273 18.4452 3.21798C18.0358 2.87937 17.6604 2.67621 17.5922 2.74393C17.5581 2.77779 17.8993 3.1164 18.2746 3.45501Z" fill="#73C92D"/>
<path d="M15.3403 21.9769C14.7944 22.1801 14.3508 22.5187 14.4191 22.6541L16.5003 21.8076C16.5003 21.6383 15.9544 21.7061 15.3403 21.9769Z" fill="#73C92D"/>
<path d="M15.3403 21.9769C14.7944 22.1801 14.3508 22.5187 14.4191 22.6541C14.4873 22.7896 16.5003 21.9431 16.5003 21.8076C16.5344 21.6383 15.9544 21.7061 15.3403 21.9769Z" fill="#73C92D"/>
<path d="M13.0886 1.35619C13.6345 1.42391 14.078 1.42391 14.078 1.35619C14.078 1.28847 13.6686 1.15303 13.0886 1.01759C12.5427 0.949867 12.0991 0.949867 12.0991 1.01759C12.1674 1.08531 12.5427 1.22075 13.0886 1.35619Z" fill="#73C92D"/>
<path d="M16.3638 2.13471C16.8415 2.33787 17.2168 2.47332 17.2168 2.47332C17.2168 2.4056 16.8756 2.20243 16.4321 1.93155C15.9544 1.66066 15.5791 1.52522 15.5791 1.59294C15.5791 1.66066 15.8862 1.86383 16.3638 2.13471Z" fill="#73C92D"/>
<path d="M14.3508 1.2207C14.6238 1.35614 14.8967 1.35614 15.1356 1.35614C15.1356 1.28842 13.6685 0.814369 13.532 0.88209C13.8049 1.08525 14.0779 1.15297 14.3508 1.2207Z" fill="#73C92D"/>
<path d="M22.1982 10.3967C22.1299 9.85496 22.1299 9.41477 22.1982 9.41477C22.4029 9.34705 22.6076 11.3448 22.5393 11.4125C22.4711 11.3787 22.2664 10.9385 22.1982 10.3967Z" fill="#73C92D"/>
<path d="M7.21986 21.9769C7.76577 22.1801 8.20932 22.5187 8.14108 22.6542C8.07284 22.7896 6.05981 21.9431 6.05981 21.8076C6.09393 21.6383 6.67396 21.7738 7.21986 21.9769Z" fill="#73C92D"/>
<path d="M13.4296 22.8233C13.7025 22.7556 13.9755 22.6879 14.2826 22.7556C14.2826 22.8233 12.7472 23.1619 12.679 23.0942C12.8837 22.891 13.1566 22.8233 13.4296 22.8233Z" fill="#73C92D"/>
<path d="M9.30116 22.8233C9.02821 22.7556 8.75525 22.6879 8.41406 22.7556C8.41406 22.8233 9.94942 23.1619 10.0177 23.0942C9.81295 22.891 9.53999 22.8233 9.30116 22.8233Z" fill="#73C92D"/>
<path d="M127.968 9.21169C128.821 8.9408 129.776 9.34713 130.049 10.1936C130.185 10.5323 130.185 10.9047 130.049 11.2433C129.912 11.7174 129.503 12.0898 129.059 12.2253C128.206 12.4962 127.251 12.0898 126.978 11.2433C126.842 10.9047 126.842 10.5323 126.978 10.1936C127.149 9.75346 127.49 9.34713 127.968 9.21169ZM128.172 12.056C128.889 12.2591 129.639 11.7851 129.844 11.074C130.049 10.3629 129.571 9.61801 128.855 9.41485C128.138 9.21169 127.388 9.68574 127.183 10.3968C127.115 10.6 127.115 10.8709 127.183 11.074C127.353 11.5142 127.695 11.9205 128.172 12.056ZM127.899 9.82118H128.616C129.093 9.82118 129.298 10.0243 129.298 10.3629C129.298 10.6338 129.162 10.837 128.889 10.9047L129.366 11.6835H129.025L128.548 10.9724H128.275V11.6835H127.933L127.899 9.82118ZM128.241 10.6H128.513C128.718 10.6 128.991 10.6 128.991 10.3291C128.991 10.0582 128.718 10.0582 128.513 10.0582H128.241V10.6Z" fill="#002950"/>
<path d="M36.9378 3.04873L45.2629 21.0964C45.3311 21.2319 45.2629 21.3673 45.1264 21.435C45.0582 21.435 45.0582 21.435 44.9899 21.435H43.0451C42.9087 21.435 42.8404 21.3673 42.7722 21.2996L40.9297 17.2702C40.8615 17.2025 40.7933 17.1347 40.6568 17.1347H32.6047C32.4682 17.1347 32.4 17.2025 32.3317 17.2702L30.4552 21.2996C30.3869 21.3673 30.3187 21.435 30.1822 21.435H28.3057C28.1692 21.435 28.0327 21.2996 28.0327 21.1642C28.0327 21.0964 28.0327 21.0964 28.0327 21.0287L36.4601 3.04873C36.5284 2.91329 36.6649 2.84556 36.8013 2.91329C36.8696 2.98101 36.9378 3.04873 36.9378 3.04873ZM39.872 14.6968L36.9378 8.36484C36.8696 8.2294 36.7331 8.16168 36.5966 8.2294C36.5284 8.2294 36.4601 8.29712 36.4601 8.36484L33.5259 14.6968C33.4577 14.8322 33.5259 14.9677 33.6624 15.0354C33.6624 15.0354 33.7306 15.0354 33.7988 15.0354H39.6673C39.8038 15.0354 39.9403 14.8999 39.9403 14.7645C39.872 14.7645 39.872 14.6968 39.872 14.6968Z" fill="#002950"/>
<path d="M47.6852 4.97904L49.4253 4.13252C49.5617 4.0648 49.6982 4.13252 49.7664 4.26797C49.7664 4.33569 49.7664 4.33569 49.7664 4.40341V21.3337C49.7664 21.4692 49.63 21.6046 49.4935 21.6046H47.7534C47.6169 21.6046 47.4805 21.4692 47.4805 21.3337V5.1822C47.5487 5.11448 47.5487 4.97904 47.6852 4.97904Z" fill="#002950"/>
<path d="M52.8712 2.54105L54.6113 1.69454C54.7478 1.62681 54.8842 1.69454 54.9525 1.82998C54.9525 1.8977 54.9525 1.8977 54.9525 1.96542V21.266C54.9525 21.4014 54.816 21.5368 54.6795 21.5368H52.9395C52.803 21.5368 52.6665 21.4014 52.6665 21.266V2.77808C52.7347 2.67649 52.803 2.60877 52.8712 2.54105Z" fill="#002950"/>
<path d="M63.9942 12.5302C63.8577 12.5979 63.7212 12.5979 63.653 12.5302C63.0389 11.853 62.2541 11.5482 61.4012 11.5482C60.3435 11.5482 59.3881 12.0223 59.3881 12.8688C59.3881 14.2571 61.4011 14.4602 62.3906 14.7311C64.3354 15.2052 65.8708 15.9162 65.8708 18.1849C65.8708 20.826 63.4142 21.8757 61.06 21.8757C59.1834 21.8757 57.7845 21.4017 56.6586 20.0134C56.5904 19.8779 56.5904 19.7425 56.7268 19.6748L58.0575 18.6251C58.194 18.5574 58.3304 18.5574 58.3987 18.6251C59.081 19.3023 59.934 19.8779 61.1282 19.8779C62.2541 19.8779 63.5165 19.4039 63.5165 18.4219C63.5165 17.1014 61.64 16.8305 60.6505 16.6273C58.7057 16.1533 57.068 15.5776 57.068 13.2412C57.068 10.8033 59.3199 9.61816 61.5376 9.61816C63.0047 9.61816 64.5401 10.0922 65.4613 11.3451C65.5296 11.4805 65.5296 11.6159 65.3931 11.6837L63.9942 12.5302Z" fill="#002950"/>
<path d="M76.5841 12.6994C76.4476 12.7671 76.3112 12.7671 76.2429 12.6994C75.5264 11.9883 74.5028 11.5143 73.4452 11.582C70.9886 11.582 69.7944 13.5798 69.7944 15.7469C69.7944 17.9139 71.2615 19.7086 73.5816 19.7086C74.5711 19.7763 75.5947 19.3022 76.2429 18.5912C76.3112 18.4557 76.5159 18.4557 76.6523 18.5912L77.8465 19.7763C77.9148 19.9117 77.9148 20.0472 77.8465 20.1149C76.7206 21.2323 75.2535 21.7063 73.6499 21.7741C70.238 21.8418 67.3719 19.1329 67.3037 15.6791V15.6114C67.3037 11.9883 69.7603 9.38108 73.5134 9.38108C75.117 9.31336 76.7206 9.92285 77.8465 11.0402C77.983 11.1757 77.983 11.3111 77.8465 11.4466L76.5841 12.6994Z" fill="#002950"/>
<path d="M80.3711 9.75413H82.1112C82.2476 9.75413 82.3841 9.88958 82.3841 10.025V11.5149H82.4524C83.0665 10.262 84.5336 9.41553 86.0007 9.41553C86.2737 9.41553 86.5467 9.41553 86.7855 9.48325C86.922 9.48325 86.9902 9.61869 86.9902 9.75413L86.922 11.6842C86.922 11.8196 86.7855 11.9551 86.649 11.9551C86.649 11.9551 86.649 11.9551 86.5808 11.9551C86.3078 11.8874 86.0349 11.8874 85.796 11.8874C83.6124 11.8874 82.3841 13.0725 82.3841 15.6459V21.2667C82.3841 21.4022 82.2476 21.5376 82.1112 21.5376H80.3711C80.2346 21.5376 80.0981 21.4022 80.0981 21.2667V9.99116C80.1323 9.85572 80.2687 9.75413 80.3711 9.75413Z" fill="#002950"/>
<path d="M89.7197 3.99717C90.5727 3.72629 91.5281 4.20034 91.801 4.97913C92.074 5.82565 91.5963 6.77374 90.8116 7.04463C89.9586 7.31551 89.0032 6.84146 88.7303 6.06267C88.5938 5.72406 88.5938 5.3516 88.7303 5.01299C88.8326 4.50508 89.2421 4.13262 89.7197 3.99717ZM89.3785 9.75347H91.1186C91.2551 9.75347 91.3916 9.88892 91.3916 10.0244V21.2661C91.3916 21.4015 91.2551 21.537 91.1186 21.537H89.3785C89.2421 21.537 89.1056 21.4015 89.1056 21.2661V9.9905C89.1056 9.85506 89.2421 9.75347 89.3785 9.75347Z" fill="#002950"/>
<path d="M94.3942 9.75379H96.1342C96.2707 9.75379 96.4072 9.88924 96.4072 10.0247V11.4807H96.4754C97.3284 10.2278 99.0003 9.48291 100.604 9.48291C104.255 9.48291 106.609 12.1918 106.609 15.6455C106.609 19.167 104.22 21.8082 100.604 21.8082C98.932 21.8082 97.2602 21.0294 96.4754 19.8104H96.4072V26.0407C96.4072 26.1085 96.339 26.2439 96.2707 26.2439L94.5306 27.0904C94.3942 27.1581 94.2577 27.0904 94.1895 26.955C94.1895 26.8873 94.1895 26.8873 94.1895 26.8195V9.99082C94.1895 9.85538 94.2577 9.75379 94.3942 9.75379ZM96.3731 15.2392C96.2366 17.8126 97.772 19.7427 100.297 19.675C102.378 19.6072 104.016 18.0158 104.152 15.9841C104.289 13.4107 102.753 11.4807 100.229 11.5484C98.1814 11.5823 96.5096 13.1737 96.3731 15.2392Z" fill="#002950"/>
<path d="M124.18 12.5302C124.044 12.5979 123.907 12.5979 123.839 12.5302C123.225 11.853 122.44 11.5482 121.587 11.5482C120.529 11.5482 119.574 12.0223 119.574 12.8688C119.574 14.2571 121.587 14.4602 122.576 14.7311C124.521 15.2052 126.057 15.9162 126.057 18.1849C126.057 20.826 123.6 21.8757 121.246 21.8757C119.369 21.8757 117.97 21.4017 116.844 20.0134C116.776 19.8779 116.776 19.7425 116.913 19.6748L118.243 18.6251C118.38 18.5574 118.516 18.5574 118.584 18.6251C119.267 19.3023 120.12 19.8779 121.314 19.8779C122.44 19.8779 123.702 19.4039 123.702 18.4219C123.702 17.1014 121.826 16.8305 120.836 16.6273C118.892 16.1533 117.254 15.5776 117.254 13.2412C117.254 10.8033 119.506 9.61816 121.723 9.61816C123.191 9.61816 124.726 10.0922 125.647 11.3451C125.715 11.4805 125.715 11.6159 125.579 11.6837L124.18 12.5302Z" fill="#002950"/>
<path d="M111.625 16.9996V12.1914C111.625 12.056 111.761 11.9205 111.898 11.9205H113.911C113.979 11.9205 114.115 11.8528 114.115 11.7851L114.968 10.0582C115.036 9.92276 114.968 9.78732 114.832 9.71959C114.764 9.71959 114.764 9.71959 114.695 9.71959H111.829C111.693 9.71959 111.556 9.58415 111.556 9.44871V6.40126C111.556 6.26581 111.42 6.13037 111.283 6.13037C111.215 6.13037 111.215 6.13037 111.147 6.13037L109.407 6.97689C109.339 7.04461 109.27 7.11233 109.27 7.18005V9.27941C109.27 9.41485 109.134 9.55029 108.997 9.55029H107.803C107.667 9.55029 107.53 9.68573 107.53 9.82118V11.5481C107.53 11.6835 107.667 11.819 107.803 11.819H108.997C109.134 11.819 109.27 11.9544 109.27 12.0898V17.7107C109.27 19.573 109.339 21.6724 112.819 21.6724C113.433 21.6724 114.081 21.5369 114.695 21.3338C114.764 21.2661 114.832 21.1983 114.832 21.0629V19.6069C114.832 19.4714 114.695 19.336 114.559 19.336H114.491C114.081 19.4714 113.706 19.5392 113.228 19.5392C111.625 19.7085 111.625 18.3202 111.625 16.9996Z" fill="#002950"/>
<path d="M127.968 9.21169C128.821 8.9408 129.776 9.34713 130.049 10.1936C130.185 10.5323 130.185 10.9047 130.049 11.2433C129.912 11.7174 129.503 12.0898 129.059 12.2253C128.206 12.4962 127.251 12.0898 126.978 11.2433C126.842 10.9047 126.842 10.5323 126.978 10.1936C127.149 9.75346 127.49 9.34713 127.968 9.21169ZM128.172 12.056C128.889 12.2591 129.639 11.7851 129.844 11.074C130.049 10.3629 129.571 9.61801 128.855 9.41485C128.138 9.21169 127.388 9.68574 127.183 10.3968C127.115 10.6 127.115 10.8709 127.183 11.074C127.353 11.5142 127.695 11.9205 128.172 12.056ZM127.899 9.82118H128.616C129.093 9.82118 129.298 10.0243 129.298 10.3629C129.298 10.6338 129.162 10.837 128.889 10.9047L129.366 11.6835H129.025L128.548 10.9724H128.275V11.6835H127.933L127.899 9.82118ZM128.241 10.6H128.513C128.718 10.6 128.991 10.6 128.991 10.3291C128.991 10.0582 128.718 10.0582 128.513 10.0582H128.241V10.6Z" fill="#002950"/>
<path d="M36.9378 3.04873L45.2629 21.0964C45.3311 21.2319 45.2629 21.3673 45.1264 21.435C45.0582 21.435 45.0582 21.435 44.9899 21.435H43.0451C42.9087 21.435 42.8404 21.3673 42.7722 21.2996L40.9297 17.2702C40.8615 17.2025 40.7933 17.1347 40.6568 17.1347H32.6047C32.4682 17.1347 32.4 17.2025 32.3317 17.2702L30.4552 21.2996C30.3869 21.3673 30.3187 21.435 30.1822 21.435H28.3057C28.1692 21.435 28.0327 21.2996 28.0327 21.1642C28.0327 21.0964 28.0327 21.0964 28.0327 21.0287L36.4601 3.04873C36.5284 2.91329 36.6649 2.84556 36.8013 2.91329C36.8696 2.98101 36.9378 3.04873 36.9378 3.04873ZM39.872 14.6968L36.9378 8.36484C36.8696 8.2294 36.7331 8.16168 36.5966 8.2294C36.5284 8.2294 36.4601 8.29712 36.4601 8.36484L33.5259 14.6968C33.4577 14.8322 33.5259 14.9677 33.6624 15.0354C33.6624 15.0354 33.7306 15.0354 33.7988 15.0354H39.6673C39.8038 15.0354 39.9403 14.8999 39.9403 14.7645C39.872 14.7645 39.872 14.6968 39.872 14.6968Z" fill="#002950"/>
<path d="M47.6852 4.97904L49.4253 4.13252C49.5617 4.0648 49.6982 4.13252 49.7664 4.26797C49.7664 4.33569 49.7664 4.33569 49.7664 4.40341V21.3337C49.7664 21.4692 49.63 21.6046 49.4935 21.6046H47.7534C47.6169 21.6046 47.4805 21.4692 47.4805 21.3337V5.1822C47.5487 5.11448 47.5487 4.97904 47.6852 4.97904Z" fill="#002950"/>
<path d="M52.8712 2.54105L54.6113 1.69454C54.7478 1.62681 54.8842 1.69454 54.9525 1.82998C54.9525 1.8977 54.9525 1.8977 54.9525 1.96542V21.266C54.9525 21.4014 54.816 21.5368 54.6795 21.5368H52.9395C52.803 21.5368 52.6665 21.4014 52.6665 21.266V2.77808C52.7347 2.67649 52.803 2.60877 52.8712 2.54105Z" fill="#002950"/>
<path d="M63.9942 12.5302C63.8577 12.5979 63.7212 12.5979 63.653 12.5302C63.0389 11.853 62.2541 11.5482 61.4012 11.5482C60.3435 11.5482 59.3881 12.0223 59.3881 12.8688C59.3881 14.2571 61.4011 14.4602 62.3906 14.7311C64.3354 15.2052 65.8708 15.9162 65.8708 18.1849C65.8708 20.826 63.4142 21.8757 61.06 21.8757C59.1834 21.8757 57.7845 21.4017 56.6586 20.0134C56.5904 19.8779 56.5904 19.7425 56.7268 19.6748L58.0575 18.6251C58.194 18.5574 58.3304 18.5574 58.3987 18.6251C59.081 19.3023 59.934 19.8779 61.1282 19.8779C62.2541 19.8779 63.5165 19.4039 63.5165 18.4219C63.5165 17.1014 61.64 16.8305 60.6505 16.6273C58.7057 16.1533 57.068 15.5776 57.068 13.2412C57.068 10.8033 59.3199 9.61816 61.5376 9.61816C63.0047 9.61816 64.5401 10.0922 65.4613 11.3451C65.5296 11.4805 65.5296 11.6159 65.3931 11.6837L63.9942 12.5302Z" fill="#002950"/>
<path d="M76.5841 12.6994C76.4476 12.7671 76.3112 12.7671 76.2429 12.6994C75.5264 11.9883 74.5028 11.5143 73.4452 11.582C70.9886 11.582 69.7944 13.5798 69.7944 15.7469C69.7944 17.9139 71.2615 19.7086 73.5816 19.7086C74.5711 19.7763 75.5947 19.3022 76.2429 18.5912C76.3112 18.4557 76.5159 18.4557 76.6523 18.5912L77.8465 19.7763C77.9148 19.9117 77.9148 20.0472 77.8465 20.1149C76.7206 21.2323 75.2535 21.7063 73.6499 21.7741C70.238 21.8418 67.3719 19.1329 67.3037 15.6791V15.6114C67.3037 11.9883 69.7603 9.38108 73.5134 9.38108C75.117 9.31336 76.7206 9.92285 77.8465 11.0402C77.983 11.1757 77.983 11.3111 77.8465 11.4466L76.5841 12.6994Z" fill="#002950"/>
<path d="M80.3711 9.75413H82.1112C82.2476 9.75413 82.3841 9.88958 82.3841 10.025V11.5149H82.4524C83.0665 10.262 84.5336 9.41553 86.0007 9.41553C86.2737 9.41553 86.5467 9.41553 86.7855 9.48325C86.922 9.48325 86.9902 9.61869 86.9902 9.75413L86.922 11.6842C86.922 11.8196 86.7855 11.9551 86.649 11.9551C86.649 11.9551 86.649 11.9551 86.5808 11.9551C86.3078 11.8874 86.0349 11.8874 85.796 11.8874C83.6124 11.8874 82.3841 13.0725 82.3841 15.6459V21.2667C82.3841 21.4022 82.2476 21.5376 82.1112 21.5376H80.3711C80.2346 21.5376 80.0981 21.4022 80.0981 21.2667V9.99116C80.1323 9.85572 80.2687 9.75413 80.3711 9.75413Z" fill="#002950"/>
<path d="M89.7197 3.99717C90.5727 3.72629 91.5281 4.20034 91.801 4.97913C92.074 5.82565 91.5963 6.77374 90.8116 7.04463C89.9586 7.31551 89.0032 6.84146 88.7303 6.06267C88.5938 5.72406 88.5938 5.3516 88.7303 5.01299C88.8326 4.50508 89.2421 4.13262 89.7197 3.99717ZM89.3785 9.75347H91.1186C91.2551 9.75347 91.3916 9.88892 91.3916 10.0244V21.2661C91.3916 21.4015 91.2551 21.537 91.1186 21.537H89.3785C89.2421 21.537 89.1056 21.4015 89.1056 21.2661V9.9905C89.1056 9.85506 89.2421 9.75347 89.3785 9.75347Z" fill="#002950"/>
<path d="M94.3942 9.75379H96.1342C96.2707 9.75379 96.4072 9.88924 96.4072 10.0247V11.4807H96.4754C97.3284 10.2278 99.0003 9.48291 100.604 9.48291C104.255 9.48291 106.609 12.1918 106.609 15.6455C106.609 19.167 104.22 21.8082 100.604 21.8082C98.932 21.8082 97.2602 21.0294 96.4754 19.8104H96.4072V26.0407C96.4072 26.1085 96.339 26.2439 96.2707 26.2439L94.5306 27.0904C94.3942 27.1581 94.2577 27.0904 94.1895 26.955C94.1895 26.8873 94.1895 26.8873 94.1895 26.8195V9.99082C94.1895 9.85538 94.2577 9.75379 94.3942 9.75379ZM96.3731 15.2392C96.2366 17.8126 97.772 19.7427 100.297 19.675C102.378 19.6072 104.016 18.0158 104.152 15.9841C104.289 13.4107 102.753 11.4807 100.229 11.5484C98.1814 11.5823 96.5096 13.1737 96.3731 15.2392Z" fill="#002950"/>
<path d="M124.18 12.5302C124.044 12.5979 123.907 12.5979 123.839 12.5302C123.225 11.853 122.44 11.5482 121.587 11.5482C120.529 11.5482 119.574 12.0223 119.574 12.8688C119.574 14.2571 121.587 14.4602 122.576 14.7311C124.521 15.2052 126.057 15.9162 126.057 18.1849C126.057 20.826 123.6 21.8757 121.246 21.8757C119.369 21.8757 117.97 21.4017 116.844 20.0134C116.776 19.8779 116.776 19.7425 116.913 19.6748L118.243 18.6251C118.38 18.5574 118.516 18.5574 118.584 18.6251C119.267 19.3023 120.12 19.8779 121.314 19.8779C122.44 19.8779 123.702 19.4039 123.702 18.4219C123.702 17.1014 121.826 16.8305 120.836 16.6273C118.892 16.1533 117.254 15.5776 117.254 13.2412C117.254 10.8033 119.506 9.61816 121.723 9.61816C123.191 9.61816 124.726 10.0922 125.647 11.3451C125.715 11.4805 125.715 11.6159 125.579 11.6837L124.18 12.5302Z" fill="#002950"/>
<path d="M111.625 16.9996V12.1914C111.625 12.056 111.761 11.9205 111.898 11.9205H113.911C113.979 11.9205 114.115 11.8528 114.115 11.7851L114.968 10.0582C115.036 9.92276 114.968 9.78732 114.832 9.71959C114.764 9.71959 114.764 9.71959 114.695 9.71959H111.829C111.693 9.71959 111.556 9.58415 111.556 9.44871V6.40126C111.556 6.26581 111.42 6.13037 111.283 6.13037C111.215 6.13037 111.215 6.13037 111.147 6.13037L109.407 6.97689C109.339 7.04461 109.27 7.11233 109.27 7.18005V9.27941C109.27 9.41485 109.134 9.55029 108.997 9.55029H107.803C107.667 9.55029 107.53 9.68573 107.53 9.82118V11.5481C107.53 11.6835 107.667 11.819 107.803 11.819H108.997C109.134 11.819 109.27 11.9544 109.27 12.0898V17.7107C109.27 19.573 109.339 21.6724 112.819 21.6724C113.433 21.6724 114.081 21.5369 114.695 21.3338C114.764 21.2661 114.832 21.1983 114.832 21.0629V19.6069C114.832 19.4714 114.695 19.336 114.559 19.336H114.491C114.081 19.4714 113.706 19.5392 113.228 19.5392C111.625 19.7085 111.625 18.3202 111.625 16.9996Z" fill="#002950"/>
</g>
<defs>
<clipPath id="clip0_58_6339">
<rect width="129.891" height="26.4113" fill="white" transform="translate(0.225586 0.678711)"/>
</clipPath>
</defs>
</svg>
