<svg width="131" height="28" viewBox="0 0 131 28" fill="none" xmlns="http://www.w3.org/2000/svg">
<g clip-path="url(#clip0_40004443_19091)">
<path d="M11.3486 6.84131C10.3591 6.84131 9.47205 7.6201 9.40381 8.63592C9.47205 9.6856 10.325 10.4983 11.4168 10.4983C12.4063 10.4305 13.2251 9.65174 13.2934 8.63592C13.2251 7.6201 12.3381 6.84131 11.3486 6.84131Z" fill="white"/>
<path d="M5.68472 16.8645C6.29886 16.5259 6.46946 15.6117 6.09415 14.799C5.68472 14.0203 4.83174 13.4785 4.21759 13.7494C3.60345 14.088 3.43285 15.0022 3.8764 15.8149C4.28583 16.6952 5.10469 17.1354 5.68472 16.8645Z" fill="white"/>
<path d="M7.83393 14.0876C8.89162 14.0199 9.71048 13.1734 9.64224 12.1576C9.71048 11.1079 8.8575 10.2275 7.83393 10.2275C6.77623 10.2953 5.95738 11.1418 6.02561 12.1576C5.95738 13.2411 6.74212 14.0876 7.83393 14.0876Z" fill="white"/>
<path d="M2.54592 16.2209C2.20473 16.4241 2.3412 17.1352 2.75063 17.8124C3.2283 18.4896 3.80832 18.7943 4.14951 18.5912C4.49071 18.388 4.35423 17.6769 3.9448 16.9997C3.50125 16.3564 2.88711 16.0178 2.54592 16.2209Z" fill="white"/>
<path d="M16.8755 16.8642C17.5579 17.2028 18.3427 16.7287 18.7521 15.8822C19.1615 15.0357 19.025 14.0876 18.3427 13.8167C17.7285 13.4781 16.8755 13.9522 16.4661 14.7987C16.0908 15.6113 16.2955 16.5594 16.8755 16.8642Z" fill="white"/>
<path d="M14.8286 14.0875C15.8862 14.0198 16.7051 13.1733 16.6369 12.1575C16.7051 11.1755 15.9545 10.2951 14.965 10.2274C13.9756 10.1597 13.0885 10.9046 13.0202 11.8866C13.0202 11.9543 13.0202 12.0898 13.0202 12.1575C12.952 13.241 13.7367 14.0875 14.8286 14.0875Z" fill="white"/>
<path d="M19.8099 17.8124C20.2875 17.1352 20.3558 16.4918 20.0146 16.2209C19.6734 16.0178 19.0934 16.3564 18.6157 16.9997C18.138 17.6769 18.0698 18.3203 18.411 18.5912C18.7522 18.7943 19.3663 18.4557 19.8099 17.8124Z" fill="white"/>
<path d="M21.0725 17.2705C20.936 17.2027 21.0042 16.7287 21.2089 16.1531C21.4137 15.6113 21.7549 15.1711 21.8913 15.2388C22.1984 15.4759 21.2772 17.4059 21.0725 17.2705Z" fill="#73C92D"/>
<path d="M1.41969 6.43506C1.14673 6.90911 0.873781 7.34929 0.737305 7.89106C0.873781 7.6879 1.01026 7.41702 1.14673 7.21385C1.28321 6.97683 1.35145 6.70594 1.41969 6.43506Z" fill="#73C92D"/>
<path d="M21.1406 6.43506C21.4136 6.90911 21.6865 7.34929 21.823 7.89106C21.6865 7.6879 21.5501 7.41702 21.4136 7.21385C21.3453 6.97683 21.2089 6.70594 21.1406 6.43506Z" fill="#73C92D"/>
<path d="M8.20954 1.2207C7.97071 1.35614 7.69776 1.35614 7.4248 1.35614C7.4248 1.28842 8.89193 0.814369 9.0284 0.88209C8.75545 1.08525 8.55074 1.15297 8.20954 1.2207Z" fill="#73C92D"/>
<path d="M3.02306 4.30161C3.0913 4.36933 2.88659 4.77565 2.5454 5.14812C2.2042 5.52059 1.86301 5.85919 1.86301 5.82533C1.76066 5.68989 2.88659 4.23388 3.02306 4.30161Z" fill="#73C92D"/>
<path d="M3.87622 8.53452C3.39855 9.31331 3.60327 10.2614 4.21741 10.6C4.83155 10.9386 5.68453 10.4646 6.09396 9.61805C6.50339 8.77154 6.36691 7.82344 5.68453 7.55256C5.10451 7.21395 4.28565 7.688 3.87622 8.53452Z" fill="#73C92D"/>
<path d="M1.21519 11.0734C1.48815 11.1412 1.89758 10.5994 1.99993 9.88832C2.17053 9.14338 2.10229 8.53389 1.82934 8.46617C1.55638 8.39845 1.14696 8.94022 1.0446 9.65129C0.839883 10.3962 0.942241 11.0734 1.21519 11.0734Z" fill="#73C92D"/>
<path d="M11.3486 17.4062C12.3381 17.3384 13.1569 16.4919 13.0887 15.4761C13.0204 14.4603 12.1675 13.7154 11.1439 13.7831C10.2227 13.8508 9.40381 14.6296 9.40381 15.5777C9.43793 16.6274 10.2909 17.4739 11.3486 17.4062Z" fill="#73C92D"/>
<path d="M2.03413 14.5614C1.82942 13.8504 1.48823 13.3086 1.18116 13.3763C0.908203 13.444 0.839965 14.0874 0.976441 14.7646C1.18116 15.4757 1.52235 16.0175 1.82942 15.9497C2.17061 15.882 2.23885 15.2387 2.03413 14.5614Z" fill="#73C92D"/>
<path d="M1.8291 12.1907C1.8291 13.0372 2.23853 13.7822 2.75032 13.7822C3.2621 13.7822 3.67153 13.0711 3.67153 12.1907C3.67153 11.3103 3.29622 10.667 2.75032 10.667C2.23853 10.667 1.8291 11.3781 1.8291 12.1907Z" fill="#73C92D"/>
<path d="M0.566777 11.1416C0.362062 11.1416 0.225586 11.6834 0.225586 12.259C0.225586 12.8685 0.362062 13.4441 0.566777 13.4441C0.771492 13.4441 0.907968 12.9024 0.907968 12.259C0.907968 11.5818 0.703254 11.1416 0.566777 11.1416Z" fill="#73C92D"/>
<path d="M6.67397 6.70594C7.01516 7.31543 7.93637 7.48473 8.78935 7.04454C9.64233 6.60436 10.0518 5.72398 9.71057 5.11449C9.36938 4.505 8.44816 4.3357 7.59518 4.77588C6.7422 5.21607 6.36689 6.09645 6.67397 6.70594Z" fill="#73C92D"/>
<path d="M5.68469 3.79358C5.00231 4.26763 4.69524 4.84326 4.89995 5.18186C5.10467 5.52047 5.82117 5.38503 6.50355 4.91098C7.18594 4.43693 7.49301 3.8613 7.28829 3.5227C7.01534 3.25181 6.36708 3.31953 5.68469 3.79358Z" fill="#73C92D"/>
<path d="M2.81835 6.57036C2.34068 7.24758 2.27244 7.95865 2.61364 8.16181C2.95483 8.36498 3.53485 8.02637 4.01252 7.38302C4.42195 6.70581 4.49019 5.99473 4.21723 5.79157C3.87604 5.58841 3.29602 5.89315 2.81835 6.57036Z" fill="#73C92D"/>
<path d="M0.703327 9.21137C0.839804 9.27909 1.11276 8.87276 1.38571 8.29713C1.59042 7.68764 1.65866 7.24746 1.52219 7.17973C1.38571 7.11201 1.04452 7.51834 0.839804 8.09397C0.635089 8.6696 0.566851 9.14365 0.703327 9.21137Z" fill="#73C92D"/>
<path d="M9.60797 19.2003C9.94916 18.5908 9.53973 17.7443 8.68675 17.2702C7.83378 16.7962 6.87844 16.9993 6.57137 17.6088C6.23018 18.2183 6.63961 19.0648 7.49259 19.5389C8.34556 19.9791 9.3009 19.7759 9.60797 19.2003Z" fill="#73C92D"/>
<path d="M1.55593 17.2705C1.62417 17.2027 1.55593 16.7287 1.35121 16.1531C1.1465 15.6113 0.805306 15.1711 0.66883 15.2388C0.361758 15.4759 1.28297 17.4059 1.55593 17.2705Z" fill="#73C92D"/>
<path d="M2.95502 5.96037C3.36445 5.4186 3.56917 4.91069 3.43269 4.84297C3.29621 4.70753 2.81854 5.04613 2.51147 5.55404C2.10204 6.09581 1.89733 6.536 2.03381 6.67144C2.17028 6.77302 2.54559 6.50214 2.95502 5.96037Z" fill="#73C92D"/>
<path d="M9.74463 3.65838C9.74463 4.20015 10.427 4.57261 11.28 4.57261C12.2012 4.50489 12.8836 4.09856 12.8836 3.65838C12.8836 3.21819 12.2012 2.74414 11.3482 2.74414C10.4952 2.74414 9.74463 3.11661 9.74463 3.65838Z" fill="#73C92D"/>
<path d="M6.36708 19.4034C5.68469 18.9294 5.03643 18.8617 4.83172 19.1326C4.627 19.4712 4.96819 20.0468 5.61646 20.5208C6.29884 20.9949 6.9471 21.0626 7.22006 20.7917C7.35653 20.4531 7.01534 19.8436 6.36708 19.4034Z" fill="#73C92D"/>
<path d="M1.96545 17.6087C1.82897 17.7442 2.03368 18.2182 2.44311 18.7261C2.85254 19.2341 3.22785 19.5727 3.36433 19.4372C3.50081 19.3695 3.29609 18.8277 2.88666 18.3198C2.54547 17.8796 2.17016 17.541 1.96545 17.6087Z" fill="#73C92D"/>
<path d="M12.8837 20.6564C12.8837 20.1147 12.1672 19.7422 11.3483 19.7422C10.5295 19.7422 9.81299 20.1485 9.81299 20.6564C9.81299 21.1982 10.4954 21.5707 11.3483 21.5707C12.2013 21.5707 12.8837 21.1643 12.8837 20.6564Z" fill="#73C92D"/>
<path d="M8.7556 1.93149C8.0391 2.13465 7.49319 2.47326 7.56143 2.71028C7.62967 2.98117 8.27793 3.04889 8.96031 2.91345C9.67681 2.71028 10.2227 2.37168 10.1545 2.13465C10.0862 1.86377 9.4721 1.79605 8.7556 1.93149Z" fill="#73C92D"/>
<path d="M4.69503 3.38791C4.14912 3.72651 3.84205 4.1667 3.91029 4.30214C4.04677 4.43758 4.52443 4.23442 5.03622 3.82809C5.58213 3.42177 5.8892 3.0493 5.75272 2.91386C5.68448 2.77841 5.1727 2.98158 4.69503 3.38791Z" fill="#73C92D"/>
<path d="M8.89195 21.3005C8.17545 21.0973 7.56131 21.2327 7.49307 21.5036C7.42483 21.7745 7.97074 22.1808 8.68724 22.2824C9.40374 22.4856 10.0179 22.3501 10.0861 22.0793C10.1544 21.8422 9.54022 21.5036 8.89195 21.3005Z" fill="#73C92D"/>
<path d="M5.75286 21.3671C5.88933 21.2316 5.54814 20.8253 5.03636 20.4528C4.49045 20.0465 4.0469 19.8434 3.91042 19.9788C3.77395 20.1142 3.97866 20.3851 4.31985 20.656C4.59281 20.8592 4.86576 21.0623 5.10459 21.2655C5.41167 21.4348 5.68462 21.5025 5.75286 21.3671Z" fill="#73C92D"/>
<path d="M10.1543 1.45726C10.1543 1.66042 10.7002 1.79586 11.2802 1.79586C11.8603 1.79586 12.4062 1.66042 12.4062 1.45726C12.4062 1.25409 11.8603 1.11865 11.2802 1.11865C10.7002 1.15251 10.1543 1.35568 10.1543 1.45726Z" fill="#73C92D"/>
<path d="M6.23047 2.47345C6.29871 2.60889 6.77637 2.54117 7.3564 2.33801C7.97054 2.13485 8.34585 1.79624 8.27762 1.6608C8.20938 1.52535 7.73171 1.59308 7.15168 1.79624C6.60578 1.9994 6.23047 2.33801 6.23047 2.47345Z" fill="#73C92D"/>
<path d="M4.35387 3.45541C4.7633 3.1168 5.07037 2.77819 5.03625 2.74433C4.96802 2.67661 4.55859 2.9475 4.18328 3.2861C3.80797 3.62471 3.46678 3.96332 3.50089 3.99718C3.56913 3.99718 3.8762 3.79401 4.35387 3.45541Z" fill="#73C92D"/>
<path d="M12.474 22.7556C12.474 22.5524 11.9281 22.417 11.3481 22.417C10.6657 22.417 10.2222 22.5524 10.2222 22.7556C10.2222 22.9588 10.7681 23.0942 11.3481 23.0942H11.5528C12.0987 23.0265 12.474 22.9588 12.474 22.7556Z" fill="#73C92D"/>
<path d="M22.1641 14.9003C22.1641 15.0357 22.6417 13.038 22.5053 13.1057C22.3688 13.3766 22.2323 13.7152 22.2323 14.0199C22.1641 14.2908 22.1641 14.6294 22.1641 14.9003Z" fill="#73C92D"/>
<path d="M9.47176 1.35619C10.0177 1.28847 10.4612 1.15303 10.393 1.01759C10.393 0.949867 9.9153 0.949867 9.40352 1.01759C8.89173 1.08531 8.41406 1.22075 8.41406 1.35619C8.4823 1.39005 8.95997 1.39005 9.47176 1.35619Z" fill="#73C92D"/>
<path d="M6.29858 2.13471C6.77625 1.93155 7.08332 1.66066 7.08332 1.59294C7.08332 1.52522 6.67389 1.66066 6.23034 1.93155C5.68444 2.13471 5.34325 2.4056 5.41148 2.4056C5.41148 2.47332 5.82091 2.33787 6.29858 2.13471Z" fill="#73C92D"/>
<path d="M10.4272 0.746432C10.4272 0.814153 10.8367 0.881875 11.2802 0.881875C11.7579 0.881875 12.1332 0.814153 12.1332 0.746432C12.1332 0.678711 12.0308 0.678711 11.6897 0.678711H11.2802H10.939C10.7002 0.678711 10.4272 0.746432 10.4272 0.746432Z" fill="#73C92D"/>
<path d="M16.8759 7.55256C16.2617 7.89116 16.0911 8.8054 16.4664 9.61805C16.8759 10.4646 17.7289 10.9386 18.343 10.6C18.9571 10.2614 19.1277 9.34717 18.7524 8.53452C18.343 7.688 17.49 7.21395 16.8759 7.55256Z" fill="#73C92D"/>
<path d="M20.7994 8.46617C20.5264 8.53389 20.3899 9.14338 20.5947 9.85446C20.7311 10.5655 21.1406 11.1073 21.3794 11.0396C21.6524 10.9719 21.7888 10.3624 21.5841 9.65129C21.4135 8.94022 21.0723 8.39845 20.7994 8.46617Z" fill="#73C92D"/>
<path d="M21.4135 13.3763C21.1405 13.3086 20.7311 13.8504 20.5605 14.5614C20.3558 15.2725 20.4922 15.882 20.7652 15.9497C21.0381 16.0175 21.4476 15.4757 21.6182 14.7646C21.7546 14.0874 21.6864 13.444 21.4135 13.3763Z" fill="#73C92D"/>
<path d="M19.8782 13.7822C20.4242 13.7822 20.7995 13.0711 20.7995 12.1907C20.7995 11.3103 20.39 10.667 19.8782 10.667C19.3323 10.667 18.957 11.3781 18.957 12.1907C18.957 13.0034 19.4006 13.7822 19.8782 13.7822Z" fill="#73C92D"/>
<path d="M22.0956 11.1416C21.8909 11.1416 21.7544 11.6834 21.7544 12.259C21.7544 12.9362 21.8909 13.4441 22.0956 13.4441C22.3003 13.4441 22.4368 12.9024 22.4368 12.3267C22.4027 11.6495 22.1979 11.1416 22.0956 11.1416Z" fill="#73C92D"/>
<path d="M12.8834 5.11433C12.5422 5.72382 12.9516 6.57033 13.8046 7.04438C14.6576 7.51843 15.6129 7.31526 15.92 6.70577C16.2271 6.09628 15.8517 5.24977 14.9988 4.77572C14.1458 4.36939 13.2246 4.50483 12.8834 5.11433Z" fill="#73C92D"/>
<path d="M15.3405 3.5227C15.1358 3.8613 15.477 4.43693 16.1252 4.91098C16.7735 5.38503 17.4559 5.45275 17.7288 5.18186C17.9336 4.84326 17.5924 4.26763 16.9441 3.79358C16.2958 3.31953 15.5452 3.25181 15.3405 3.5227Z" fill="#73C92D"/>
<path d="M20.015 8.16181C20.3562 7.95865 20.2197 7.24758 19.8103 6.57036C19.3326 5.89315 18.7526 5.58841 18.4796 5.79157C18.0702 5.99473 18.2067 6.70581 18.6161 7.38302C19.0938 8.02637 19.6738 8.36498 20.015 8.16181Z" fill="#73C92D"/>
<path d="M21.9592 9.2109C22.0957 9.14318 22.0274 8.66913 21.8227 8.0935C21.618 7.55173 21.2768 7.11154 21.1403 7.17926C21.0039 7.24698 21.0721 7.72103 21.2768 8.29666C21.4815 8.80457 21.8227 9.27862 21.9592 9.2109Z" fill="#73C92D"/>
<path d="M16.023 17.6091C15.6818 16.9996 14.7606 16.8303 13.9076 17.2705C13.0546 17.7446 12.6452 18.5911 12.9864 19.2006C13.3276 19.8101 14.2488 19.9794 15.1018 19.5392C15.9548 19.0651 16.3642 18.2186 16.023 17.6091Z" fill="#73C92D"/>
<path d="M20.6285 6.70524C20.765 6.56979 20.5603 6.09575 20.1508 5.58784C19.7414 5.04607 19.3661 4.74132 19.2296 4.87676C19.0931 5.01221 19.2978 5.48626 19.7073 5.99416C20.0826 6.50207 20.492 6.77296 20.6285 6.70524Z" fill="#73C92D"/>
<path d="M16.2277 19.403C15.5453 19.8771 15.2382 20.4527 15.4429 20.7913C15.6476 21.1299 16.3641 20.9945 16.9783 20.5204C17.6607 20.0464 17.9677 19.4707 17.763 19.1321C17.6265 18.8613 16.8759 18.9967 16.2277 19.403Z" fill="#73C92D"/>
<path d="M19.6736 18.3875C19.2642 18.9293 19.0594 19.3695 19.1959 19.5049C19.3324 19.6404 19.8101 19.3018 20.1171 18.7939C20.5266 18.2521 20.7313 17.8119 20.5948 17.6765C20.4924 17.541 20.083 17.8796 19.6736 18.3875Z" fill="#73C92D"/>
<path d="M19.537 4.30161C19.4688 4.36933 19.6735 4.70793 20.0147 5.14812C20.3559 5.55445 20.6971 5.85919 20.6971 5.82533C20.7994 5.68989 19.7417 4.23388 19.537 4.30161Z" fill="#73C92D"/>
<path d="M13.805 1.93132C13.0885 1.72815 12.4744 1.86359 12.4062 2.13448C12.3379 2.40536 12.8838 2.81169 13.6003 2.91327C14.3168 3.11644 14.931 2.98099 14.9992 2.71011C15.0674 2.43922 14.5557 2.13448 13.805 1.93132Z" fill="#73C92D"/>
<path d="M17.9335 3.38791C17.3876 2.98158 16.944 2.77841 16.8076 2.91386C16.6711 3.0493 17.0123 3.45563 17.5241 3.82809C18.07 4.23442 18.5135 4.43758 18.65 4.30214C18.8206 4.20056 18.4794 3.79423 17.9335 3.38791Z" fill="#73C92D"/>
<path d="M13.7366 21.3005C13.0201 21.5036 12.4741 21.8422 12.5424 22.0792C12.6106 22.3501 13.2248 22.4179 13.9413 22.2824C14.6237 22.0792 15.2037 21.7406 15.1354 21.5036C15.1013 21.2327 14.4189 21.0973 13.7366 21.3005Z" fill="#73C92D"/>
<path d="M18.7522 19.9788C18.6157 19.8434 18.138 20.0465 17.6262 20.4528C17.0803 20.8592 16.7732 21.2316 16.9097 21.3671C16.978 21.4348 17.2509 21.3671 17.5239 21.2316C17.8651 21.0285 18.0698 20.8253 18.3086 20.6222C18.6157 20.3851 18.8204 20.1142 18.7522 19.9788Z" fill="#73C92D"/>
<path d="M15.2039 2.27014C15.7498 2.4733 16.2616 2.54102 16.3299 2.40558C16.3981 2.27014 15.9204 1.99925 15.4086 1.72837C14.7945 1.5252 14.351 1.45748 14.2827 1.59293C14.2827 1.72837 14.6921 2.06697 15.2039 2.27014Z" fill="#73C92D"/>
<path d="M18.2746 3.45501C18.684 3.79361 19.0593 3.99677 19.1276 3.92905C19.1958 3.86133 18.8546 3.52273 18.4452 3.21798C18.0358 2.87937 17.6604 2.67621 17.5922 2.74393C17.5581 2.77779 17.8993 3.1164 18.2746 3.45501Z" fill="#73C92D"/>
<path d="M15.3403 21.9769C14.7944 22.1801 14.3508 22.5187 14.4191 22.6541L16.5003 21.8076C16.5003 21.6383 15.9544 21.7061 15.3403 21.9769Z" fill="#73C92D"/>
<path d="M15.3403 21.9769C14.7944 22.1801 14.3508 22.5187 14.4191 22.6541C14.4873 22.7896 16.5003 21.9431 16.5003 21.8076C16.5344 21.6383 15.9544 21.7061 15.3403 21.9769Z" fill="#73C92D"/>
<path d="M13.0886 1.35619C13.6345 1.42391 14.078 1.42391 14.078 1.35619C14.078 1.28847 13.6686 1.15303 13.0886 1.01759C12.5427 0.949867 12.0991 0.949867 12.0991 1.01759C12.1674 1.08531 12.5427 1.22075 13.0886 1.35619Z" fill="#73C92D"/>
<path d="M16.3638 2.13471C16.8415 2.33787 17.2168 2.47332 17.2168 2.47332C17.2168 2.4056 16.8756 2.20243 16.4321 1.93155C15.9544 1.66066 15.5791 1.52522 15.5791 1.59294C15.5791 1.66066 15.8862 1.86383 16.3638 2.13471Z" fill="#73C92D"/>
<path d="M14.3511 1.2207C14.624 1.35614 14.897 1.35614 15.1358 1.35614C15.1358 1.28842 13.6687 0.814369 13.5322 0.88209C13.8052 1.08525 14.0781 1.15297 14.3511 1.2207Z" fill="#73C92D"/>
<path d="M22.1982 10.3967C22.1299 9.85496 22.1299 9.41477 22.1982 9.41477C22.4029 9.34705 22.6076 11.3448 22.5393 11.4125C22.4711 11.3787 22.2664 10.9385 22.1982 10.3967Z" fill="#73C92D"/>
<path d="M7.21962 21.9769C7.76553 22.1801 8.20907 22.5187 8.14084 22.6542C8.0726 22.7896 6.05957 21.9431 6.05957 21.8076C6.09369 21.6383 6.67371 21.7738 7.21962 21.9769Z" fill="#73C92D"/>
<path d="M13.4298 22.8233C13.7028 22.7556 13.9757 22.6879 14.2828 22.7556C14.2828 22.8233 12.7474 23.1619 12.6792 23.0942C12.8839 22.891 13.1569 22.8233 13.4298 22.8233Z" fill="#73C92D"/>
<path d="M9.30116 22.8233C9.02821 22.7556 8.75525 22.6879 8.41406 22.7556C8.41406 22.8233 9.94942 23.1619 10.0177 23.0942C9.81295 22.891 9.53999 22.8233 9.30116 22.8233Z" fill="#73C92D"/>
<path d="M11.3486 6.84131C10.3591 6.84131 9.47205 7.6201 9.40381 8.63592C9.47205 9.6856 10.325 10.4983 11.4168 10.4983C12.4063 10.4305 13.2251 9.65174 13.2934 8.63592C13.2251 7.6201 12.3381 6.84131 11.3486 6.84131Z" fill="white"/>
<path d="M5.68472 16.8645C6.29886 16.5259 6.46946 15.6117 6.09415 14.799C5.68472 14.0203 4.83174 13.4785 4.21759 13.7494C3.60345 14.088 3.43285 15.0022 3.8764 15.8149C4.28583 16.6952 5.10469 17.1354 5.68472 16.8645Z" fill="white"/>
<path d="M7.83393 14.0876C8.89162 14.0199 9.71048 13.1734 9.64224 12.1576C9.71048 11.1079 8.8575 10.2275 7.83393 10.2275C6.77623 10.2953 5.95738 11.1418 6.02561 12.1576C5.95738 13.2411 6.74212 14.0876 7.83393 14.0876Z" fill="white"/>
<path d="M2.54592 16.2209C2.20473 16.4241 2.3412 17.1352 2.75063 17.8124C3.2283 18.4896 3.80832 18.7943 4.14951 18.5912C4.49071 18.388 4.35423 17.6769 3.9448 16.9997C3.50125 16.3564 2.88711 16.0178 2.54592 16.2209Z" fill="white"/>
<path d="M16.8755 16.8642C17.5579 17.2028 18.3427 16.7287 18.7521 15.8822C19.1615 15.0357 19.025 14.0876 18.3427 13.8167C17.7285 13.4781 16.8755 13.9522 16.4661 14.7987C16.0908 15.6113 16.2955 16.5594 16.8755 16.8642Z" fill="white"/>
<path d="M14.8286 14.0875C15.8862 14.0198 16.7051 13.1733 16.6369 12.1575C16.7051 11.1755 15.9545 10.2951 14.965 10.2274C13.9756 10.1597 13.0885 10.9046 13.0202 11.8866C13.0202 11.9543 13.0202 12.0898 13.0202 12.1575C12.952 13.241 13.7367 14.0875 14.8286 14.0875Z" fill="white"/>
<path d="M19.8099 17.8124C20.2875 17.1352 20.3558 16.4918 20.0146 16.2209C19.6734 16.0178 19.0934 16.3564 18.6157 16.9997C18.138 17.6769 18.0698 18.3203 18.411 18.5912C18.7522 18.7943 19.3663 18.4557 19.8099 17.8124Z" fill="white"/>
<path d="M21.0725 17.2705C20.936 17.2027 21.0042 16.7287 21.2089 16.1531C21.4137 15.6113 21.7549 15.1711 21.8913 15.2388C22.1984 15.4759 21.2772 17.4059 21.0725 17.2705Z" fill="#73C92D"/>
<path d="M1.41969 6.43506C1.14673 6.90911 0.873781 7.34929 0.737305 7.89106C0.873781 7.6879 1.01026 7.41702 1.14673 7.21385C1.28321 6.97683 1.35145 6.70594 1.41969 6.43506Z" fill="#73C92D"/>
<path d="M21.1406 6.43506C21.4136 6.90911 21.6865 7.34929 21.823 7.89106C21.6865 7.6879 21.5501 7.41702 21.4136 7.21385C21.3453 6.97683 21.2089 6.70594 21.1406 6.43506Z" fill="#73C92D"/>
<path d="M8.20954 1.2207C7.97071 1.35614 7.69776 1.35614 7.4248 1.35614C7.4248 1.28842 8.89193 0.814369 9.0284 0.88209C8.75545 1.08525 8.55074 1.15297 8.20954 1.2207Z" fill="#73C92D"/>
<path d="M3.02306 4.30161C3.0913 4.36933 2.88659 4.77565 2.5454 5.14812C2.2042 5.52059 1.86301 5.85919 1.86301 5.82533C1.76066 5.68989 2.88659 4.23388 3.02306 4.30161Z" fill="#73C92D"/>
<path d="M3.87622 8.53452C3.39855 9.31331 3.60327 10.2614 4.21741 10.6C4.83155 10.9386 5.68453 10.4646 6.09396 9.61805C6.50339 8.77154 6.36691 7.82344 5.68453 7.55256C5.10451 7.21395 4.28565 7.688 3.87622 8.53452Z" fill="#73C92D"/>
<path d="M1.21519 11.0734C1.48815 11.1412 1.89758 10.5994 1.99993 9.88832C2.17053 9.14338 2.10229 8.53389 1.82934 8.46617C1.55638 8.39845 1.14696 8.94022 1.0446 9.65129C0.839883 10.3962 0.942241 11.0734 1.21519 11.0734Z" fill="#73C92D"/>
<path d="M11.3486 17.4062C12.3381 17.3384 13.1569 16.4919 13.0887 15.4761C13.0204 14.4603 12.1675 13.7154 11.1439 13.7831C10.2227 13.8508 9.40381 14.6296 9.40381 15.5777C9.43793 16.6274 10.2909 17.4739 11.3486 17.4062Z" fill="#73C92D"/>
<path d="M2.03413 14.5614C1.82942 13.8504 1.48823 13.3086 1.18116 13.3763C0.908203 13.444 0.839965 14.0874 0.976441 14.7646C1.18116 15.4757 1.52235 16.0175 1.82942 15.9497C2.17061 15.882 2.23885 15.2387 2.03413 14.5614Z" fill="#73C92D"/>
<path d="M1.8291 12.1907C1.8291 13.0372 2.23853 13.7822 2.75032 13.7822C3.2621 13.7822 3.67153 13.0711 3.67153 12.1907C3.67153 11.3103 3.29622 10.667 2.75032 10.667C2.23853 10.667 1.8291 11.3781 1.8291 12.1907Z" fill="#73C92D"/>
<path d="M0.566777 11.1416C0.362062 11.1416 0.225586 11.6834 0.225586 12.259C0.225586 12.8685 0.362062 13.4441 0.566777 13.4441C0.771492 13.4441 0.907968 12.9024 0.907968 12.259C0.907968 11.5818 0.703254 11.1416 0.566777 11.1416Z" fill="#73C92D"/>
<path d="M6.67397 6.70594C7.01516 7.31543 7.93637 7.48473 8.78935 7.04454C9.64233 6.60436 10.0518 5.72398 9.71057 5.11449C9.36938 4.505 8.44816 4.3357 7.59518 4.77588C6.7422 5.21607 6.36689 6.09645 6.67397 6.70594Z" fill="#73C92D"/>
<path d="M5.68469 3.79358C5.00231 4.26763 4.69524 4.84326 4.89995 5.18186C5.10467 5.52047 5.82117 5.38503 6.50355 4.91098C7.18594 4.43693 7.49301 3.8613 7.28829 3.5227C7.01534 3.25181 6.36708 3.31953 5.68469 3.79358Z" fill="#73C92D"/>
<path d="M2.81835 6.57036C2.34068 7.24758 2.27244 7.95865 2.61364 8.16181C2.95483 8.36498 3.53485 8.02637 4.01252 7.38302C4.42195 6.70581 4.49019 5.99473 4.21723 5.79157C3.87604 5.58841 3.29602 5.89315 2.81835 6.57036Z" fill="#73C92D"/>
<path d="M0.703327 9.21137C0.839804 9.27909 1.11276 8.87276 1.38571 8.29713C1.59042 7.68764 1.65866 7.24746 1.52219 7.17973C1.38571 7.11201 1.04452 7.51834 0.839804 8.09397C0.635089 8.6696 0.566851 9.14365 0.703327 9.21137Z" fill="#73C92D"/>
<path d="M9.60797 19.2003C9.94916 18.5908 9.53973 17.7443 8.68675 17.2702C7.83378 16.7962 6.87844 16.9993 6.57137 17.6088C6.23018 18.2183 6.63961 19.0648 7.49259 19.5389C8.34556 19.9791 9.3009 19.7759 9.60797 19.2003Z" fill="#73C92D"/>
<path d="M1.55593 17.2705C1.62417 17.2027 1.55593 16.7287 1.35121 16.1531C1.1465 15.6113 0.805306 15.1711 0.66883 15.2388C0.361758 15.4759 1.28297 17.4059 1.55593 17.2705Z" fill="#73C92D"/>
<path d="M2.95502 5.96037C3.36445 5.4186 3.56917 4.91069 3.43269 4.84297C3.29621 4.70753 2.81854 5.04613 2.51147 5.55404C2.10204 6.09581 1.89733 6.536 2.03381 6.67144C2.17028 6.77302 2.54559 6.50214 2.95502 5.96037Z" fill="#73C92D"/>
<path d="M9.74463 3.65838C9.74463 4.20015 10.427 4.57261 11.28 4.57261C12.2012 4.50489 12.8836 4.09856 12.8836 3.65838C12.8836 3.21819 12.2012 2.74414 11.3482 2.74414C10.4952 2.74414 9.74463 3.11661 9.74463 3.65838Z" fill="#73C92D"/>
<path d="M6.36708 19.4034C5.68469 18.9294 5.03643 18.8617 4.83172 19.1326C4.627 19.4712 4.96819 20.0468 5.61646 20.5208C6.29884 20.9949 6.9471 21.0626 7.22006 20.7917C7.35653 20.4531 7.01534 19.8436 6.36708 19.4034Z" fill="#73C92D"/>
<path d="M1.96545 17.6087C1.82897 17.7442 2.03368 18.2182 2.44311 18.7261C2.85254 19.2341 3.22785 19.5727 3.36433 19.4372C3.50081 19.3695 3.29609 18.8277 2.88666 18.3198C2.54547 17.8796 2.17016 17.541 1.96545 17.6087Z" fill="#73C92D"/>
<path d="M12.8837 20.6564C12.8837 20.1147 12.1672 19.7422 11.3483 19.7422C10.5295 19.7422 9.81299 20.1485 9.81299 20.6564C9.81299 21.1982 10.4954 21.5707 11.3483 21.5707C12.2013 21.5707 12.8837 21.1643 12.8837 20.6564Z" fill="#73C92D"/>
<path d="M8.7556 1.93149C8.0391 2.13465 7.49319 2.47326 7.56143 2.71028C7.62967 2.98117 8.27793 3.04889 8.96031 2.91345C9.67681 2.71028 10.2227 2.37168 10.1545 2.13465C10.0862 1.86377 9.4721 1.79605 8.7556 1.93149Z" fill="#73C92D"/>
<path d="M4.69503 3.38791C4.14912 3.72651 3.84205 4.1667 3.91029 4.30214C4.04677 4.43758 4.52443 4.23442 5.03622 3.82809C5.58213 3.42177 5.8892 3.0493 5.75272 2.91386C5.68448 2.77841 5.1727 2.98158 4.69503 3.38791Z" fill="#73C92D"/>
<path d="M8.89195 21.3005C8.17545 21.0973 7.56131 21.2327 7.49307 21.5036C7.42483 21.7745 7.97074 22.1808 8.68724 22.2824C9.40374 22.4856 10.0179 22.3501 10.0861 22.0793C10.1544 21.8422 9.54022 21.5036 8.89195 21.3005Z" fill="#73C92D"/>
<path d="M5.75286 21.3671C5.88933 21.2316 5.54814 20.8253 5.03636 20.4528C4.49045 20.0465 4.0469 19.8434 3.91042 19.9788C3.77395 20.1142 3.97866 20.3851 4.31985 20.656C4.59281 20.8592 4.86576 21.0623 5.10459 21.2655C5.41167 21.4348 5.68462 21.5025 5.75286 21.3671Z" fill="#73C92D"/>
<path d="M10.1543 1.45726C10.1543 1.66042 10.7002 1.79586 11.2802 1.79586C11.8603 1.79586 12.4062 1.66042 12.4062 1.45726C12.4062 1.25409 11.8603 1.11865 11.2802 1.11865C10.7002 1.15251 10.1543 1.35568 10.1543 1.45726Z" fill="#73C92D"/>
<path d="M6.23047 2.47345C6.29871 2.60889 6.77637 2.54117 7.3564 2.33801C7.97054 2.13485 8.34585 1.79624 8.27762 1.6608C8.20938 1.52535 7.73171 1.59308 7.15168 1.79624C6.60578 1.9994 6.23047 2.33801 6.23047 2.47345Z" fill="#73C92D"/>
<path d="M4.35387 3.45541C4.7633 3.1168 5.07037 2.77819 5.03625 2.74433C4.96802 2.67661 4.55859 2.9475 4.18328 3.2861C3.80797 3.62471 3.46678 3.96332 3.50089 3.99718C3.56913 3.99718 3.8762 3.79401 4.35387 3.45541Z" fill="#73C92D"/>
<path d="M12.474 22.7556C12.474 22.5524 11.9281 22.417 11.3481 22.417C10.6657 22.417 10.2222 22.5524 10.2222 22.7556C10.2222 22.9588 10.7681 23.0942 11.3481 23.0942H11.5528C12.0987 23.0265 12.474 22.9588 12.474 22.7556Z" fill="#73C92D"/>
<path d="M22.1641 14.9003C22.1641 15.0357 22.6417 13.038 22.5053 13.1057C22.3688 13.3766 22.2323 13.7152 22.2323 14.0199C22.1641 14.2908 22.1641 14.6294 22.1641 14.9003Z" fill="#73C92D"/>
<path d="M9.47176 1.35619C10.0177 1.28847 10.4612 1.15303 10.393 1.01759C10.393 0.949867 9.9153 0.949867 9.40352 1.01759C8.89173 1.08531 8.41406 1.22075 8.41406 1.35619C8.4823 1.39005 8.95997 1.39005 9.47176 1.35619Z" fill="#73C92D"/>
<path d="M6.29858 2.13471C6.77625 1.93155 7.08332 1.66066 7.08332 1.59294C7.08332 1.52522 6.67389 1.66066 6.23034 1.93155C5.68444 2.13471 5.34325 2.4056 5.41148 2.4056C5.41148 2.47332 5.82091 2.33787 6.29858 2.13471Z" fill="#73C92D"/>
<path d="M10.4272 0.746432C10.4272 0.814153 10.8367 0.881875 11.2802 0.881875C11.7579 0.881875 12.1332 0.814153 12.1332 0.746432C12.1332 0.678711 12.0308 0.678711 11.6897 0.678711H11.2802H10.939C10.7002 0.678711 10.4272 0.746432 10.4272 0.746432Z" fill="#73C92D"/>
<path d="M16.8759 7.55256C16.2617 7.89116 16.0911 8.8054 16.4664 9.61805C16.8759 10.4646 17.7289 10.9386 18.343 10.6C18.9571 10.2614 19.1277 9.34717 18.7524 8.53452C18.343 7.688 17.49 7.21395 16.8759 7.55256Z" fill="#73C92D"/>
<path d="M20.7994 8.46617C20.5264 8.53389 20.3899 9.14338 20.5947 9.85446C20.7311 10.5655 21.1406 11.1073 21.3794 11.0396C21.6524 10.9719 21.7888 10.3624 21.5841 9.65129C21.4135 8.94022 21.0723 8.39845 20.7994 8.46617Z" fill="#73C92D"/>
<path d="M21.4135 13.3763C21.1405 13.3086 20.7311 13.8504 20.5605 14.5614C20.3558 15.2725 20.4922 15.882 20.7652 15.9497C21.0381 16.0175 21.4476 15.4757 21.6182 14.7646C21.7546 14.0874 21.6864 13.444 21.4135 13.3763Z" fill="#73C92D"/>
<path d="M19.8782 13.7822C20.4242 13.7822 20.7995 13.0711 20.7995 12.1907C20.7995 11.3103 20.39 10.667 19.8782 10.667C19.3323 10.667 18.957 11.3781 18.957 12.1907C18.957 13.0034 19.4006 13.7822 19.8782 13.7822Z" fill="#73C92D"/>
<path d="M22.0956 11.1416C21.8909 11.1416 21.7544 11.6834 21.7544 12.259C21.7544 12.9362 21.8909 13.4441 22.0956 13.4441C22.3003 13.4441 22.4368 12.9024 22.4368 12.3267C22.4027 11.6495 22.1979 11.1416 22.0956 11.1416Z" fill="#73C92D"/>
<path d="M12.8834 5.11433C12.5422 5.72382 12.9516 6.57033 13.8046 7.04438C14.6576 7.51843 15.6129 7.31526 15.92 6.70577C16.2271 6.09628 15.8517 5.24977 14.9988 4.77572C14.1458 4.36939 13.2246 4.50483 12.8834 5.11433Z" fill="#73C92D"/>
<path d="M15.3405 3.5227C15.1358 3.8613 15.477 4.43693 16.1252 4.91098C16.7735 5.38503 17.4559 5.45275 17.7288 5.18186C17.9336 4.84326 17.5924 4.26763 16.9441 3.79358C16.2958 3.31953 15.5452 3.25181 15.3405 3.5227Z" fill="#73C92D"/>
<path d="M20.015 8.16181C20.3562 7.95865 20.2197 7.24758 19.8103 6.57036C19.3326 5.89315 18.7526 5.58841 18.4796 5.79157C18.0702 5.99473 18.2067 6.70581 18.6161 7.38302C19.0938 8.02637 19.6738 8.36498 20.015 8.16181Z" fill="#73C92D"/>
<path d="M21.9592 9.2109C22.0957 9.14318 22.0274 8.66913 21.8227 8.0935C21.618 7.55173 21.2768 7.11154 21.1403 7.17926C21.0039 7.24698 21.0721 7.72103 21.2768 8.29666C21.4815 8.80457 21.8227 9.27862 21.9592 9.2109Z" fill="#73C92D"/>
<path d="M16.023 17.6091C15.6818 16.9996 14.7606 16.8303 13.9076 17.2705C13.0546 17.7446 12.6452 18.5911 12.9864 19.2006C13.3276 19.8101 14.2488 19.9794 15.1018 19.5392C15.9548 19.0651 16.3642 18.2186 16.023 17.6091Z" fill="#73C92D"/>
<path d="M20.6285 6.70524C20.765 6.56979 20.5603 6.09575 20.1508 5.58784C19.7414 5.04607 19.3661 4.74132 19.2296 4.87676C19.0931 5.01221 19.2978 5.48626 19.7073 5.99416C20.0826 6.50207 20.492 6.77296 20.6285 6.70524Z" fill="#73C92D"/>
<path d="M16.2277 19.403C15.5453 19.8771 15.2382 20.4527 15.4429 20.7913C15.6476 21.1299 16.3641 20.9945 16.9783 20.5204C17.6607 20.0464 17.9677 19.4707 17.763 19.1321C17.6265 18.8613 16.8759 18.9967 16.2277 19.403Z" fill="#73C92D"/>
<path d="M19.6736 18.3875C19.2642 18.9293 19.0594 19.3695 19.1959 19.5049C19.3324 19.6404 19.8101 19.3018 20.1171 18.7939C20.5266 18.2521 20.7313 17.8119 20.5948 17.6765C20.4924 17.541 20.083 17.8796 19.6736 18.3875Z" fill="#73C92D"/>
<path d="M19.537 4.30161C19.4688 4.36933 19.6735 4.70793 20.0147 5.14812C20.3559 5.55445 20.6971 5.85919 20.6971 5.82533C20.7994 5.68989 19.7417 4.23388 19.537 4.30161Z" fill="#73C92D"/>
<path d="M13.805 1.93132C13.0885 1.72815 12.4744 1.86359 12.4062 2.13448C12.3379 2.40536 12.8838 2.81169 13.6003 2.91327C14.3168 3.11644 14.931 2.98099 14.9992 2.71011C15.0674 2.43922 14.5557 2.13448 13.805 1.93132Z" fill="#73C92D"/>
<path d="M17.9335 3.38791C17.3876 2.98158 16.944 2.77841 16.8076 2.91386C16.6711 3.0493 17.0123 3.45563 17.5241 3.82809C18.07 4.23442 18.5135 4.43758 18.65 4.30214C18.8206 4.20056 18.4794 3.79423 17.9335 3.38791Z" fill="#73C92D"/>
<path d="M13.7366 21.3005C13.0201 21.5036 12.4741 21.8422 12.5424 22.0792C12.6106 22.3501 13.2248 22.4179 13.9413 22.2824C14.6237 22.0792 15.2037 21.7406 15.1354 21.5036C15.1013 21.2327 14.4189 21.0973 13.7366 21.3005Z" fill="#73C92D"/>
<path d="M18.7522 19.9788C18.6157 19.8434 18.138 20.0465 17.6262 20.4528C17.0803 20.8592 16.7732 21.2316 16.9097 21.3671C16.978 21.4348 17.2509 21.3671 17.5239 21.2316C17.8651 21.0285 18.0698 20.8253 18.3086 20.6222C18.6157 20.3851 18.8204 20.1142 18.7522 19.9788Z" fill="#73C92D"/>
<path d="M15.2039 2.27014C15.7498 2.4733 16.2616 2.54102 16.3299 2.40558C16.3981 2.27014 15.9204 1.99925 15.4086 1.72837C14.7945 1.5252 14.351 1.45748 14.2827 1.59293C14.2827 1.72837 14.6921 2.06697 15.2039 2.27014Z" fill="#73C92D"/>
<path d="M18.2746 3.45501C18.684 3.79361 19.0593 3.99677 19.1276 3.92905C19.1958 3.86133 18.8546 3.52273 18.4452 3.21798C18.0358 2.87937 17.6604 2.67621 17.5922 2.74393C17.5581 2.77779 17.8993 3.1164 18.2746 3.45501Z" fill="#73C92D"/>
<path d="M15.3403 21.9769C14.7944 22.1801 14.3508 22.5187 14.4191 22.6541L16.5003 21.8076C16.5003 21.6383 15.9544 21.7061 15.3403 21.9769Z" fill="#73C92D"/>
<path d="M15.3403 21.9769C14.7944 22.1801 14.3508 22.5187 14.4191 22.6541C14.4873 22.7896 16.5003 21.9431 16.5003 21.8076C16.5344 21.6383 15.9544 21.7061 15.3403 21.9769Z" fill="#73C92D"/>
<path d="M13.0886 1.35619C13.6345 1.42391 14.078 1.42391 14.078 1.35619C14.078 1.28847 13.6686 1.15303 13.0886 1.01759C12.5427 0.949867 12.0991 0.949867 12.0991 1.01759C12.1674 1.08531 12.5427 1.22075 13.0886 1.35619Z" fill="#73C92D"/>
<path d="M16.3638 2.13471C16.8415 2.33787 17.2168 2.47332 17.2168 2.47332C17.2168 2.4056 16.8756 2.20243 16.4321 1.93155C15.9544 1.66066 15.5791 1.52522 15.5791 1.59294C15.5791 1.66066 15.8862 1.86383 16.3638 2.13471Z" fill="#73C92D"/>
<path d="M14.3511 1.2207C14.624 1.35614 14.897 1.35614 15.1358 1.35614C15.1358 1.28842 13.6687 0.814369 13.5322 0.88209C13.8052 1.08525 14.0781 1.15297 14.3511 1.2207Z" fill="#73C92D"/>
<path d="M22.1982 10.3967C22.1299 9.85496 22.1299 9.41477 22.1982 9.41477C22.4029 9.34705 22.6076 11.3448 22.5393 11.4125C22.4711 11.3787 22.2664 10.9385 22.1982 10.3967Z" fill="#73C92D"/>
<path d="M7.21962 21.9769C7.76553 22.1801 8.20907 22.5187 8.14084 22.6542C8.0726 22.7896 6.05957 21.9431 6.05957 21.8076C6.09369 21.6383 6.67371 21.7738 7.21962 21.9769Z" fill="#73C92D"/>
<path d="M13.4298 22.8233C13.7028 22.7556 13.9757 22.6879 14.2828 22.7556C14.2828 22.8233 12.7474 23.1619 12.6792 23.0942C12.8839 22.891 13.1569 22.8233 13.4298 22.8233Z" fill="#73C92D"/>
<path d="M9.30116 22.8233C9.02821 22.7556 8.75525 22.6879 8.41406 22.7556C8.41406 22.8233 9.94942 23.1619 10.0177 23.0942C9.81295 22.891 9.53999 22.8233 9.30116 22.8233Z" fill="#73C92D"/>
<path d="M127.967 9.21169C128.82 8.9408 129.776 9.34713 130.049 10.1936C130.185 10.5323 130.185 10.9047 130.049 11.2433C129.912 11.7174 129.503 12.0898 129.059 12.2253C128.206 12.4962 127.251 12.0898 126.978 11.2433C126.841 10.9047 126.841 10.5323 126.978 10.1936C127.148 9.75346 127.49 9.34713 127.967 9.21169ZM128.172 12.056C128.889 12.2591 129.639 11.7851 129.844 11.074C130.049 10.3629 129.571 9.61801 128.854 9.41485C128.138 9.21169 127.387 9.68574 127.183 10.3968C127.114 10.6 127.114 10.8709 127.183 11.074C127.353 11.5142 127.694 11.9205 128.172 12.056ZM127.899 9.82118H128.616C129.093 9.82118 129.298 10.0243 129.298 10.3629C129.298 10.6338 129.161 10.837 128.889 10.9047L129.366 11.6835H129.025L128.547 10.9724H128.274V11.6835H127.933L127.899 9.82118ZM128.24 10.6H128.513C128.718 10.6 128.991 10.6 128.991 10.3291C128.991 10.0582 128.718 10.0582 128.513 10.0582H128.24V10.6Z" fill="white"/>
<path d="M36.9378 3.04873L45.2629 21.0964C45.3311 21.2319 45.2629 21.3673 45.1264 21.435C45.0582 21.435 45.0582 21.435 44.9899 21.435H43.0451C42.9087 21.435 42.8404 21.3673 42.7722 21.2996L40.9297 17.2702C40.8615 17.2025 40.7933 17.1347 40.6568 17.1347H32.6047C32.4682 17.1347 32.4 17.2025 32.3317 17.2702L30.4552 21.2996C30.3869 21.3673 30.3187 21.435 30.1822 21.435H28.3057C28.1692 21.435 28.0327 21.2996 28.0327 21.1642C28.0327 21.0964 28.0327 21.0964 28.0327 21.0287L36.4601 3.04873C36.5284 2.91329 36.6649 2.84556 36.8013 2.91329C36.8696 2.98101 36.9378 3.04873 36.9378 3.04873ZM39.872 14.6968L36.9378 8.36484C36.8696 8.2294 36.7331 8.16168 36.5966 8.2294C36.5284 8.2294 36.4601 8.29712 36.4601 8.36484L33.5259 14.6968C33.4577 14.8322 33.5259 14.9677 33.6624 15.0354C33.6624 15.0354 33.7306 15.0354 33.7988 15.0354H39.6673C39.8038 15.0354 39.9403 14.8999 39.9403 14.7645C39.872 14.7645 39.872 14.6968 39.872 14.6968Z" fill="white"/>
<path d="M47.6852 4.97904L49.4253 4.13252C49.5617 4.0648 49.6982 4.13252 49.7664 4.26797C49.7664 4.33569 49.7664 4.33569 49.7664 4.40341V21.3337C49.7664 21.4692 49.63 21.6046 49.4935 21.6046H47.7534C47.6169 21.6046 47.4805 21.4692 47.4805 21.3337V5.1822C47.5487 5.11448 47.5487 4.97904 47.6852 4.97904Z" fill="white"/>
<path d="M52.8712 2.54105L54.6113 1.69454C54.7478 1.62681 54.8842 1.69454 54.9525 1.82998C54.9525 1.8977 54.9525 1.8977 54.9525 1.96542V21.266C54.9525 21.4014 54.816 21.5368 54.6795 21.5368H52.9395C52.803 21.5368 52.6665 21.4014 52.6665 21.266V2.77808C52.7347 2.67649 52.803 2.60877 52.8712 2.54105Z" fill="white"/>
<path d="M63.9942 12.5302C63.8577 12.5979 63.7212 12.5979 63.653 12.5302C63.0389 11.853 62.2541 11.5482 61.4012 11.5482C60.3435 11.5482 59.3881 12.0223 59.3881 12.8688C59.3881 14.2571 61.4011 14.4602 62.3906 14.7311C64.3354 15.2052 65.8708 15.9162 65.8708 18.1849C65.8708 20.826 63.4142 21.8757 61.06 21.8757C59.1834 21.8757 57.7845 21.4017 56.6586 20.0134C56.5904 19.8779 56.5904 19.7425 56.7268 19.6748L58.0575 18.6251C58.194 18.5574 58.3304 18.5574 58.3987 18.6251C59.081 19.3023 59.934 19.8779 61.1282 19.8779C62.2541 19.8779 63.5165 19.4039 63.5165 18.4219C63.5165 17.1014 61.64 16.8305 60.6505 16.6273C58.7057 16.1533 57.068 15.5776 57.068 13.2412C57.068 10.8033 59.3199 9.61816 61.5376 9.61816C63.0047 9.61816 64.5401 10.0922 65.4613 11.3451C65.5296 11.4805 65.5296 11.6159 65.3931 11.6837L63.9942 12.5302Z" fill="white"/>
<path d="M76.5841 12.6994C76.4476 12.7671 76.3112 12.7671 76.2429 12.6994C75.5264 11.9883 74.5028 11.5143 73.4452 11.582C70.9886 11.582 69.7944 13.5798 69.7944 15.7469C69.7944 17.9139 71.2615 19.7086 73.5816 19.7086C74.5711 19.7763 75.5947 19.3022 76.2429 18.5912C76.3112 18.4557 76.5159 18.4557 76.6523 18.5912L77.8465 19.7763C77.9148 19.9117 77.9148 20.0472 77.8465 20.1149C76.7206 21.2323 75.2535 21.7063 73.6499 21.7741C70.238 21.8418 67.3719 19.1329 67.3037 15.6791V15.6114C67.3037 11.9883 69.7603 9.38108 73.5134 9.38108C75.117 9.31336 76.7206 9.92285 77.8465 11.0402C77.983 11.1757 77.983 11.3111 77.8465 11.4466L76.5841 12.6994Z" fill="white"/>
<path d="M80.3711 9.75413H82.1112C82.2476 9.75413 82.3841 9.88958 82.3841 10.025V11.5149H82.4524C83.0665 10.262 84.5336 9.41553 86.0007 9.41553C86.2737 9.41553 86.5467 9.41553 86.7855 9.48325C86.922 9.48325 86.9902 9.61869 86.9902 9.75413L86.922 11.6842C86.922 11.8196 86.7855 11.9551 86.649 11.9551C86.649 11.9551 86.649 11.9551 86.5808 11.9551C86.3078 11.8874 86.0349 11.8874 85.796 11.8874C83.6124 11.8874 82.3841 13.0725 82.3841 15.6459V21.2667C82.3841 21.4022 82.2476 21.5376 82.1112 21.5376H80.3711C80.2346 21.5376 80.0981 21.4022 80.0981 21.2667V9.99116C80.1323 9.85572 80.2687 9.75413 80.3711 9.75413Z" fill="white"/>
<path d="M89.7197 3.99717C90.5727 3.72629 91.5281 4.20034 91.801 4.97913C92.074 5.82565 91.5963 6.77374 90.8116 7.04463C89.9586 7.31551 89.0032 6.84146 88.7303 6.06267C88.5938 5.72406 88.5938 5.3516 88.7303 5.01299C88.8326 4.50508 89.2421 4.13262 89.7197 3.99717ZM89.3785 9.75347H91.1186C91.2551 9.75347 91.3916 9.88892 91.3916 10.0244V21.2661C91.3916 21.4015 91.2551 21.537 91.1186 21.537H89.3785C89.2421 21.537 89.1056 21.4015 89.1056 21.2661V9.9905C89.1056 9.85506 89.2421 9.75347 89.3785 9.75347Z" fill="white"/>
<path d="M94.3942 9.75379H96.1342C96.2707 9.75379 96.4072 9.88924 96.4072 10.0247V11.4807H96.4754C97.3284 10.2278 99.0003 9.48291 100.604 9.48291C104.255 9.48291 106.609 12.1918 106.609 15.6455C106.609 19.167 104.22 21.8082 100.604 21.8082C98.932 21.8082 97.2602 21.0294 96.4754 19.8104H96.4072V26.0407C96.4072 26.1085 96.339 26.2439 96.2707 26.2439L94.5306 27.0904C94.3942 27.1581 94.2577 27.0904 94.1895 26.955C94.1895 26.8873 94.1895 26.8873 94.1895 26.8195V9.99082C94.1895 9.85538 94.2577 9.75379 94.3942 9.75379ZM96.3731 15.2392C96.2366 17.8126 97.772 19.7427 100.297 19.675C102.378 19.6072 104.016 18.0158 104.152 15.9841C104.289 13.4107 102.753 11.4807 100.229 11.5484C98.1814 11.5823 96.5096 13.1737 96.3731 15.2392Z" fill="white"/>
<path d="M124.18 12.5302C124.044 12.5979 123.907 12.5979 123.839 12.5302C123.225 11.853 122.44 11.5482 121.587 11.5482C120.529 11.5482 119.574 12.0223 119.574 12.8688C119.574 14.2571 121.587 14.4602 122.577 14.7311C124.521 15.2052 126.057 15.9162 126.057 18.1849C126.057 20.826 123.6 21.8757 121.246 21.8757C119.369 21.8757 117.971 21.4017 116.845 20.0134C116.776 19.8779 116.776 19.7425 116.913 19.6748L118.244 18.6251C118.38 18.5574 118.516 18.5574 118.585 18.6251C119.267 19.3023 120.12 19.8779 121.314 19.8779C122.44 19.8779 123.703 19.4039 123.703 18.4219C123.703 17.1014 121.826 16.8305 120.837 16.6273C118.892 16.1533 117.254 15.5776 117.254 13.2412C117.254 10.8033 119.506 9.61816 121.724 9.61816C123.191 9.61816 124.726 10.0922 125.647 11.3451C125.716 11.4805 125.716 11.6159 125.579 11.6837L124.18 12.5302Z" fill="white"/>
<path d="M111.625 16.9996V12.1914C111.625 12.056 111.761 11.9205 111.898 11.9205H113.911C113.979 11.9205 114.115 11.8528 114.115 11.7851L114.968 10.0582C115.036 9.92276 114.968 9.78732 114.832 9.71959C114.764 9.71959 114.764 9.71959 114.695 9.71959H111.829C111.693 9.71959 111.556 9.58415 111.556 9.44871V6.40126C111.556 6.26581 111.42 6.13037 111.283 6.13037C111.215 6.13037 111.215 6.13037 111.147 6.13037L109.407 6.97689C109.339 7.04461 109.27 7.11233 109.27 7.18005V9.27941C109.27 9.41485 109.134 9.55029 108.997 9.55029H107.803C107.667 9.55029 107.53 9.68573 107.53 9.82118V11.5481C107.53 11.6835 107.667 11.819 107.803 11.819H108.997C109.134 11.819 109.27 11.9544 109.27 12.0898V17.7107C109.27 19.573 109.339 21.6724 112.819 21.6724C113.433 21.6724 114.081 21.5369 114.695 21.3338C114.764 21.2661 114.832 21.1983 114.832 21.0629V19.6069C114.832 19.4714 114.695 19.336 114.559 19.336H114.491C114.081 19.4714 113.706 19.5392 113.228 19.5392C111.625 19.7085 111.625 18.3202 111.625 16.9996Z" fill="white"/>
<path d="M127.967 9.21169C128.82 8.9408 129.776 9.34713 130.049 10.1936C130.185 10.5323 130.185 10.9047 130.049 11.2433C129.912 11.7174 129.503 12.0898 129.059 12.2253C128.206 12.4962 127.251 12.0898 126.978 11.2433C126.841 10.9047 126.841 10.5323 126.978 10.1936C127.148 9.75346 127.49 9.34713 127.967 9.21169ZM128.172 12.056C128.889 12.2591 129.639 11.7851 129.844 11.074C130.049 10.3629 129.571 9.61801 128.854 9.41485C128.138 9.21169 127.387 9.68574 127.183 10.3968C127.114 10.6 127.114 10.8709 127.183 11.074C127.353 11.5142 127.694 11.9205 128.172 12.056ZM127.899 9.82118H128.616C129.093 9.82118 129.298 10.0243 129.298 10.3629C129.298 10.6338 129.161 10.837 128.889 10.9047L129.366 11.6835H129.025L128.547 10.9724H128.274V11.6835H127.933L127.899 9.82118ZM128.24 10.6H128.513C128.718 10.6 128.991 10.6 128.991 10.3291C128.991 10.0582 128.718 10.0582 128.513 10.0582H128.24V10.6Z" fill="white"/>
<path d="M36.9378 3.04873L45.2629 21.0964C45.3311 21.2319 45.2629 21.3673 45.1264 21.435C45.0582 21.435 45.0582 21.435 44.9899 21.435H43.0451C42.9087 21.435 42.8404 21.3673 42.7722 21.2996L40.9297 17.2702C40.8615 17.2025 40.7933 17.1347 40.6568 17.1347H32.6047C32.4682 17.1347 32.4 17.2025 32.3317 17.2702L30.4552 21.2996C30.3869 21.3673 30.3187 21.435 30.1822 21.435H28.3057C28.1692 21.435 28.0327 21.2996 28.0327 21.1642C28.0327 21.0964 28.0327 21.0964 28.0327 21.0287L36.4601 3.04873C36.5284 2.91329 36.6649 2.84556 36.8013 2.91329C36.8696 2.98101 36.9378 3.04873 36.9378 3.04873ZM39.872 14.6968L36.9378 8.36484C36.8696 8.2294 36.7331 8.16168 36.5966 8.2294C36.5284 8.2294 36.4601 8.29712 36.4601 8.36484L33.5259 14.6968C33.4577 14.8322 33.5259 14.9677 33.6624 15.0354C33.6624 15.0354 33.7306 15.0354 33.7988 15.0354H39.6673C39.8038 15.0354 39.9403 14.8999 39.9403 14.7645C39.872 14.7645 39.872 14.6968 39.872 14.6968Z" fill="white"/>
<path d="M47.6852 4.97904L49.4253 4.13252C49.5617 4.0648 49.6982 4.13252 49.7664 4.26797C49.7664 4.33569 49.7664 4.33569 49.7664 4.40341V21.3337C49.7664 21.4692 49.63 21.6046 49.4935 21.6046H47.7534C47.6169 21.6046 47.4805 21.4692 47.4805 21.3337V5.1822C47.5487 5.11448 47.5487 4.97904 47.6852 4.97904Z" fill="white"/>
<path d="M52.8712 2.54105L54.6113 1.69454C54.7478 1.62681 54.8842 1.69454 54.9525 1.82998C54.9525 1.8977 54.9525 1.8977 54.9525 1.96542V21.266C54.9525 21.4014 54.816 21.5368 54.6795 21.5368H52.9395C52.803 21.5368 52.6665 21.4014 52.6665 21.266V2.77808C52.7347 2.67649 52.803 2.60877 52.8712 2.54105Z" fill="white"/>
<path d="M63.9942 12.5302C63.8577 12.5979 63.7212 12.5979 63.653 12.5302C63.0389 11.853 62.2541 11.5482 61.4012 11.5482C60.3435 11.5482 59.3881 12.0223 59.3881 12.8688C59.3881 14.2571 61.4011 14.4602 62.3906 14.7311C64.3354 15.2052 65.8708 15.9162 65.8708 18.1849C65.8708 20.826 63.4142 21.8757 61.06 21.8757C59.1834 21.8757 57.7845 21.4017 56.6586 20.0134C56.5904 19.8779 56.5904 19.7425 56.7268 19.6748L58.0575 18.6251C58.194 18.5574 58.3304 18.5574 58.3987 18.6251C59.081 19.3023 59.934 19.8779 61.1282 19.8779C62.2541 19.8779 63.5165 19.4039 63.5165 18.4219C63.5165 17.1014 61.64 16.8305 60.6505 16.6273C58.7057 16.1533 57.068 15.5776 57.068 13.2412C57.068 10.8033 59.3199 9.61816 61.5376 9.61816C63.0047 9.61816 64.5401 10.0922 65.4613 11.3451C65.5296 11.4805 65.5296 11.6159 65.3931 11.6837L63.9942 12.5302Z" fill="white"/>
<path d="M76.5841 12.6994C76.4476 12.7671 76.3112 12.7671 76.2429 12.6994C75.5264 11.9883 74.5028 11.5143 73.4452 11.582C70.9886 11.582 69.7944 13.5798 69.7944 15.7469C69.7944 17.9139 71.2615 19.7086 73.5816 19.7086C74.5711 19.7763 75.5947 19.3022 76.2429 18.5912C76.3112 18.4557 76.5159 18.4557 76.6523 18.5912L77.8465 19.7763C77.9148 19.9117 77.9148 20.0472 77.8465 20.1149C76.7206 21.2323 75.2535 21.7063 73.6499 21.7741C70.238 21.8418 67.3719 19.1329 67.3037 15.6791V15.6114C67.3037 11.9883 69.7603 9.38108 73.5134 9.38108C75.117 9.31336 76.7206 9.92285 77.8465 11.0402C77.983 11.1757 77.983 11.3111 77.8465 11.4466L76.5841 12.6994Z" fill="white"/>
<path d="M80.3711 9.75413H82.1112C82.2476 9.75413 82.3841 9.88958 82.3841 10.025V11.5149H82.4524C83.0665 10.262 84.5336 9.41553 86.0007 9.41553C86.2737 9.41553 86.5467 9.41553 86.7855 9.48325C86.922 9.48325 86.9902 9.61869 86.9902 9.75413L86.922 11.6842C86.922 11.8196 86.7855 11.9551 86.649 11.9551C86.649 11.9551 86.649 11.9551 86.5808 11.9551C86.3078 11.8874 86.0349 11.8874 85.796 11.8874C83.6124 11.8874 82.3841 13.0725 82.3841 15.6459V21.2667C82.3841 21.4022 82.2476 21.5376 82.1112 21.5376H80.3711C80.2346 21.5376 80.0981 21.4022 80.0981 21.2667V9.99116C80.1323 9.85572 80.2687 9.75413 80.3711 9.75413Z" fill="white"/>
<path d="M89.7197 3.99717C90.5727 3.72629 91.5281 4.20034 91.801 4.97913C92.074 5.82565 91.5963 6.77374 90.8116 7.04463C89.9586 7.31551 89.0032 6.84146 88.7303 6.06267C88.5938 5.72406 88.5938 5.3516 88.7303 5.01299C88.8326 4.50508 89.2421 4.13262 89.7197 3.99717ZM89.3785 9.75347H91.1186C91.2551 9.75347 91.3916 9.88892 91.3916 10.0244V21.2661C91.3916 21.4015 91.2551 21.537 91.1186 21.537H89.3785C89.2421 21.537 89.1056 21.4015 89.1056 21.2661V9.9905C89.1056 9.85506 89.2421 9.75347 89.3785 9.75347Z" fill="white"/>
<path d="M94.3942 9.75379H96.1342C96.2707 9.75379 96.4072 9.88924 96.4072 10.0247V11.4807H96.4754C97.3284 10.2278 99.0003 9.48291 100.604 9.48291C104.255 9.48291 106.609 12.1918 106.609 15.6455C106.609 19.167 104.22 21.8082 100.604 21.8082C98.932 21.8082 97.2602 21.0294 96.4754 19.8104H96.4072V26.0407C96.4072 26.1085 96.339 26.2439 96.2707 26.2439L94.5306 27.0904C94.3942 27.1581 94.2577 27.0904 94.1895 26.955C94.1895 26.8873 94.1895 26.8873 94.1895 26.8195V9.99082C94.1895 9.85538 94.2577 9.75379 94.3942 9.75379ZM96.3731 15.2392C96.2366 17.8126 97.772 19.7427 100.297 19.675C102.378 19.6072 104.016 18.0158 104.152 15.9841C104.289 13.4107 102.753 11.4807 100.229 11.5484C98.1814 11.5823 96.5096 13.1737 96.3731 15.2392Z" fill="white"/>
<path d="M124.18 12.5302C124.044 12.5979 123.907 12.5979 123.839 12.5302C123.225 11.853 122.44 11.5482 121.587 11.5482C120.529 11.5482 119.574 12.0223 119.574 12.8688C119.574 14.2571 121.587 14.4602 122.577 14.7311C124.521 15.2052 126.057 15.9162 126.057 18.1849C126.057 20.826 123.6 21.8757 121.246 21.8757C119.369 21.8757 117.971 21.4017 116.845 20.0134C116.776 19.8779 116.776 19.7425 116.913 19.6748L118.244 18.6251C118.38 18.5574 118.516 18.5574 118.585 18.6251C119.267 19.3023 120.12 19.8779 121.314 19.8779C122.44 19.8779 123.703 19.4039 123.703 18.4219C123.703 17.1014 121.826 16.8305 120.837 16.6273C118.892 16.1533 117.254 15.5776 117.254 13.2412C117.254 10.8033 119.506 9.61816 121.724 9.61816C123.191 9.61816 124.726 10.0922 125.647 11.3451C125.716 11.4805 125.716 11.6159 125.579 11.6837L124.18 12.5302Z" fill="white"/>
<path d="M111.625 16.9996V12.1914C111.625 12.056 111.761 11.9205 111.898 11.9205H113.911C113.979 11.9205 114.115 11.8528 114.115 11.7851L114.968 10.0582C115.036 9.92276 114.968 9.78732 114.832 9.71959C114.764 9.71959 114.764 9.71959 114.695 9.71959H111.829C111.693 9.71959 111.556 9.58415 111.556 9.44871V6.40126C111.556 6.26581 111.42 6.13037 111.283 6.13037C111.215 6.13037 111.215 6.13037 111.147 6.13037L109.407 6.97689C109.339 7.04461 109.27 7.11233 109.27 7.18005V9.27941C109.27 9.41485 109.134 9.55029 108.997 9.55029H107.803C107.667 9.55029 107.53 9.68573 107.53 9.82118V11.5481C107.53 11.6835 107.667 11.819 107.803 11.819H108.997C109.134 11.819 109.27 11.9544 109.27 12.0898V17.7107C109.27 19.573 109.339 21.6724 112.819 21.6724C113.433 21.6724 114.081 21.5369 114.695 21.3338C114.764 21.2661 114.832 21.1983 114.832 21.0629V19.6069C114.832 19.4714 114.695 19.336 114.559 19.336H114.491C114.081 19.4714 113.706 19.5392 113.228 19.5392C111.625 19.7085 111.625 18.3202 111.625 16.9996Z" fill="white"/>
</g>
<defs>
<clipPath id="clip0_40004443_19091">
<rect width="129.891" height="26.4113" fill="white" transform="translate(0.225586 0.678711)"/>
</clipPath>
</defs>
</svg>
