<svg width="159" height="23" viewBox="0 0 159 23" fill="none" xmlns="http://www.w3.org/2000/svg">
<g clip-path="url(#clip0_40004443_19092)">
<path d="M33.441 22.703H30.9381V21.3623C30.1502 22.3794 28.9915 23.0266 27.3693 23.0266C24.1713 23.0266 21.6685 20.5301 21.6685 17.0626C21.6685 13.5952 24.1713 11.0986 27.3693 11.0986C28.9915 11.0986 30.1502 11.7459 30.9381 12.763V11.376H33.441V22.703ZM24.264 17.0164C24.264 19.0044 25.5617 20.6688 27.6938 20.6688C29.7331 20.6688 31.1235 19.0969 31.1235 17.0164C31.1235 14.9359 29.7331 13.364 27.6938 13.364C25.5617 13.364 24.264 15.0284 24.264 17.0164Z" fill="#F1F1F1"/>
<path d="M43.6839 13.5953H39.3271V18.5422C39.3271 20.0679 40.115 20.6689 41.1347 20.6689C41.9226 20.6689 42.7569 20.3452 43.4058 19.8829L44.3791 21.8709C43.4521 22.4719 42.2934 22.9805 40.903 22.9805C38.3074 22.9805 36.8243 21.5935 36.8243 18.5884V13.5953H34.5532V11.3299H36.8243V7.90869H39.3271V11.3299H43.6839V13.5953Z" fill="#F1F1F1"/>
<path d="M47.9017 12.6707C48.8287 11.3762 50.2192 11.0064 51.3779 11.0064C54.0661 11.0064 56.0127 12.8557 56.0127 15.5372V22.657H53.5099V16.3694C53.5099 14.4738 52.5366 13.4105 50.868 13.4105C49.2458 13.4105 47.9017 14.4738 47.9017 16.4156V22.7032H45.3989V5.59717H47.9017V12.6707Z" fill="#F1F1F1"/>
<path d="M68.712 16.9707C68.712 17.2943 68.6657 17.6179 68.6657 17.8953H60.2303C60.5547 19.9295 61.9915 20.808 63.6137 20.808C64.7724 20.808 65.9775 20.3456 66.9045 19.6059L68.1559 21.3627C66.7654 22.5648 65.1896 22.9809 63.4747 22.9809C60.0449 22.9809 57.6348 20.623 57.6348 17.0169C57.6348 13.457 59.9522 11.0529 63.2893 11.0529C66.5337 11.0067 68.712 13.457 68.712 16.9707ZM60.2766 16.046H66.1629C65.8848 14.2892 64.8651 13.2258 63.2893 13.2258C61.528 13.2258 60.5084 14.3816 60.2766 16.046Z" fill="#F1F1F1"/>
<path d="M81.0874 15.5376V22.6574H78.5846V16.3698C78.5846 14.4743 77.6113 13.4109 75.9427 13.4109C74.3206 13.4109 72.9764 14.4743 72.9764 16.416V22.7037H70.4736V11.3305H72.9301V12.7174C73.8571 11.3767 75.2475 11.0531 76.4062 11.0531C79.1408 11.0068 81.0874 12.9024 81.0874 15.5376Z" fill="#F1F1F1"/>
<path d="M94.4356 22.703H91.9328V21.3623C91.1448 22.3794 89.9861 23.0266 88.3639 23.0266C85.1659 23.0266 82.6631 20.5301 82.6631 17.0626C82.6631 13.5952 85.1659 11.0986 88.3639 11.0986C89.9861 11.0986 91.1448 11.7459 91.9328 12.763V11.376H94.4356V22.703ZM85.2586 17.0164C85.2586 19.0044 86.5564 20.6688 88.6884 20.6688C90.7277 20.6688 92.1182 19.0969 92.1182 17.0164C92.1182 14.9359 90.7277 13.364 88.6884 13.364C86.5564 13.364 85.2586 15.0284 85.2586 17.0164Z" fill="#F1F1F1"/>
<path d="M98.3749 13.4567C99.2555 11.9773 100.831 11.33 102.361 11.33C105.188 11.33 107.088 13.0406 107.088 15.8146V22.657H105.744V16.2769C105.744 14.0115 104.447 12.6707 102.175 12.6707C100.09 12.6707 98.4213 14.1964 98.4213 16.3694V22.7032H97.0771V5.59717H98.4213V13.4567H98.3749Z" fill="#F1F1F1"/>
<path d="M119.742 17.0628C119.742 17.2477 119.742 17.4326 119.696 17.6176H110.333C110.519 20.2066 112.373 21.686 114.644 21.686C116.22 21.686 117.425 21.085 118.444 20.1141L119.186 21.0388C117.749 22.472 116.22 22.8881 114.597 22.8881C111.307 22.8881 108.989 20.5302 108.989 17.1552C108.989 13.7802 111.399 11.3762 114.551 11.3762C117.471 11.3299 119.696 13.6878 119.742 17.0628ZM110.38 16.4155H118.398C118.213 14.1039 116.637 12.532 114.505 12.532C112.187 12.532 110.611 14.1501 110.38 16.4155Z" fill="#F1F1F1"/>
<path d="M132.303 22.703H130.958V20.5763C130.078 21.9632 128.548 22.8879 126.509 22.8879C123.357 22.8879 120.901 20.4376 120.901 17.155C120.901 13.8263 123.357 11.376 126.509 11.376C128.548 11.376 130.032 12.3006 130.958 13.6876V11.5609H132.303V22.703ZM122.338 17.1088C122.338 19.6054 124.145 21.5934 126.694 21.5934C129.244 21.5934 131.051 19.6516 131.051 17.1088C131.051 14.566 129.244 12.6243 126.694 12.6243C124.145 12.6243 122.338 14.566 122.338 17.1088Z" fill="#F1F1F1"/>
<path d="M136.427 5.59717H135.083V22.657H136.427V5.59717Z" fill="#F1F1F1"/>
<path d="M146.856 12.763H141.711V18.8194C141.711 20.715 142.731 21.5471 144.214 21.5471C145.187 21.5471 146.068 21.2235 146.717 20.715L147.366 21.7321C146.578 22.3793 145.465 22.8417 144.121 22.8417C141.804 22.8417 140.367 21.5471 140.367 18.8657V12.763H137.771V11.5147H140.321V7.8623H141.665V11.5147H146.809V12.763H146.856Z" fill="#F1F1F1"/>
<path d="M149.961 13.4567C150.842 11.9773 152.418 11.33 153.947 11.33C156.775 11.33 158.675 13.0406 158.675 15.8146V22.657H157.331V16.2769C157.331 14.0115 156.033 12.6707 153.762 12.6707C151.676 12.6707 150.008 14.1964 150.008 16.3694V22.7032H148.664V5.59717H150.008V13.4567H149.961Z" fill="#F1F1F1"/>
<path d="M8.36611 11.3296C8.36611 11.3296 6.18773 8.69434 6.14139 5.78169C6.09504 2.86904 8.18072 0.788574 8.18072 0.788574C8.18072 0.788574 10.3591 3.42383 10.4054 6.33648C10.4518 9.24913 8.36611 11.3296 8.36611 11.3296Z" fill="#B5C428"/>
<path d="M20.0464 8.00136C20.0464 8.00136 20.2781 13.8729 17.3582 17.8951C14.4382 21.9174 9.43257 22.5646 9.43257 22.5646C9.43257 22.5646 9.20083 16.6931 12.1208 12.6709C15.0407 8.64862 20.0464 8.00136 20.0464 8.00136ZM11.889 7.30788C11.889 8.09383 12.4916 8.69485 13.2795 8.69485C14.0674 8.69485 14.6699 8.09383 14.6699 7.30788C14.6699 6.52192 14.0674 5.9209 13.2795 5.9209C12.4916 5.9209 11.889 6.52192 11.889 7.30788Z" fill="#7A9A01"/>
<path d="M8.2739 17.3399C8.2739 17.2937 8.2739 17.2937 8.2739 17.2937C8.2739 16.1379 8.08851 12.6242 6.23457 10.0814C3.9635 7.03004 0.116577 6.52148 0.116577 6.52148C0.116577 6.52148 -0.0688172 11.006 2.15591 14.1036C3.7781 16.2766 6.14187 17.2012 7.39328 17.5248V22.3793C7.39328 22.6104 7.57867 22.7953 7.81042 22.7953C8.04216 22.7953 8.22755 22.6104 8.22755 22.3793V17.4786C8.2739 17.4324 8.2739 17.3861 8.2739 17.3399Z" fill="#B5C428"/>
</g>
<defs>
<clipPath id="clip0_40004443_19092">
<rect width="158.512" height="22.1916" fill="white" transform="translate(0.117188 0.788574)"/>
</clipPath>
</defs>
</svg>
