<svg width="32" height="33" viewBox="0 0 32 33" fill="none" xmlns="http://www.w3.org/2000/svg">
<path d="M21.7075 13.0611C21.8005 13.1539 21.8742 13.2642 21.9246 13.3856C21.9749 13.507 22.0008 13.6371 22.0008 13.7686C22.0008 13.9 21.9749 14.0301 21.9246 14.1515C21.8742 14.2729 21.8005 14.3832 21.7075 14.4761L14.7075 21.4761C14.6146 21.569 14.5043 21.6428 14.3829 21.6931C14.2615 21.7434 14.1314 21.7693 14 21.7693C13.8686 21.7693 13.7385 21.7434 13.6171 21.6931C13.4957 21.6428 13.3854 21.569 13.2925 21.4761L10.2925 18.4761C10.1049 18.2884 9.99945 18.0339 9.99945 17.7686C9.99945 17.5032 10.1049 17.2487 10.2925 17.0611C10.4801 16.8734 10.7346 16.768 11 16.768C11.2654 16.768 11.5199 16.8734 11.7075 17.0611L14 19.3548L20.2925 13.0611C20.3854 12.9681 20.4957 12.8943 20.6171 12.844C20.7385 12.7937 20.8686 12.7678 21 12.7678C21.1314 12.7678 21.2615 12.7937 21.3829 12.844C21.5043 12.8943 21.6146 12.9681 21.7075 13.0611ZM29 16.7686C29 19.3397 28.2376 21.8531 26.8091 23.991C25.3807 26.1288 23.3503 27.795 20.9749 28.779C18.5995 29.7629 15.9856 30.0204 13.4638 29.5188C10.9421 29.0172 8.6257 27.779 6.80762 25.9609C4.98953 24.1429 3.75141 21.8265 3.2498 19.3047C2.74819 16.783 3.00563 14.1691 3.98957 11.7937C4.97351 9.41823 6.63975 7.38791 8.77759 5.95945C10.9154 4.53099 13.4288 3.76855 16 3.76855C19.4467 3.77219 22.7512 5.143 25.1884 7.58019C27.6256 10.0174 28.9964 13.3219 29 16.7686ZM27 16.7686C27 14.593 26.3549 12.4662 25.1462 10.6573C23.9375 8.84834 22.2195 7.43844 20.2095 6.60588C18.1995 5.77332 15.9878 5.55548 13.854 5.97992C11.7202 6.40435 9.76021 7.452 8.22183 8.99038C6.68345 10.5288 5.63581 12.4888 5.21137 14.6226C4.78693 16.7564 5.00477 18.9681 5.83733 20.9781C6.66989 22.9881 8.07979 24.706 9.88873 25.9147C11.6977 27.1234 13.8244 27.7686 16 27.7686C18.9164 27.7652 21.7123 26.6053 23.7745 24.5431C25.8367 22.4809 26.9967 19.6849 27 16.7686Z" fill="#6EDD9C"/>
</svg>
