<svg width="17" height="17" viewBox="0 0 17 17" fill="none" xmlns="http://www.w3.org/2000/svg">
<path d="M14.9998 9.30955C14.8936 10.5445 14.4369 11.7235 13.6834 12.7077C12.9299 13.6919 11.9109 14.4405 10.7465 14.8653C9.58197 15.2901 8.32039 15.3735 7.11013 15.1056C5.89987 14.8378 4.79128 14.2298 3.91479 13.3534C3.0383 12.4769 2.43037 11.3683 2.16253 10.158C1.89469 8.94776 1.97807 7.68618 2.40287 6.5217C2.82767 5.35721 3.57621 4.33828 4.56044 3.58477C5.54466 2.83127 6.72362 2.37453 7.9586 2.2683C8.02426 2.26288 8.09034 2.27045 8.15308 2.29057C8.21582 2.3107 8.27397 2.34298 8.32423 2.38558C8.37449 2.42818 8.41587 2.48026 8.446 2.53885C8.47614 2.59744 8.49443 2.66139 8.49985 2.72705C8.50527 2.79271 8.4977 2.8588 8.47757 2.92153C8.45745 2.98427 8.42517 3.04243 8.38257 3.09269C8.33997 3.14295 8.28789 3.18432 8.2293 3.21445C8.17071 3.24459 8.10676 3.26288 8.0411 3.2683C6.99584 3.35811 5.99798 3.74459 5.16492 4.38228C4.33186 5.01996 3.69826 5.88232 3.33868 6.86788C2.97909 7.85344 2.90848 8.9212 3.13515 9.94553C3.36182 10.9699 3.87634 11.9081 4.61818 12.65C5.36001 13.3918 6.29829 13.9063 7.32262 14.133C8.34695 14.3597 9.41471 14.2891 10.4003 13.9295C11.3858 13.5699 12.2482 12.9363 12.8859 12.1032C13.5236 11.2702 13.91 10.2723 13.9998 9.22705C14.0108 9.09444 14.074 8.97161 14.1755 8.88558C14.277 8.79955 14.4085 8.75736 14.5411 8.7683C14.6737 8.77924 14.7965 8.84241 14.8826 8.94391C14.9686 9.04542 15.0108 9.17694 14.9998 9.30955ZM7.99985 5.2683V8.7683C7.99985 8.90091 8.05253 9.02809 8.1463 9.12185C8.24006 9.21562 8.36724 9.2683 8.49985 9.2683H11.9998C12.1325 9.2683 12.2596 9.21562 12.3534 9.12185C12.4472 9.02809 12.4998 8.90091 12.4998 8.7683C12.4998 8.63569 12.4472 8.50851 12.3534 8.41475C12.2596 8.32098 12.1325 8.2683 11.9998 8.2683H8.99985V5.2683C8.99985 5.13569 8.94717 5.00852 8.8534 4.91475C8.75963 4.82098 8.63246 4.7683 8.49985 4.7683C8.36724 4.7683 8.24006 4.82098 8.1463 4.91475C8.05253 5.00852 7.99985 5.13569 7.99985 5.2683ZM10.4998 3.7683C10.6482 3.7683 10.7932 3.72431 10.9165 3.6419C11.0399 3.55949 11.136 3.44236 11.1928 3.30531C11.2495 3.16827 11.2644 3.01747 11.2354 2.87198C11.2065 2.7265 11.1351 2.59286 11.0302 2.48797C10.9253 2.38308 10.7917 2.31165 10.6462 2.28271C10.5007 2.25377 10.3499 2.26862 10.2128 2.32539C10.0758 2.38216 9.95866 2.47829 9.87625 2.60162C9.79384 2.72496 9.74985 2.86996 9.74985 3.0183C9.74985 3.21721 9.82887 3.40798 9.96952 3.54863C10.1102 3.68928 10.3009 3.7683 10.4998 3.7683ZM12.7498 5.2683C12.8982 5.2683 13.0432 5.22431 13.1665 5.1419C13.2899 5.05949 13.386 4.94236 13.4428 4.80531C13.4995 4.66827 13.5144 4.51747 13.4854 4.37198C13.4565 4.2265 13.3851 4.09286 13.2802 3.98797C13.1753 3.88308 13.0417 3.81165 12.8962 3.78271C12.7507 3.75377 12.5999 3.76862 12.4628 3.82539C12.3258 3.88216 12.2087 3.97829 12.1262 4.10162C12.0438 4.22496 11.9998 4.36996 11.9998 4.5183C11.9998 4.71721 12.0789 4.90798 12.2195 5.04863C12.3602 5.18928 12.5509 5.2683 12.7498 5.2683ZM14.2498 7.5183C14.3982 7.5183 14.5432 7.47431 14.6665 7.3919C14.7899 7.30949 14.886 7.19236 14.9428 7.05531C14.9995 6.91827 15.0144 6.76747 14.9854 6.62198C14.9565 6.4765 14.8851 6.34286 14.7802 6.23797C14.6753 6.13308 14.5417 6.06165 14.3962 6.03271C14.2507 6.00377 14.0999 6.01862 13.9628 6.07539C13.8258 6.13216 13.7087 6.22829 13.6262 6.35162C13.5438 6.47496 13.4998 6.61996 13.4998 6.7683C13.4998 6.96721 13.5789 7.15798 13.7195 7.29863C13.8602 7.43928 14.0509 7.5183 14.2498 7.5183Z" fill="#97979C"/>
</svg>
