<svg width="69" height="26" viewBox="0 0 69 26" fill="none" xmlns="http://www.w3.org/2000/svg">
<g clip-path="url(#clip0_40004443_19089)">
<path d="M44.4548 0.106934L43.709 3.63976H49.521L50.2668 0.106934H44.4548Z" fill="#E03851"/>
<path d="M58.7791 8.59144C60.9908 8.59144 62.0452 9.33927 62.1738 10.6544H68.2173C68.423 6.27061 64.8741 4.72338 59.5249 4.72338C53.9701 4.72338 49.7782 6.73477 48.0294 10.7833L49.1867 5.34227H43.3232L42.2431 10.3965C41.9859 6.88949 39.3371 4.95546 35.0423 4.95546C32.6764 4.95546 30.439 5.80644 28.8702 7.32787H28.8188L29.2303 5.34227H23.5983L21.3352 16.0181H8.3995L9.01671 12.6658H20.5636L21.438 8.59144H9.89109L10.5083 5.31648H23.5983L24.4984 1.0874H4.87627L0.967285 20.273H20.4351L19.3035 25.6625H25.1156L26.5557 18.9063H26.6071C27.3529 20.0151 29.1531 20.8661 31.7505 20.8661C36.1739 20.8661 39.5685 18.5968 41.2144 15.425L40.1857 20.2472H45.9721L47.1293 14.8835C47.155 18.9578 50.3954 20.8661 56.0788 20.8661C62.5081 20.8661 65.9027 18.5453 67.7029 14.4193H61.5309C60.7079 16.1728 59.1135 17.0238 57.0047 17.0238C54.2015 17.0238 52.9414 15.5024 53.5071 12.7947C54.0729 10.0871 56.0531 8.59144 58.7791 8.59144ZM36.0967 12.8205C35.5824 15.2961 33.8336 16.6112 31.1848 16.6112C28.4588 16.6112 27.3529 15.1156 27.8416 12.8205C28.3302 10.5255 30.0789 9.02982 32.8049 9.02982C35.4538 9.02982 36.6368 10.345 36.0967 12.8205Z" fill="#E03851"/>
</g>
<defs>
<clipPath id="clip0_40004443_19089">
<rect width="67.25" height="25.555" fill="white" transform="translate(0.967773 0.106934)"/>
</clipPath>
</defs>
</svg>
