<svg width="69" height="26" viewBox="0 0 69 26" fill="none" xmlns="http://www.w3.org/2000/svg">
<g clip-path="url(#clip0_1_4572)">
<path d="M44.455 0.106934L43.7092 3.63976H49.5213L50.2671 0.106934H44.455Z" fill="#BA122B"/>
<path d="M58.7794 8.59144C60.991 8.59144 62.0454 9.33927 62.174 10.6544H68.2175C68.4233 6.27061 64.8743 4.72338 59.5252 4.72338C53.9703 4.72338 49.7784 6.73477 48.0297 10.7833L49.1869 5.34227H43.3235L42.2433 10.3965C41.9862 6.88949 39.3373 4.95546 35.0426 4.95546C32.6766 4.95546 30.4392 5.80644 28.8705 7.32787H28.8191L29.2305 5.34227H23.5985L21.3354 16.0181H8.39975L9.01695 12.6658H20.5639L21.4383 8.59144H9.89133L10.5085 5.31648H23.5985L24.4986 1.0874H4.87651L0.967529 20.273H20.4353L19.3038 25.6625H25.1158L26.556 18.9063H26.6074C27.3532 20.0151 29.1534 20.8661 31.7508 20.8661C36.1741 20.8661 39.5688 18.5968 41.2147 15.425L40.186 20.2472H45.9723L47.1296 14.8835C47.1553 18.9578 50.3956 20.8661 56.0791 20.8661C62.5083 20.8661 65.903 18.5453 67.7032 14.4193H61.5311C60.7082 16.1728 59.1137 17.0238 57.0049 17.0238C54.2017 17.0238 52.9416 15.5024 53.5074 12.7947C54.0732 10.0871 56.0534 8.59144 58.7794 8.59144ZM36.097 12.8205C35.5826 15.2961 33.8339 16.6112 31.185 16.6112C28.459 16.6112 27.3532 15.1156 27.8418 12.8205C28.3304 10.5255 30.0792 9.02982 32.8052 9.02982C35.454 9.02982 36.637 10.345 36.097 12.8205Z" fill="#BA122B"/>
</g>
<defs>
<clipPath id="clip0_1_4572">
<rect width="67.25" height="25.555" fill="white" transform="translate(0.967773 0.106934)"/>
</clipPath>
</defs>
</svg>
