<svg width="32" height="33" viewBox="0 0 32 33" fill="none" xmlns="http://www.w3.org/2000/svg">
<path d="M20.0742 3.51855C20.2637 3.51403 20.4499 3.5679 20.6084 3.67188L20.6221 3.67969C20.7331 3.74942 20.8242 3.84582 20.8877 3.95898L20.9414 4.07812L21.8994 6.9834V6.98438L21.9033 6.99512C22.2563 8.01147 22.8402 8.93328 23.6045 9.68945V9.69043C24.3609 10.4696 25.2915 11.058 26.3193 11.4082L29.1738 12.416L29.1865 12.4209L29.2002 12.4248C29.3624 12.4757 29.5029 12.5785 29.6016 12.7168C29.7078 12.8791 29.7592 13.0673 29.748 13.2559L29.7471 13.2773V13.2979C29.7462 13.4833 29.6867 13.6642 29.5781 13.8145C29.4695 13.9645 29.3163 14.0769 29.1406 14.1357L26.2666 15.084L26.2637 15.085C25.2496 15.4241 24.3288 15.9953 23.5742 16.7529C22.8225 17.5077 22.2565 18.4266 21.9209 19.4375L20.9277 22.2939C20.8644 22.4711 20.749 22.6249 20.5967 22.7354C20.4852 22.8152 20.3562 22.8679 20.2207 22.8887C20.1186 22.9043 20.0148 22.9015 19.9141 22.8809L19.8145 22.8545C19.6835 22.8111 19.5647 22.7368 19.4678 22.6387C19.3711 22.5406 19.2985 22.4213 19.2568 22.29V22.2891L19.2529 22.2773L18.2891 19.4004L18.2871 19.3955L18.1445 19.0166C17.7862 18.1458 17.2476 17.3585 16.5635 16.707C15.8144 15.9444 14.9001 15.3641 13.8906 15.0117L13.8818 15.0078L11.0049 14.0439L10.9912 14.04L10.8652 13.9883C10.7469 13.9291 10.6436 13.8431 10.5635 13.7363C10.4564 13.5842 10.3985 13.4029 10.3984 13.2168C10.3984 13.0295 10.4561 12.8461 10.5645 12.6934C10.6728 12.5439 10.8276 12.434 11.0039 12.3789L11.0117 12.376L11.0195 12.374L13.8818 11.4092C14.9157 11.0614 15.8521 10.4727 16.6133 9.69141L16.6123 9.69043C17.3773 8.93396 17.9622 8.01217 18.3154 6.99512L18.3184 6.9873L19.2666 4.15527L19.2734 4.13672L19.2783 4.11719C19.3241 3.95235 19.4232 3.8074 19.5596 3.7041L19.5684 3.69727L19.5762 3.69043C19.7135 3.58028 19.8845 3.51958 20.0605 3.51855V3.51953L20.0742 3.51855Z" stroke="#478CD1" stroke-width="1.5"/>
<path d="M7.62988 19.9785H7.63965C7.72281 19.9766 7.80443 20.0003 7.87402 20.0459L7.88281 20.0518C7.92963 20.0811 7.96843 20.1212 7.99512 20.1689L8.01758 20.2188L8.53418 21.7871L8.53711 21.7949C8.73251 22.3575 9.05579 22.8675 9.47852 23.2861V23.2871C9.89783 23.719 10.4136 24.0451 10.9834 24.2393V24.2383L12.5264 24.7842L12.5352 24.7871L12.543 24.79C12.6104 24.8111 12.6696 24.853 12.7109 24.9102C12.7571 24.9811 12.7782 25.0627 12.7734 25.1436L12.7725 25.1572V25.1709C12.7722 25.2314 12.7586 25.2913 12.7314 25.3447L12.7002 25.3955C12.6534 25.4602 12.5872 25.5084 12.5117 25.5342L10.9561 26.0479H10.9541C10.392 26.2358 9.88124 26.5527 9.46289 26.9727C9.09669 27.3403 8.80955 27.7787 8.61914 28.2598L8.5459 28.4609L8.00977 30.0039C7.98205 30.0814 7.93166 30.1488 7.86523 30.1973C7.81689 30.232 7.761 30.2546 7.70215 30.2637C7.64324 30.2727 7.58294 30.2678 7.52637 30.249C7.46992 30.2303 7.41876 30.1986 7.37695 30.1562C7.33505 30.1138 7.30317 30.0618 7.28516 30.0049L7.2832 29.9971L6.76172 28.4414L6.76074 28.4375L6.68164 28.2285C6.51125 27.8142 6.26717 27.4343 5.96191 27.1064L5.80469 26.9463C5.38991 26.5247 4.88373 26.2038 4.3252 26.0088L4.31934 26.0068L2.76367 25.4854L2.75488 25.4824L2.7002 25.4609C2.66557 25.4436 2.63403 25.4207 2.60645 25.3936L2.56836 25.3496C2.52388 25.2843 2.50002 25.2071 2.5 25.1279C2.5 25.0471 2.524 24.9676 2.57031 24.9014L2.57129 24.9023C2.618 24.8373 2.6843 24.7885 2.76074 24.7646L2.77148 24.7617L4.31934 24.2402C4.89256 24.0474 5.41194 23.7203 5.83398 23.2871L5.83301 23.2861C6.25601 22.8674 6.5799 22.3578 6.77539 21.7949L6.77734 21.79L7.29004 20.2588L7.29492 20.2461L7.29785 20.2334C7.31228 20.1814 7.33917 20.1335 7.37598 20.0947L7.41602 20.0596L7.42676 20.0508C7.4843 20.0046 7.55613 19.979 7.62988 19.9785Z" stroke="#478CD1"/>
</svg>
