<svg width="189" height="34" viewBox="0 0 189 34" fill="none" xmlns="http://www.w3.org/2000/svg">
<path d="M22.938 7.93958V9.76689C19.8758 12.222 11.1207 19.2409 9.3448 20.6646C7.37617 19.1816 0.80584 14.2322 0.216797 13.7885V7.93958C0.216797 7.93958 4.62655 6.12305 11.5774 6.12305C18.5282 6.12305 22.938 7.93958 22.938 7.93958Z" fill="#478CD1"/>
<path d="M9.33759 25.993C9.52733 25.7963 18.6512 16.4327 22.938 12.032V15.2213C22.938 28.9554 11.5704 31.5722 11.5704 31.5722C11.5704 31.5722 0.66022 29.0607 0.216797 16.045C2.87832 18.9482 8.99886 25.6202 9.33759 25.993Z" fill="#A5A5A5"/>
<path d="M0.216797 16.1326V13.3625L9.33169 20.2988L22.938 9.30542V12.0752L9.33169 26.1407L0.216797 16.1326Z" fill="white"/>
<path d="M27.5484 27.3479V10.9022H29.8978V27.3479H27.5484ZM41.1413 14.7787C42.1593 14.7787 43.0521 14.9744 43.8196 15.366C44.6027 15.7576 45.2135 16.3528 45.6521 17.1515C46.0907 17.9503 46.3099 18.9606 46.3099 20.1823V27.3479H44.0545V20.4407C44.0545 19.2347 43.7569 18.3262 43.1617 17.7154C42.5822 17.1046 41.7599 16.7991 40.6949 16.7991C39.8961 16.7991 39.1991 16.9558 38.6039 17.269C38.0088 17.5823 37.5467 18.0443 37.2178 18.6552C36.9045 19.266 36.7479 20.0256 36.7479 20.9341V27.3479H34.4925V14.8961H36.6539V18.2558L36.3015 17.363C36.7088 16.5485 37.3353 15.9142 38.181 15.46C39.0268 15.0058 40.0136 14.7787 41.1413 14.7787ZM54.055 27.4889C53.0213 27.4889 52.0345 27.3479 51.0948 27.066C50.1707 26.784 49.4424 26.4395 48.9099 26.0322L49.8496 24.2467C50.3821 24.6069 51.04 24.9124 51.8231 25.163C52.6062 25.4136 53.405 25.5389 54.2195 25.5389C55.2689 25.5389 56.0207 25.3901 56.4749 25.0925C56.9448 24.7949 57.1797 24.3798 57.1797 23.8473C57.1797 23.4557 57.0387 23.1503 56.7568 22.931C56.4749 22.7118 56.099 22.5473 55.6291 22.4377C55.1749 22.328 54.6659 22.2341 54.102 22.1557C53.5382 22.0618 52.9743 21.9521 52.4104 21.8268C51.8466 21.6859 51.3297 21.4979 50.8599 21.263C50.39 21.0124 50.0141 20.6756 49.7321 20.2527C49.4502 19.8142 49.3093 19.2347 49.3093 18.5142C49.3093 17.7624 49.5207 17.1046 49.9436 16.5407C50.3665 15.9769 50.9617 15.5461 51.7291 15.2485C52.5123 14.9353 53.4363 14.7787 54.5014 14.7787C55.3159 14.7787 56.1381 14.8805 56.9683 15.0841C57.814 15.272 58.5032 15.5461 59.0357 15.9064L58.0725 17.6919C57.5086 17.316 56.9213 17.0576 56.3104 16.9166C55.6996 16.7756 55.0888 16.7052 54.4779 16.7052C53.4912 16.7052 52.755 16.8696 52.2695 17.1985C51.7839 17.5118 51.5412 17.919 51.5412 18.4202C51.5412 18.8431 51.6821 19.172 51.9641 19.407C52.2617 19.6262 52.6376 19.7985 53.0918 19.9238C53.5616 20.0491 54.0785 20.1588 54.6424 20.2527C55.2062 20.3311 55.7701 20.4407 56.3339 20.5817C56.8978 20.707 57.4068 20.8871 57.861 21.122C58.3309 21.357 58.7068 21.6859 58.9887 22.1088C59.2863 22.5317 59.4351 23.0955 59.4351 23.8003C59.4351 24.5521 59.2158 25.2021 58.7773 25.7503C58.3387 26.2985 57.7201 26.7292 56.9213 27.0425C56.1225 27.3401 55.1671 27.4889 54.055 27.4889ZM66.5297 27.4889C65.2767 27.4889 64.3056 27.1521 63.6165 26.4786C62.9273 25.8051 62.5828 24.8419 62.5828 23.5889V12.1708H64.8382V23.4949C64.8382 24.1684 65.0026 24.6853 65.3315 25.0455C65.6761 25.4057 66.1617 25.5859 66.7882 25.5859C67.493 25.5859 68.0803 25.3901 68.5502 24.9985L69.255 26.6196C68.9104 26.9172 68.4954 27.1365 68.0098 27.2774C67.54 27.4184 67.0466 27.4889 66.5297 27.4889ZM60.4683 16.7522V14.8961H68.4092V16.7522H60.4683ZM79.7113 27.3479V24.7166L79.5938 24.2232V19.7359C79.5938 18.7805 79.3119 18.0443 78.748 17.5275C78.1998 16.9949 77.3697 16.7287 76.2577 16.7287C75.5215 16.7287 74.801 16.854 74.0962 17.1046C73.3914 17.3395 72.7962 17.6606 72.3107 18.0678L71.3709 16.3763C72.0131 15.8594 72.7806 15.4678 73.6733 15.2016C74.5818 14.9196 75.5294 14.7787 76.5161 14.7787C78.2233 14.7787 79.539 15.1937 80.4631 16.0238C81.3872 16.854 81.8492 18.1226 81.8492 19.8299V27.3479H79.7113ZM75.6233 27.4889C74.6992 27.4889 73.8848 27.3322 73.18 27.019C72.4908 26.7057 71.9583 26.275 71.5824 25.7268C71.2065 25.163 71.0185 24.5286 71.0185 23.8238C71.0185 23.1503 71.1752 22.5395 71.4884 21.9913C71.8173 21.4431 72.342 21.0045 73.0625 20.6756C73.7986 20.3467 74.7854 20.1823 76.0227 20.1823H79.9697V21.8033H76.1167C74.989 21.8033 74.2294 21.9913 73.8378 22.3672C73.4462 22.7431 73.2504 23.1973 73.2504 23.7298C73.2504 24.3407 73.4932 24.8341 73.9788 25.21C74.4643 25.5702 75.1378 25.7503 75.9992 25.7503C76.845 25.7503 77.5812 25.5624 78.2077 25.1865C78.8498 24.8106 79.3119 24.2624 79.5938 23.5419L80.0402 25.0925C79.7426 25.8286 79.2179 26.416 78.4661 26.8545C77.7143 27.2774 76.7667 27.4889 75.6233 27.4889ZM92.6718 14.7787C93.6899 14.7787 94.5827 14.9744 95.3501 15.366C96.1333 15.7576 96.7441 16.3528 97.1827 17.1515C97.6212 17.9503 97.8405 18.9606 97.8405 20.1823V27.3479H95.5851V20.4407C95.5851 19.2347 95.2875 18.3262 94.6923 17.7154C94.1128 17.1046 93.2905 16.7991 92.2254 16.7991C91.4266 16.7991 90.7297 16.9558 90.1345 17.269C89.5393 17.5823 89.0773 18.0443 88.7483 18.6552C88.4351 19.266 88.2785 20.0256 88.2785 20.9341V27.3479H86.0231V14.8961H88.1845V18.2558L87.8321 17.363C88.2393 16.5485 88.8658 15.9142 89.7116 15.46C90.5574 15.0058 91.5441 14.7787 92.6718 14.7787ZM106.29 27.4889C105.037 27.4889 104.066 27.1521 103.377 26.4786C102.688 25.8051 102.343 24.8419 102.343 23.5889V12.1708H104.599V23.4949C104.599 24.1684 104.763 24.6853 105.092 25.0455C105.437 25.4057 105.922 25.5859 106.549 25.5859C107.254 25.5859 107.841 25.3901 108.311 24.9985L109.016 26.6196C108.671 26.9172 108.256 27.1365 107.771 27.2774C107.301 27.4184 106.807 27.4889 106.29 27.4889ZM100.229 16.7522V14.8961H108.17V16.7522H100.229Z" fill="white"/>
<path d="M111.367 27.3479L118.767 10.9022H121.774L129.198 27.3479H126.003L119.636 12.5233H120.858L114.515 27.3479H111.367ZM114.773 23.5419L115.595 21.1455H124.476L125.298 23.5419H114.773ZM137.548 27.5828C135.292 27.5828 133.522 26.9485 132.238 25.6798C130.969 24.4112 130.335 22.5786 130.335 20.1823V10.9022H133.389V20.0648C133.389 21.7564 133.749 22.9859 134.47 23.7533C135.206 24.5208 136.24 24.9045 137.571 24.9045C138.902 24.9045 139.928 24.5208 140.649 23.7533C141.369 22.9859 141.729 21.7564 141.729 20.0648V10.9022H144.737V20.1823C144.737 22.5786 144.095 24.4112 142.81 25.6798C141.542 26.9485 139.787 27.5828 137.548 27.5828ZM151.582 27.3479V13.4865H146.131V10.9022H160.087V13.4865H154.636V27.3479H151.582ZM173.468 10.9022H176.522V27.3479H173.468V10.9022ZM164.963 27.3479H161.909V10.9022H164.963V27.3479ZM173.703 20.2997H164.705V17.6919H173.703V20.2997Z" fill="#478CD1"/>
<path d="M188.15 3.556C188.149 3.66858 188.114 3.77818 188.048 3.86942C187.982 3.96067 187.889 4.02897 187.782 4.06474L186.835 4.37704C186.538 4.47646 186.268 4.64388 186.047 4.86598C185.825 5.08809 185.659 5.35876 185.561 5.65646L185.233 6.59839C185.196 6.70349 185.127 6.79479 185.037 6.86032C184.969 6.90965 184.889 6.94203 184.806 6.95482C184.723 6.96762 184.637 6.96045 184.557 6.9339C184.477 6.90736 184.404 6.8622 184.345 6.80212C184.286 6.74205 184.242 6.66878 184.216 6.58831L183.899 5.64134C183.796 5.34275 183.624 5.07322 183.395 4.85556C183.174 4.62868 182.903 4.45625 182.604 4.35185L181.657 4.03452C181.55 4.00076 181.456 3.93372 181.39 3.84311C181.325 3.75111 181.29 3.6411 181.29 3.52829C181.29 3.41549 181.325 3.30547 181.39 3.21348C181.457 3.12021 181.552 3.05126 181.662 3.01703L182.604 2.6997C182.907 2.59774 183.181 2.42508 183.405 2.19599C183.631 1.97285 183.804 1.70034 183.908 1.40013L184.221 0.468273C184.25 0.361806 184.314 0.268001 184.402 0.201309C184.491 0.130205 184.601 0.0911522 184.714 0.0904931C184.827 0.0877793 184.937 0.119405 185.032 0.18116C185.127 0.241207 185.2 0.331683 185.238 0.438051L185.555 1.40013C185.66 1.70034 185.832 1.97285 186.059 2.19599C186.281 2.42441 186.554 2.59703 186.855 2.6997L187.797 3.03214C187.903 3.06531 187.995 3.13261 188.059 3.22355C188.124 3.32127 188.157 3.43763 188.15 3.556Z" fill="#478CD1"/>
<path d="M182.482 7.46277C182.482 7.52365 182.463 7.58291 182.427 7.63225C182.391 7.68158 182.341 7.71851 182.284 7.73785L181.772 7.90672C181.611 7.96047 181.465 8.051 181.345 8.17109C181.226 8.29119 181.136 8.43754 181.082 8.5985L180.905 9.10781C180.885 9.16464 180.848 9.21401 180.799 9.24944C180.762 9.27611 180.719 9.29362 180.674 9.30054C180.629 9.30746 180.583 9.30358 180.54 9.28923C180.496 9.27487 180.457 9.25046 180.425 9.21797C180.393 9.18549 180.369 9.14587 180.355 9.10237L180.184 8.59033C180.128 8.42888 180.035 8.28314 179.911 8.16546C179.792 8.04278 179.646 7.94954 179.484 7.8931L178.972 7.72151C178.914 7.70326 178.863 7.66701 178.827 7.61802C178.792 7.56827 178.773 7.50879 178.773 7.44779C178.773 7.3868 178.792 7.32731 178.827 7.27757C178.863 7.22714 178.915 7.18986 178.974 7.17135L179.484 6.99977C179.647 6.94464 179.796 6.85128 179.917 6.72741C180.039 6.60675 180.133 6.45941 180.189 6.29708L180.358 5.79322C180.374 5.73565 180.408 5.68493 180.456 5.64887C180.504 5.61043 180.563 5.58931 180.625 5.58895C180.686 5.58749 180.745 5.60459 180.796 5.63798C180.848 5.67045 180.887 5.71937 180.908 5.77688L181.079 6.29708C181.136 6.45941 181.229 6.60675 181.352 6.72741C181.472 6.85092 181.619 6.94425 181.782 6.99977L182.291 7.17952C182.349 7.19746 182.399 7.23384 182.433 7.28302C182.468 7.33585 182.486 7.39877 182.482 7.46277Z" fill="#478CD1"/>
</svg>
