<svg width="189" height="34" viewBox="0 0 189 34" fill="none" xmlns="http://www.w3.org/2000/svg">
<path d="M22.938 7.93958V9.76689C19.8758 12.222 11.1207 19.2409 9.3448 20.6646C7.37617 19.1816 0.80584 14.2322 0.216797 13.7885V7.93958C0.216797 7.93958 4.62655 6.12305 11.5774 6.12305C18.5282 6.12305 22.938 7.93958 22.938 7.93958Z" fill="#3475B5"/>
<path d="M9.33759 25.9933C9.52733 25.7966 18.6512 16.433 22.938 12.0322V15.2216C22.938 28.9557 11.5704 31.5724 11.5704 31.5724C11.5704 31.5724 0.66022 29.0609 0.216797 16.0452C2.87832 18.9485 8.99886 25.6204 9.33759 25.9933Z" fill="#1F2631"/>
<path d="M0.216797 16.1323V13.3623L9.33169 20.2986L22.938 9.30518V12.075L9.33169 26.1405L0.216797 16.1323Z" fill="white"/>
<path d="M27.5484 27.3477V10.9019H29.8978V27.3477H27.5484ZM41.1413 14.7784C42.1593 14.7784 43.0521 14.9742 43.8196 15.3658C44.6027 15.7573 45.2135 16.3525 45.6521 17.1513C46.0907 17.9501 46.3099 18.9603 46.3099 20.182V27.3477H44.0545V20.4405C44.0545 19.2344 43.7569 18.326 43.1617 17.7152C42.5822 17.1043 41.7599 16.7989 40.6949 16.7989C39.8961 16.7989 39.1991 16.9555 38.6039 17.2688C38.0088 17.582 37.5467 18.0441 37.2178 18.6549C36.9045 19.2658 36.7479 20.0254 36.7479 20.9338V27.3477H34.4925V14.8959H36.6539V18.2555L36.3015 17.3628C36.7088 16.5483 37.3353 15.914 38.181 15.4597C39.0268 15.0055 40.0136 14.7784 41.1413 14.7784ZM54.055 27.4886C53.0213 27.4886 52.0345 27.3477 51.0948 27.0657C50.1707 26.7838 49.4424 26.4392 48.9099 26.032L49.8496 24.2465C50.3821 24.6067 51.04 24.9121 51.8231 25.1627C52.6062 25.4133 53.405 25.5386 54.2195 25.5386C55.2689 25.5386 56.0207 25.3898 56.4749 25.0922C56.9448 24.7947 57.1797 24.3796 57.1797 23.8471C57.1797 23.4555 57.0387 23.1501 56.7568 22.9308C56.4749 22.7115 56.099 22.5471 55.6291 22.4374C55.1749 22.3278 54.6659 22.2338 54.102 22.1555C53.5382 22.0615 52.9743 21.9519 52.4104 21.8266C51.8466 21.6856 51.3297 21.4977 50.8599 21.2627C50.39 21.0121 50.0141 20.6754 49.7321 20.2525C49.4502 19.8139 49.3093 19.2344 49.3093 18.514C49.3093 17.7621 49.5207 17.1043 49.9436 16.5405C50.3665 15.9766 50.9617 15.5459 51.7291 15.2483C52.5123 14.935 53.4363 14.7784 54.5014 14.7784C55.3159 14.7784 56.1381 14.8802 56.9683 15.0838C57.814 15.2718 58.5032 15.5459 59.0357 15.9061L58.0725 17.6917C57.5086 17.3158 56.9213 17.0573 56.3104 16.9164C55.6996 16.7754 55.0888 16.7049 54.4779 16.7049C53.4912 16.7049 52.755 16.8694 52.2695 17.1983C51.7839 17.5115 51.5412 17.9188 51.5412 18.42C51.5412 18.8429 51.6821 19.1718 51.9641 19.4067C52.2617 19.626 52.6376 19.7983 53.0918 19.9236C53.5616 20.0489 54.0785 20.1585 54.6424 20.2525C55.2062 20.3308 55.7701 20.4405 56.3339 20.5814C56.8978 20.7067 57.4068 20.8868 57.861 21.1218C58.3309 21.3567 58.7068 21.6856 58.9887 22.1085C59.2863 22.5314 59.4351 23.0953 59.4351 23.8001C59.4351 24.5519 59.2158 25.2019 58.7773 25.7501C58.3387 26.2983 57.7201 26.729 56.9213 27.0422C56.1225 27.3398 55.1671 27.4886 54.055 27.4886ZM66.5297 27.4886C65.2767 27.4886 64.3056 27.1519 63.6165 26.4784C62.9273 25.8049 62.5828 24.8416 62.5828 23.5886V12.1706H64.8382V23.4947C64.8382 24.1681 65.0026 24.685 65.3315 25.0453C65.6761 25.4055 66.1617 25.5856 66.7882 25.5856C67.493 25.5856 68.0803 25.3898 68.5502 24.9983L69.255 26.6193C68.9104 26.9169 68.4954 27.1362 68.0098 27.2772C67.54 27.4181 67.0466 27.4886 66.5297 27.4886ZM60.4683 16.7519V14.8959H68.4092V16.7519H60.4683ZM79.7113 27.3477V24.7163L79.5938 24.223V19.7356C79.5938 18.7802 79.3119 18.0441 78.748 17.5272C78.1998 16.9947 77.3697 16.7284 76.2577 16.7284C75.5215 16.7284 74.801 16.8537 74.0962 17.1043C73.3914 17.3393 72.7962 17.6603 72.3107 18.0676L71.3709 16.376C72.0131 15.8591 72.7806 15.4676 73.6733 15.2013C74.5818 14.9194 75.5294 14.7784 76.5161 14.7784C78.2233 14.7784 79.539 15.1935 80.4631 16.0236C81.3872 16.8537 81.8492 18.1224 81.8492 19.8296V27.3477H79.7113ZM75.6233 27.4886C74.6992 27.4886 73.8848 27.332 73.18 27.0187C72.4908 26.7055 71.9583 26.2748 71.5824 25.7266C71.2065 25.1627 71.0185 24.5284 71.0185 23.8236C71.0185 23.1501 71.1752 22.5392 71.4884 21.991C71.8173 21.4429 72.342 21.0043 73.0625 20.6754C73.7986 20.3465 74.7854 20.182 76.0227 20.182H79.9697V21.8031H76.1167C74.989 21.8031 74.2294 21.991 73.8378 22.367C73.4462 22.7429 73.2504 23.1971 73.2504 23.7296C73.2504 24.3404 73.4932 24.8338 73.9788 25.2097C74.4643 25.57 75.1378 25.7501 75.9992 25.7501C76.845 25.7501 77.5812 25.5621 78.2077 25.1862C78.8498 24.8103 79.3119 24.2621 79.5938 23.5416L80.0402 25.0922C79.7426 25.8284 79.2179 26.4157 78.4661 26.8543C77.7143 27.2772 76.7667 27.4886 75.6233 27.4886ZM92.6718 14.7784C93.6899 14.7784 94.5827 14.9742 95.3501 15.3658C96.1333 15.7573 96.7441 16.3525 97.1827 17.1513C97.6212 17.9501 97.8405 18.9603 97.8405 20.182V27.3477H95.5851V20.4405C95.5851 19.2344 95.2875 18.326 94.6923 17.7152C94.1128 17.1043 93.2905 16.7989 92.2254 16.7989C91.4266 16.7989 90.7297 16.9555 90.1345 17.2688C89.5393 17.582 89.0773 18.0441 88.7483 18.6549C88.4351 19.2658 88.2785 20.0254 88.2785 20.9338V27.3477H86.0231V14.8959H88.1845V18.2555L87.8321 17.3628C88.2393 16.5483 88.8658 15.914 89.7116 15.4597C90.5574 15.0055 91.5441 14.7784 92.6718 14.7784ZM106.29 27.4886C105.037 27.4886 104.066 27.1519 103.377 26.4784C102.688 25.8049 102.343 24.8416 102.343 23.5886V12.1706H104.599V23.4947C104.599 24.1681 104.763 24.685 105.092 25.0453C105.437 25.4055 105.922 25.5856 106.549 25.5856C107.254 25.5856 107.841 25.3898 108.311 24.9983L109.016 26.6193C108.671 26.9169 108.256 27.1362 107.771 27.2772C107.301 27.4181 106.807 27.4886 106.29 27.4886ZM100.229 16.7519V14.8959H108.17V16.7519H100.229Z" fill="#2B2B2B"/>
<path d="M111.367 27.3477L118.767 10.9019H121.774L129.198 27.3477H126.003L119.636 12.523H120.858L114.515 27.3477H111.367ZM114.773 23.5416L115.595 21.1453H124.476L125.298 23.5416H114.773ZM137.548 27.5826C135.292 27.5826 133.522 26.9483 132.238 25.6796C130.969 24.4109 130.335 22.5784 130.335 20.182V10.9019H133.389V20.0645C133.389 21.7561 133.749 22.9856 134.47 23.7531C135.206 24.5206 136.24 24.9043 137.571 24.9043C138.902 24.9043 139.928 24.5206 140.649 23.7531C141.369 22.9856 141.729 21.7561 141.729 20.0645V10.9019H144.737V20.182C144.737 22.5784 144.095 24.4109 142.81 25.6796C141.542 26.9483 139.787 27.5826 137.548 27.5826ZM151.582 27.3477V13.4863H146.131V10.9019H160.087V13.4863H154.636V27.3477H151.582ZM173.468 10.9019H176.522V27.3477H173.468V10.9019ZM164.963 27.3477H161.909V10.9019H164.963V27.3477ZM173.703 20.2995H164.705V17.6917H173.703V20.2995Z" fill="#3475B5"/>
<path d="M188.15 3.556C188.15 3.66858 188.114 3.77818 188.048 3.86942C187.982 3.96067 187.889 4.02897 187.783 4.06474L186.836 4.37704C186.538 4.47646 186.268 4.64388 186.047 4.86598C185.826 5.08809 185.66 5.35876 185.561 5.65646L185.234 6.59839C185.196 6.70349 185.128 6.79479 185.038 6.86032C184.969 6.90965 184.89 6.94203 184.806 6.95482C184.723 6.96762 184.638 6.96045 184.558 6.9339C184.477 6.90736 184.405 6.8622 184.346 6.80212C184.286 6.74205 184.242 6.66878 184.217 6.58831L183.899 5.64134C183.797 5.34275 183.624 5.07322 183.396 4.85556C183.175 4.62868 182.904 4.45625 182.605 4.35185L181.658 4.03452C181.551 4.00076 181.457 3.93372 181.39 3.84311C181.325 3.75111 181.29 3.6411 181.29 3.52829C181.29 3.41549 181.325 3.30547 181.39 3.21348C181.457 3.12021 181.553 3.05126 181.662 3.01703L182.604 2.6997C182.907 2.59774 183.182 2.42508 183.405 2.19599C183.632 1.97285 183.805 1.70034 183.909 1.40013L184.221 0.468273C184.251 0.361806 184.314 0.268001 184.402 0.201309C184.491 0.130205 184.601 0.0911522 184.715 0.0904931C184.827 0.0877793 184.938 0.119405 185.032 0.18116C185.128 0.241207 185.2 0.331683 185.239 0.438051L185.556 1.40013C185.66 1.70034 185.833 1.97285 186.06 2.19599C186.281 2.42441 186.554 2.59703 186.855 2.6997L187.797 3.03214C187.903 3.06531 187.995 3.13261 188.059 3.22355C188.125 3.32127 188.157 3.43763 188.15 3.556Z" fill="#3475B5"/>
<path d="M182.483 7.46277C182.482 7.52365 182.463 7.58291 182.427 7.63225C182.392 7.68158 182.341 7.71851 182.284 7.73785L181.772 7.90672C181.611 7.96047 181.465 8.051 181.345 8.17109C181.226 8.29119 181.136 8.43754 181.083 8.5985L180.906 9.10781C180.885 9.16464 180.848 9.21401 180.799 9.24944C180.762 9.27611 180.72 9.29362 180.675 9.30054C180.629 9.30746 180.583 9.30358 180.54 9.28923C180.497 9.27487 180.457 9.25046 180.425 9.21797C180.393 9.18549 180.369 9.14587 180.356 9.10237L180.184 8.59033C180.129 8.42888 180.035 8.28314 179.912 8.16546C179.792 8.04278 179.646 7.94954 179.484 7.8931L178.972 7.72151C178.914 7.70326 178.863 7.66701 178.827 7.61802C178.792 7.56827 178.773 7.50879 178.773 7.44779C178.773 7.3868 178.792 7.32731 178.827 7.27757C178.864 7.22714 178.915 7.18986 178.975 7.17135L179.484 6.99977C179.648 6.94464 179.796 6.85128 179.917 6.72741C180.039 6.60675 180.133 6.45941 180.189 6.29708L180.358 5.79322C180.374 5.73565 180.408 5.68493 180.456 5.64887C180.504 5.61043 180.563 5.58931 180.625 5.58895C180.686 5.58749 180.746 5.60459 180.796 5.63798C180.848 5.67045 180.888 5.71937 180.908 5.77688L181.08 6.29708C181.136 6.45941 181.23 6.60675 181.352 6.72741C181.472 6.85092 181.619 6.94425 181.782 6.99977L182.292 7.17952C182.349 7.19746 182.399 7.23384 182.433 7.28302C182.469 7.33585 182.486 7.39877 182.483 7.46277Z" fill="#3475B5"/>
</svg>
