<svg width="32" height="33" viewBox="0 0 32 33" fill="none" xmlns="http://www.w3.org/2000/svg">
<path d="M30.53 8.26871C30.386 8.17886 30.2216 8.12713 30.0521 8.11838C29.8826 8.10963 29.7137 8.14416 29.5613 8.21871C24.195 10.8437 20.3625 9.61371 16.3113 8.31621C12.0613 6.95496 7.655 5.54871 1.5675 8.52121C1.39741 8.6028 1.25387 8.73083 1.15345 8.89053C1.05304 9.05022 0.999837 9.23507 1 9.42371V24.415C0.999976 24.5846 1.04312 24.7515 1.12538 24.8999C1.20764 25.0483 1.3263 25.1733 1.4702 25.2632C1.6141 25.3531 1.77851 25.4049 1.94794 25.4137C2.11738 25.4226 2.28628 25.3882 2.43875 25.3137C7.805 22.6887 11.6375 23.9187 15.695 25.2162C18.1 25.985 20.55 26.7687 23.32 26.7687C25.4562 26.7687 27.7863 26.3037 30.4338 25.0112C30.6019 24.9291 30.7437 24.8015 30.8429 24.6428C30.9421 24.4842 30.9948 24.3008 30.995 24.1137V9.12246C30.9965 8.95235 30.9546 8.78467 30.8732 8.63527C30.7919 8.48588 30.6737 8.35971 30.53 8.26871ZM29 23.4775C23.925 25.7487 20.2188 24.5637 16.305 23.3125C13.9 22.5437 11.45 21.76 8.68 21.76C6.73388 21.7694 4.80755 22.1513 3.005 22.885V10.06C8.08 7.78871 11.7863 8.97371 15.7 10.225C19.6138 11.4762 23.6425 12.7687 29 10.655V23.4775ZM16 12.7687C15.2089 12.7687 14.4355 13.0033 13.7777 13.4428C13.1199 13.8824 12.6072 14.5071 12.3045 15.238C12.0017 15.9689 11.9225 16.7731 12.0769 17.5491C12.2312 18.325 12.6122 19.0377 13.1716 19.5971C13.731 20.1565 14.4437 20.5375 15.2196 20.6919C15.9956 20.8462 16.7998 20.767 17.5307 20.4642C18.2616 20.1615 18.8864 19.6488 19.3259 18.991C19.7654 18.3332 20 17.5598 20 16.7687C20 15.7078 19.5786 14.6904 18.8284 13.9403C18.0783 13.1901 17.0609 12.7687 16 12.7687ZM16 18.7687C15.6044 18.7687 15.2178 18.6514 14.8889 18.4316C14.56 18.2119 14.3036 17.8995 14.1522 17.5341C14.0009 17.1686 13.9613 16.7665 14.0384 16.3785C14.1156 15.9906 14.3061 15.6342 14.5858 15.3545C14.8655 15.0748 15.2219 14.8843 15.6098 14.8071C15.9978 14.73 16.3999 14.7696 16.7654 14.9209C17.1308 15.0723 17.4432 15.3287 17.6629 15.6576C17.8827 15.9865 18 16.3731 18 16.7687C18 17.2991 17.7893 17.8078 17.4142 18.1829C17.0391 18.558 16.5304 18.7687 16 18.7687ZM7 12.7687V18.7687C7 19.0339 6.89464 19.2883 6.70711 19.4758C6.51957 19.6634 6.26522 19.7687 6 19.7687C5.73478 19.7687 5.48043 19.6634 5.29289 19.4758C5.10536 19.2883 5 19.0339 5 18.7687V12.7687C5 12.5035 5.10536 12.2491 5.29289 12.0616C5.48043 11.8741 5.73478 11.7687 6 11.7687C6.26522 11.7687 6.51957 11.8741 6.70711 12.0616C6.89464 12.2491 7 12.5035 7 12.7687ZM25 20.7687V14.7687C25 14.5035 25.1054 14.2491 25.2929 14.0616C25.4804 13.8741 25.7348 13.7687 26 13.7687C26.2652 13.7687 26.5196 13.8741 26.7071 14.0616C26.8946 14.2491 27 14.5035 27 14.7687V20.7687C27 21.0339 26.8946 21.2883 26.7071 21.4758C26.5196 21.6634 26.2652 21.7687 26 21.7687C25.7348 21.7687 25.4804 21.6634 25.2929 21.4758C25.1054 21.2883 25 21.0339 25 20.7687Z" fill="#90550A"/>
</svg>
