<svg width="91" height="29" viewBox="0 0 91 29" fill="none" xmlns="http://www.w3.org/2000/svg">
<g clip-path="url(#clip0_40004443_19090)">
<mask id="mask0_40004443_19090" style="mask-type:luminance" maskUnits="userSpaceOnUse" x="0" y="0" width="91" height="13">
<path d="M0.375488 0.891113H90.2256V12.5675H0.375488V0.891113Z" fill="white"/>
</mask>
<g mask="url(#mask0_40004443_19090)">
<path fill-rule="evenodd" clip-rule="evenodd" d="M82.2021 10.5324C80.4881 10.5324 79.043 9.38218 78.5968 7.80895H88.106L89.4164 5.77027H78.5968C79.0412 4.19349 80.4881 3.04668 82.2021 3.04668H88.7311L90.0362 1.00273H82.0534C78.8606 1.00273 76.2699 3.59169 76.2699 6.78955C76.2699 9.98386 78.8606 12.5676 82.0534 12.5676H88.9205L90.2257 10.5324H82.2021ZM54.9901 12.5676H61.8573L63.1571 10.5324H55.1425C53.0654 10.5324 51.392 8.85296 51.392 6.78955C51.392 4.71721 53.0654 3.04668 55.1425 3.04668H61.6661L62.9818 1.00273H54.9901C51.7921 1.00273 49.1943 3.59169 49.1943 6.78955C49.1943 9.98386 51.7921 12.5676 54.9901 12.5676ZM12.7365 10.5324H6.31209C4.24476 10.5324 2.56951 8.85296 2.56951 6.78955C2.56951 4.71721 4.24476 3.04668 6.31209 3.04668H12.7365C14.8111 3.04668 16.4845 4.71721 16.4845 6.78955C16.4845 8.85296 14.8111 10.5324 12.7365 10.5324ZM6.16433 12.5676H12.8906C16.0905 12.5676 18.667 9.98386 18.667 6.78955C18.667 3.59169 16.0905 1.00273 12.8906 1.00273H6.16433C2.96802 1.00273 0.375488 3.59169 0.375488 6.78955C0.375488 9.98386 2.96802 12.5676 6.16433 12.5676ZM29.5893 8.82297C31.7559 8.82297 33.4979 7.07093 33.4979 4.91193C33.4979 2.75282 31.7559 1.00273 29.5893 1.00273H19.8534V12.5676H22.0785V3.04668H29.4414C30.4748 3.04668 31.3123 3.88017 31.3123 4.91193C31.3123 5.94186 30.4748 6.78955 29.4414 6.78955L23.1666 6.78417L29.8125 12.5676H33.0411L28.5773 8.82297H29.5893ZM66.3995 10.5253V1.00273H64.17V11.4615C64.17 11.7464 64.2904 12.0261 64.4994 12.2278C64.7119 12.4473 65.004 12.5676 65.3104 12.5676H75.4484L76.7693 10.5253H66.3995ZM39.1645 8.49019H45.1003L41.9641 3.43246L36.2073 12.5676H33.5776L40.5865 1.60429C40.8858 1.16013 41.3993 0.891113 41.9606 0.891113C42.5096 0.891113 43.0142 1.15131 43.3135 1.58483L50.3436 12.5676H47.721L46.4851 10.5253H40.4749L39.1645 8.49019Z" fill="#ED4730"/>
</g>
<path fill-rule="evenodd" clip-rule="evenodd" d="M12.9395 22.5569C13.8636 22.5569 14.4439 23.2228 14.5728 24.2054H11.2594C11.4335 23.2078 12.0263 22.5569 12.9395 22.5569ZM15.6866 26.9395H13.1837C12.2006 26.9395 11.5062 26.5768 11.2888 25.5787H16.686C16.701 25.3763 16.7151 25.1744 16.7151 25.0005C16.7151 22.8021 15.5289 20.7915 12.9395 20.7915C10.6807 20.7915 9.10352 22.6134 9.10352 24.8264V24.8564C9.10352 27.2279 10.8247 28.8618 13.1561 28.8618H14.4426L15.6866 26.9395Z" fill="white"/>
<path fill-rule="evenodd" clip-rule="evenodd" d="M17.8901 20.9364H20.0911V22.4998C20.5397 21.4286 21.2635 20.7347 22.5633 20.7919V23.0918H22.4498C20.988 23.0918 20.0911 23.9745 20.0911 25.8247V28.689H17.8901V20.9364Z" fill="white"/>
<path fill-rule="evenodd" clip-rule="evenodd" d="M35.8546 22.5569C36.7807 22.5569 37.3609 23.2228 37.4895 24.2054H34.177C34.3489 23.2078 34.9436 22.5569 35.8546 22.5569ZM38.6045 26.9395H36.101C35.1151 26.9395 34.4225 26.5768 34.2048 25.5787H39.6027C39.6165 25.3763 39.6315 25.1744 39.6315 25.0005C39.6315 22.8021 38.4453 20.7915 35.8546 20.7915C33.5974 20.7915 32.02 22.6134 32.02 24.8264V24.8564C32.02 27.2279 33.7414 28.8618 36.0712 28.8618H37.3594L38.6045 26.9395Z" fill="white"/>
<path fill-rule="evenodd" clip-rule="evenodd" d="M40.8066 20.9364H43.0079V22.4998C43.4553 21.4286 44.1797 20.7347 45.4807 20.7919V23.0918H45.3641C43.9027 23.0918 43.0079 23.9745 43.0079 25.8247V28.689H40.8066V20.9364Z" fill="white"/>
<path fill-rule="evenodd" clip-rule="evenodd" d="M25.9385 28.6887H23.7388V20.9361H25.9385V22.0373C26.4461 21.3853 27.0959 20.7915 28.2112 20.7915C29.8759 20.7915 30.8443 21.8921 30.8443 23.6708V28.6887H28.6458V24.3634C28.6458 23.3227 28.1529 22.7886 27.3132 22.7886C26.4746 22.7886 25.9385 23.3227 25.9385 24.3634V28.6887Z" fill="white"/>
<mask id="mask1_40004443_19090" style="mask-type:luminance" maskUnits="userSpaceOnUse" x="0" y="18" width="10" height="11">
<path d="M0.217773 18.3687H9.52257V28.8775H0.217773V18.3687Z" fill="white"/>
</mask>
<g mask="url(#mask1_40004443_19090)">
<path fill-rule="evenodd" clip-rule="evenodd" d="M6.25781 26.8187H8.47486L7.13868 28.8775H5.83342L5.2742 28.8673C2.36186 28.7875 0.217773 26.5134 0.217773 23.6492V23.6201C0.217773 20.733 2.39553 18.3687 5.51532 18.3687C7.4326 18.3687 8.57933 19.0071 9.52262 19.9359L8.09903 21.574C7.31611 20.8646 6.51829 20.4289 5.50146 20.4289C3.78807 20.4289 2.55441 21.8503 2.55441 23.5913V23.6201C2.55441 25.361 3.75921 26.8115 5.50146 26.8115L6.25781 26.8187Z" fill="white"/>
</g>
</g>
<defs>
<clipPath id="clip0_40004443_19090">
<rect width="90.0078" height="28.1274" fill="white" transform="translate(0.217773 0.820801)"/>
</clipPath>
</defs>
</svg>
