<svg width="29" height="29" viewBox="0 0 29 29" fill="none" xmlns="http://www.w3.org/2000/svg">
<path d="M18.0742 1.51855C18.2637 1.51403 18.4499 1.5679 18.6084 1.67188L18.6221 1.67969C18.7331 1.74942 18.8242 1.84582 18.8877 1.95898L18.9414 2.07812L19.8994 4.9834V4.98438L19.9033 4.99512C20.2563 6.01147 20.8402 6.93328 21.6045 7.68945V7.69043C22.3609 8.46957 23.2915 9.05797 24.3193 9.4082L27.1738 10.416L27.1865 10.4209L27.2002 10.4248C27.3624 10.4757 27.5029 10.5785 27.6016 10.7168C27.7078 10.8791 27.7592 11.0673 27.748 11.2559L27.7471 11.2773V11.2979C27.7462 11.4833 27.6867 11.6642 27.5781 11.8145C27.4695 11.9645 27.3163 12.0769 27.1406 12.1357L24.2666 13.084L24.2637 13.085C23.2496 13.4241 22.3288 13.9953 21.5742 14.7529C20.8225 15.5077 20.2565 16.4266 19.9209 17.4375L18.9277 20.2939C18.8644 20.4711 18.749 20.6249 18.5967 20.7354C18.4852 20.8152 18.3562 20.8679 18.2207 20.8887C18.1186 20.9043 18.0148 20.9015 17.9141 20.8809L17.8145 20.8545C17.6835 20.8111 17.5647 20.7368 17.4678 20.6387C17.3711 20.5406 17.2985 20.4213 17.2568 20.29V20.2891L17.2529 20.2773L16.2891 17.4004L16.2871 17.3955L16.1445 17.0166C15.7862 16.1458 15.2476 15.3585 14.5635 14.707C13.8144 13.9444 12.9001 13.3641 11.8906 13.0117L11.8818 13.0078L9.00488 12.0439L8.99121 12.04L8.86523 11.9883C8.74695 11.9291 8.64358 11.8431 8.56348 11.7363C8.45637 11.5842 8.39848 11.4029 8.39844 11.2168C8.39844 11.0295 8.45607 10.8461 8.56445 10.6934C8.67284 10.5439 8.82761 10.434 9.00391 10.3789L9.01172 10.376L9.01953 10.374L11.8818 9.40918C12.9157 9.0614 13.8521 8.47269 14.6133 7.69141L14.6123 7.69043C15.3773 6.93396 15.9622 6.01217 16.3154 4.99512L16.3184 4.9873L17.2666 2.15527L17.2734 2.13672L17.2783 2.11719C17.3241 1.95235 17.4232 1.8074 17.5596 1.7041L17.5684 1.69727L17.5762 1.69043C17.7135 1.58028 17.8845 1.51958 18.0605 1.51855V1.51953L18.0742 1.51855Z" stroke="#478CD1" stroke-width="1.5"/>
<path d="M5.62988 17.9785H5.63965C5.72281 17.9766 5.80443 18.0003 5.87402 18.0459L5.88281 18.0518C5.92963 18.0811 5.96843 18.1212 5.99512 18.1689L6.01758 18.2188L6.53418 19.7871L6.53711 19.7949C6.73251 20.3575 7.05579 20.8675 7.47852 21.2861V21.2871C7.89783 21.719 8.41365 22.0451 8.9834 22.2393V22.2383L10.5264 22.7842L10.5352 22.7871L10.543 22.79C10.6104 22.8111 10.6696 22.853 10.7109 22.9102C10.7571 22.9811 10.7782 23.0627 10.7734 23.1436L10.7725 23.1572V23.1709C10.7722 23.2314 10.7586 23.2913 10.7314 23.3447L10.7002 23.3955C10.6534 23.4602 10.5872 23.5084 10.5117 23.5342L8.95605 24.0479H8.9541C8.39195 24.2358 7.88124 24.5527 7.46289 24.9727C7.09669 25.3403 6.80955 25.7787 6.61914 26.2598L6.5459 26.4609L6.00977 28.0039C5.98205 28.0814 5.93166 28.1488 5.86523 28.1973C5.81689 28.232 5.761 28.2546 5.70215 28.2637C5.64324 28.2727 5.58294 28.2678 5.52637 28.249C5.46992 28.2303 5.41876 28.1986 5.37695 28.1562C5.33505 28.1138 5.30317 28.0618 5.28516 28.0049L5.2832 27.9971L4.76172 26.4414L4.76074 26.4375L4.68164 26.2285C4.51125 25.8142 4.26717 25.4343 3.96191 25.1064L3.80469 24.9463C3.38991 24.5247 2.88373 24.2038 2.3252 24.0088L2.31934 24.0068L0.763672 23.4854L0.754883 23.4824L0.700195 23.4609C0.665565 23.4436 0.634031 23.4207 0.606445 23.3936L0.568359 23.3496C0.523875 23.2843 0.500019 23.2071 0.5 23.1279C0.5 23.0471 0.523998 22.9676 0.570312 22.9014L0.571289 22.9023C0.617997 22.8373 0.684299 22.7885 0.760742 22.7646L0.771484 22.7617L2.31934 22.2402C2.89256 22.0474 3.41194 21.7203 3.83398 21.2871L3.83301 21.2861C4.25601 20.8674 4.5799 20.3578 4.77539 19.7949L4.77734 19.79L5.29004 18.2588L5.29492 18.2461L5.29785 18.2334C5.31228 18.1814 5.33917 18.1335 5.37598 18.0947L5.41602 18.0596L5.42676 18.0508C5.4843 18.0046 5.55613 17.979 5.62988 17.9785Z" stroke="#478CD1"/>
</svg>
