<svg width="188" height="200" viewBox="0 0 188 200" fill="none" xmlns="http://www.w3.org/2000/svg">
<path d="M91.1878 0.914578L0.491882 66.8889H187.508L96.8122 0.914578C95.1357 -0.304859 92.8642 -0.304859 91.1878 0.914578Z" fill="#32649A"/>
<path d="M187.508 66.8887L94.0001 134.909L0.49234 66.8887H187.508Z" fill="#486ACC"/>
<path d="M177.05 14.9519H10.9502V146.499H177.05V14.9519Z" fill="white" stroke="#040C2B" stroke-width="0.023903" stroke-miterlimit="10"/>
<path d="M66.6362 54.6232H62.3147V77.5697H58.2607V54.6232H53.9391V50.7987H66.6362V54.6232Z" fill="#478CD1"/>
<path d="M82.1629 77.5699H78.1091V65.9054H73.2903V77.5699H69.2365V50.7988H73.2903V62.0809H78.1091V50.7988H82.1629V77.5699Z" fill="#478CD1"/>
<path d="M99.4878 77.5699H95.3574L94.4778 71.4889H90.0033L89.1236 77.5699H85.0698L89.6973 50.7988H94.8603L99.4878 77.5699ZM92.1831 56.5355L90.5386 67.8175H93.9424L92.298 56.5355H92.1831Z" fill="#478CD1"/>
<path d="M115.589 77.5699H111.611L106.295 59.8244H106.219V77.5699H102.394V50.7988H106.907L111.687 66.7468H111.764V50.7988H115.588L115.589 77.5699Z" fill="#478CD1"/>
<path d="M128.439 61.4307L134.061 77.5699H129.739L125.762 65.8671L124.003 69.3091V77.5699H119.949V50.7988H124.003V61.9662H124.079L129.701 50.7988H133.946L128.439 61.4307Z" fill="#478CD1"/>
<path d="M75.4319 98.1842V110.269H71.378V98.146L65.756 83.4984H70.0395L73.4433 92.9829H73.5197L76.7705 83.4984H80.9774L75.4319 98.1842Z" fill="#478CD1"/>
<path d="M94.9752 89.8849V103.882C94.9752 108.089 92.4894 110.652 88.4355 110.652C84.3816 110.652 81.8957 108.089 81.8957 103.882V89.8849C81.8957 85.678 84.3816 83.1156 88.4355 83.1156C92.4894 83.1156 94.9752 85.678 94.9752 89.8849ZM85.9496 89.9231V103.844C85.9496 105.833 86.8292 106.904 88.4355 106.904C90.0418 106.904 90.9213 105.833 90.9213 103.844V89.9231C90.9213 87.9344 90.0418 86.8635 88.4355 86.8635C86.8292 86.8635 85.9496 87.9344 85.9496 89.9231Z" fill="#478CD1"/>
<path d="M111.229 104.265C111.229 108.472 108.819 110.652 104.919 110.652C101.094 110.652 98.6847 108.472 98.6847 104.265V83.4984H102.586V104.15C102.586 106.101 103.465 106.827 104.88 106.827C106.295 106.827 107.175 106.101 107.175 104.15V83.4984H111.229L111.229 104.265Z" fill="#478CD1"/>
<path d="M119.222 103.615H115.78L115.321 83.4984H119.681L119.222 103.615ZM119.643 110.269H115.359V105.986H119.643V110.269Z" fill="#478CD1"/>
<g opacity="0.5">
<path d="M104.264 14.9519C103.006 22.2318 92.1747 30.2279 85.2629 31.5234C73.536 33.7206 68.8549 26.8288 54.535 29.3999C40.2859 31.9575 38.3211 39.965 27.2483 41.7367C22.0231 42.5723 13.7995 41.163 10.9502 33.4433V14.9519H104.264Z" fill="#294F7B"/>
<path d="M177.05 103.92V146.499H126.996C127.45 136.898 134.249 127.282 135.514 125.493C144.168 113.253 161.267 102.755 177.05 103.92Z" fill="#294F7B"/>
<path d="M177.05 14.9517V78.8062C163.579 74.4769 150.328 56.9828 152.533 44.796C153.617 38.8012 157.826 37.4932 158.652 30.4542C159.416 23.9478 156.533 18.9932 153.646 14.9517H177.05Z" fill="#1F5F40"/>
<path d="M68.6159 146.499H10.9503V71.9922C24.4364 71.7828 40.6145 86.5756 41.3177 100.921C41.7958 110.673 35.0742 119.112 34.4518 123.581C33.249 132.218 57.1272 139.279 68.6159 146.499Z" fill="#1F5F40"/>
</g>
<path d="M143.522 111.605C143.069 111.605 142.624 111.4 142.166 110.982C140.608 109.56 140.497 107.137 141.918 105.579C143.339 104.021 145.763 103.91 147.321 105.331C147.809 105.776 148.054 106.228 148.071 106.712C148.099 107.543 147.455 108.217 146.709 108.997C146.552 109.162 146.388 109.332 146.227 109.51C146.065 109.687 145.91 109.865 145.76 110.037C145.052 110.851 144.44 111.554 143.61 111.602C143.581 111.604 143.552 111.605 143.522 111.605ZM144.747 105.288C144.702 105.288 144.657 105.289 144.612 105.291C143.847 105.326 143.141 105.657 142.624 106.223C141.558 107.392 141.642 109.209 142.81 110.275C143.098 110.538 143.341 110.659 143.555 110.648C143.983 110.623 144.472 110.061 145.039 109.41C145.192 109.233 145.351 109.051 145.52 108.865C145.69 108.68 145.857 108.505 146.018 108.336C146.615 107.712 147.13 107.174 147.115 106.745C147.108 106.532 146.965 106.3 146.677 106.038C146.144 105.551 145.463 105.288 144.747 105.288Z" fill="#CDD7FB" stroke="#478CD1" stroke-width="0.0956122" stroke-miterlimit="10"/>
<path d="M144.541 124.516C144.165 124.516 143.8 124.35 143.428 124.01C142.828 123.464 142.478 122.716 142.441 121.906C142.404 121.095 142.684 120.319 143.231 119.72C143.778 119.12 144.525 118.77 145.336 118.733C146.146 118.694 146.923 118.976 147.522 119.523C147.919 119.885 148.118 120.257 148.132 120.659C148.155 121.342 147.648 121.872 147.06 122.487C146.939 122.613 146.815 122.743 146.692 122.878C146.569 123.012 146.451 123.148 146.337 123.279C145.779 123.921 145.296 124.475 144.614 124.514C144.59 124.516 144.565 124.516 144.541 124.516ZM145.477 119.686C145.445 119.686 145.412 119.686 145.379 119.688C144.824 119.713 144.312 119.953 143.937 120.364C143.563 120.775 143.37 121.307 143.396 121.862C143.421 122.417 143.661 122.929 144.072 123.304C144.266 123.481 144.426 123.567 144.559 123.56C144.84 123.543 145.217 123.11 145.616 122.651C145.734 122.516 145.855 122.376 145.986 122.233C146.116 122.09 146.245 121.956 146.369 121.826C146.789 121.387 147.186 120.972 147.176 120.691C147.172 120.562 147.071 120.406 146.877 120.229C146.491 119.877 145.997 119.686 145.477 119.686Z" fill="#CDD7FB" stroke="#478CD1" stroke-width="0.0956122" stroke-miterlimit="10"/>
<path d="M137.56 122.404C137.184 122.404 136.819 122.238 136.447 121.898C135.848 121.351 135.497 120.603 135.46 119.793C135.423 118.983 135.704 118.206 136.25 117.607C136.797 117.008 137.545 116.657 138.355 116.62C139.166 116.583 139.942 116.863 140.541 117.41C140.938 117.772 141.138 118.144 141.151 118.546C141.175 119.229 140.667 119.76 140.079 120.375C139.959 120.5 139.834 120.63 139.712 120.765C139.589 120.9 139.471 121.035 139.356 121.166C138.798 121.808 138.316 122.362 137.634 122.402C137.609 122.403 137.584 122.404 137.56 122.404ZM138.496 117.573C138.464 117.573 138.431 117.574 138.399 117.575C137.843 117.6 137.331 117.841 136.956 118.251C136.582 118.662 136.39 119.194 136.415 119.749C136.44 120.305 136.68 120.817 137.091 121.191C137.285 121.368 137.45 121.454 137.579 121.447C137.859 121.431 138.236 120.998 138.635 120.539C138.753 120.403 138.875 120.263 139.005 120.12C139.135 119.978 139.264 119.843 139.388 119.714C139.808 119.274 140.205 118.859 140.196 118.579C140.191 118.449 140.091 118.294 139.897 118.117C139.51 117.764 139.016 117.573 138.496 117.573Z" fill="#CDD7FB" stroke="#478CD1" stroke-width="0.0956122" stroke-miterlimit="10"/>
<path d="M150.51 113.45C150.057 113.45 149.612 113.246 149.153 112.827C148.399 112.139 147.957 111.198 147.911 110.177C147.864 109.157 148.217 108.179 148.906 107.424C149.112 107.199 149.332 106.936 149.564 106.658C150.483 105.561 151.525 104.317 152.642 104.242C153.086 104.212 153.495 104.364 153.857 104.693C154.602 105.374 154.884 106.572 154.649 108.069C154.449 109.345 153.9 110.604 153.214 111.355C153.053 111.533 152.898 111.711 152.748 111.883C152.039 112.697 151.428 113.4 150.598 113.448C150.568 113.45 150.539 113.45 150.51 113.45ZM152.751 105.194C152.735 105.194 152.72 105.195 152.706 105.196C151.996 105.243 151.054 106.368 150.297 107.272C150.058 107.558 149.832 107.828 149.612 108.069C148.546 109.237 148.63 111.055 149.798 112.121C150.086 112.384 150.329 112.505 150.543 112.493C150.971 112.469 151.46 111.906 152.027 111.255C152.18 111.079 152.339 110.897 152.508 110.711C153.065 110.1 153.535 109.005 153.705 107.921C153.885 106.769 153.706 105.85 153.212 105.4C153.021 105.226 152.863 105.194 152.751 105.194Z" fill="#CDD7FB" stroke="#478CD1" stroke-width="0.0956122" stroke-miterlimit="10"/>
<path d="M143.547 118.661C143.172 118.661 142.807 118.495 142.435 118.155C142.264 117.999 142.064 117.832 141.852 117.655C140.996 116.938 140.025 116.125 139.964 115.223C139.939 114.856 140.069 114.506 140.339 114.21C140.967 113.522 142.314 113.161 143.366 113.053C144.038 112.983 145.692 112.904 146.529 113.668C146.926 114.03 147.125 114.402 147.139 114.804C147.162 115.487 146.654 116.017 146.066 116.632C145.946 116.758 145.822 116.888 145.699 117.023C145.576 117.157 145.458 117.293 145.344 117.424C144.785 118.066 144.303 118.62 143.621 118.659C143.597 118.66 143.572 118.661 143.547 118.661ZM144.161 113.967C143.938 113.967 143.704 113.979 143.464 114.003C142.38 114.115 141.408 114.457 141.045 114.855C140.923 114.988 140.913 115.087 140.918 115.159C140.951 115.653 141.827 116.387 142.466 116.922C142.686 117.106 142.893 117.279 143.079 117.449C143.273 117.626 143.439 117.713 143.566 117.705C143.846 117.688 144.223 117.255 144.623 116.796C144.74 116.661 144.862 116.521 144.993 116.378C145.123 116.235 145.251 116.101 145.375 115.971C145.796 115.532 146.193 115.117 146.183 114.836C146.179 114.707 146.078 114.551 145.884 114.374C145.6 114.115 144.947 113.967 144.161 113.967Z" fill="#CDD7FB" stroke="#478CD1" stroke-width="0.0956122" stroke-miterlimit="10"/>
<path d="M152.038 121.406C151.655 121.406 151.316 121.142 151.081 120.928C149.524 119.507 149.413 117.083 150.834 115.525C151.522 114.771 152.464 114.329 153.484 114.282C154.505 114.237 155.482 114.589 156.237 115.278C156.511 115.528 156.868 115.916 156.793 116.389C156.709 116.924 156.178 117.165 155.563 117.446C155.036 117.686 154.439 117.958 154.012 118.425C153.586 118.893 153.37 119.512 153.179 120.059C152.956 120.697 152.764 121.248 152.239 121.381C152.171 121.398 152.104 121.406 152.038 121.406ZM153.662 115.235C153.618 115.235 153.573 115.236 153.528 115.238C152.762 115.273 152.057 115.604 151.54 116.17C151.024 116.736 150.759 117.469 150.794 118.234C150.829 119 151.16 119.706 151.726 120.222C151.86 120.344 151.948 120.402 151.998 120.428C152.082 120.298 152.193 119.983 152.276 119.744C152.486 119.142 152.748 118.393 153.306 117.781C153.864 117.169 154.586 116.84 155.167 116.576C155.397 116.471 155.701 116.332 155.822 116.236C155.791 116.189 155.727 116.106 155.592 115.984C155.06 115.498 154.379 115.235 153.662 115.235Z" fill="#CDD7FB" stroke="#478CD1" stroke-width="0.0956122" stroke-miterlimit="10"/>
<path d="M173.225 142.674L173.225 18.7764L14.7752 18.7764L14.7752 142.674L173.225 142.674Z" stroke="#CDD7FB" stroke-width="0.956122" stroke-miterlimit="10"/>
<path opacity="0.1" d="M187.508 66.8887L94.0001 134.909L0.49234 66.8887H2.85778L94.0001 133.188L185.142 66.8887H187.508Z" fill="black"/>
<path d="M187.508 66.8887V194.562C187.508 197.129 185.427 199.21 182.86 199.21H5.1401C2.57272 199.21 0.491821 197.129 0.491821 194.562V66.8887L93.9999 134.909L187.508 66.8887Z" fill="#478CD1"/>
<g opacity="0.2">
<path d="M182.28 193.322C167.467 181.336 152.744 169.242 138.053 157.109L127.039 148.005L116.041 138.881L105.055 129.743L99.5681 125.167L96.8249 122.879L96.782 122.843L96.7437 122.814L96.6671 122.756L96.5146 122.64C96.4121 122.563 96.2993 122.502 96.1929 122.431C96.0843 122.364 95.9665 122.314 95.8543 122.253C95.74 122.196 95.6184 122.155 95.5014 122.104C95.0224 121.927 94.5114 121.836 93.9999 121.836C93.4885 121.837 92.9775 121.928 92.4985 122.105C92.3815 122.155 92.26 122.196 92.1456 122.253C92.0336 122.314 91.9158 122.365 91.8072 122.432C91.7008 122.503 91.588 122.564 91.4855 122.64L91.333 122.756L91.2564 122.814L91.2181 122.843L91.1752 122.879L88.432 125.167L82.9453 129.744L71.96 138.883L60.9619 148.006L49.948 157.111C35.2575 169.244 20.5343 181.338 5.71988 193.322C20.1517 180.879 34.6748 168.546 49.2306 156.252L60.1513 147.036L71.088 137.839L82.0373 128.657L87.5179 124.073L90.2583 121.781L90.3012 121.745L90.3515 121.707L90.4525 121.629L90.6551 121.475C90.7915 121.374 90.9399 121.29 91.0826 121.198C91.2275 121.109 91.3828 121.038 91.5331 120.959C91.6856 120.884 91.8463 120.827 92.0031 120.761C92.6409 120.525 93.3203 120.402 94 120.402C94.6797 120.403 95.359 120.525 95.9968 120.761C96.1535 120.827 96.3141 120.884 96.4666 120.959C96.6169 121.039 96.7722 121.109 96.917 121.198C97.0596 121.29 97.208 121.374 97.3444 121.475L97.547 121.629L97.648 121.707L97.6984 121.746L97.7412 121.782L100.482 124.073L105.962 128.658L116.911 137.84L127.847 147.037L138.768 156.253C153.323 168.548 167.847 180.881 182.28 193.322Z" fill="black"/>
</g>
<path d="M90.9352 122.922L7.94574 192.238H95.7194H180.054L97.0643 122.922C95.29 121.44 92.7094 121.44 90.9352 122.922Z" fill="#478CD1"/>
</svg>
