<svg width="13" height="13" viewBox="0 0 13 13" fill="none" xmlns="http://www.w3.org/2000/svg">
<path d="M13.0001 5C13.0001 5.13261 12.9475 5.25979 12.8537 5.35355C12.7599 5.44732 12.6327 5.5 12.5001 5.5H11.5001V6.5C11.5001 6.63261 11.4475 6.75979 11.3537 6.85355C11.2599 6.94732 11.1327 7 11.0001 7C10.8675 7 10.7403 6.94732 10.6466 6.85355C10.5528 6.75979 10.5001 6.63261 10.5001 6.5V5.5H9.50013C9.36752 5.5 9.24034 5.44732 9.14657 5.35355C9.05281 5.25979 9.00013 5.13261 9.00013 5C9.00013 4.86739 9.05281 4.74021 9.14657 4.64645C9.24034 4.55268 9.36752 4.5 9.50013 4.5H10.5001V3.5C10.5001 3.36739 10.5528 3.24021 10.6466 3.14645C10.7403 3.05268 10.8675 3 11.0001 3C11.1327 3 11.2599 3.05268 11.3537 3.14645C11.4475 3.24021 11.5001 3.36739 11.5001 3.5V4.5H12.5001C12.6327 4.5 12.7599 4.55268 12.8537 4.64645C12.9475 4.74021 13.0001 4.86739 13.0001 5ZM7.00013 2.5H7.50013V3C7.50013 3.13261 7.55281 3.25979 7.64657 3.35355C7.74034 3.44732 7.86752 3.5 8.00013 3.5C8.13274 3.5 8.25991 3.44732 8.35368 3.35355C8.44745 3.25979 8.50013 3.13261 8.50013 3V2.5H9.00013C9.13274 2.5 9.25991 2.44732 9.35368 2.35355C9.44745 2.25979 9.50013 2.13261 9.50013 2C9.50013 1.86739 9.44745 1.74021 9.35368 1.64645C9.25991 1.55268 9.13274 1.5 9.00013 1.5H8.50013V1C8.50013 0.867392 8.44745 0.740215 8.35368 0.646447C8.25991 0.552678 8.13274 0.5 8.00013 0.5C7.86752 0.5 7.74034 0.552678 7.64657 0.646447C7.55281 0.740215 7.50013 0.867392 7.50013 1V1.5H7.00013C6.86752 1.5 6.74034 1.55268 6.64657 1.64645C6.55281 1.74021 6.50013 1.86739 6.50013 2C6.50013 2.13261 6.55281 2.25979 6.64657 2.35355C6.74034 2.44732 6.86752 2.5 7.00013 2.5ZM11.5483 8.5625C11.6065 8.63026 11.6454 8.71238 11.6612 8.80031C11.6769 8.88824 11.6688 8.97877 11.6376 9.0625C11.2907 10.0087 10.711 10.8522 9.95205 11.5153C9.19312 12.1784 8.27939 12.6396 7.2952 12.8564C6.311 13.0732 5.28805 13.0386 4.32075 12.7558C3.35345 12.473 2.47296 11.9512 1.76055 11.2383C1.04813 10.5255 0.526747 9.64474 0.244503 8.67728C-0.0377412 7.70982 -0.0717477 6.68685 0.145622 5.70277C0.362991 4.7187 0.824733 3.80524 1.48823 3.04668C2.15174 2.28812 2.99562 1.70891 3.942 1.3625C4.0253 1.33199 4.11522 1.3242 4.20252 1.33991C4.28983 1.35562 4.37138 1.39428 4.43882 1.45192C4.50625 1.50956 4.55714 1.5841 4.58625 1.66789C4.61537 1.75169 4.62167 1.84172 4.6045 1.92875C4.42929 2.81561 4.47519 3.73196 4.73817 4.59687C5.00114 5.46177 5.47309 6.24859 6.11231 6.88781C6.75154 7.52704 7.53836 7.99899 8.40326 8.26196C9.26816 8.52494 10.1845 8.57084 11.0714 8.39563C11.1585 8.37859 11.2486 8.38507 11.3324 8.4144C11.4163 8.44373 11.4907 8.49485 11.5483 8.5625ZM10.3364 9.4925C10.2245 9.49813 10.112 9.50125 10.0001 9.50125C8.27656 9.49943 6.62413 8.81385 5.4055 7.59499C4.18688 6.37613 3.50162 4.72357 3.50013 3C3.50013 2.88812 3.50013 2.77562 3.50888 2.66375C2.84362 3.04657 2.27542 3.57741 1.84831 4.21514C1.42121 4.85287 1.14665 5.58037 1.04592 6.34127C0.945192 7.10218 1.02099 7.87606 1.26745 8.60295C1.51391 9.32985 1.92441 9.99025 2.46714 10.533C3.00988 11.0757 3.67028 11.4862 4.39717 11.7327C5.12407 11.9791 5.89795 12.0549 6.65886 11.9542C7.41976 11.8535 8.14726 11.5789 8.78499 11.1518C9.42272 10.7247 9.95356 10.1565 10.3364 9.49125V9.4925Z" fill="#818181"/>
</svg>
