<svg width="40" height="40" viewBox="0 0 40 40" fill="none" xmlns="http://www.w3.org/2000/svg">
<rect width="40" height="40" rx="8" fill="#2F6AA5"/>
<path d="M26.7773 26.5398L21.8867 18.8539L26.7125 13.5453C26.8216 13.4223 26.8779 13.2612 26.869 13.097C26.8602 12.9327 26.787 12.7786 26.6653 12.668C26.5436 12.5574 26.3832 12.4992 26.2188 12.5061C26.0545 12.513 25.8995 12.5843 25.7875 12.7047L21.1906 17.7609L18.0273 12.7898C17.9709 12.7011 17.893 12.6279 17.8008 12.5773C17.7086 12.5266 17.6052 12.5 17.5 12.5H13.75C13.6379 12.4999 13.5279 12.53 13.4314 12.5871C13.335 12.6441 13.2557 12.7261 13.2018 12.8243C13.1478 12.9226 13.1213 13.0335 13.125 13.1455C13.1287 13.2575 13.1624 13.3664 13.2226 13.4609L18.1133 21.1461L13.2875 26.4586C13.2311 26.5191 13.1873 26.5902 13.1587 26.6678C13.13 26.7454 13.117 26.8279 13.1205 26.9105C13.1239 26.9932 13.1438 27.0743 13.1788 27.1492C13.2138 27.2241 13.2634 27.2914 13.3246 27.347C13.3858 27.4026 13.4574 27.4455 13.5354 27.4733C13.6133 27.501 13.6959 27.513 13.7785 27.5085C13.8611 27.5041 13.942 27.4833 14.0165 27.4474C14.091 27.4114 14.1576 27.3611 14.2125 27.2992L18.8093 22.243L21.9726 27.2141C22.0295 27.3021 22.1076 27.3745 22.1998 27.4244C22.2919 27.4744 22.3951 27.5004 22.5 27.5H26.25C26.3619 27.5 26.4718 27.4699 26.5681 27.4128C26.6645 27.3558 26.7437 27.274 26.7976 27.1759C26.8515 27.0778 26.878 26.967 26.8745 26.8551C26.8709 26.7432 26.8373 26.6343 26.7773 26.5398ZM22.8429 26.25L14.8883 13.75H17.1539L25.1117 26.25H22.8429Z" fill="#FBFBFB"/>
</svg>
